<svg width="33" height="32" viewBox="0 0 33 32" fill="none" xmlns="http://www.w3.org/2000/svg">
<path d="M15.2332 7.68716C13.5417 6.86288 11.6415 6.40039 9.6332 6.40039C7.62495 6.40039 5.72472 6.86288 4.0332 7.68716V23.6872C5.72472 22.8629 7.62495 22.4004 9.6332 22.4004C12.303 22.4004 14.7818 23.2178 16.8332 24.6159C18.8846 23.2178 21.3634 22.4004 24.0332 22.4004C26.0415 22.4004 27.9417 22.8629 29.6332 23.6872V7.68716C27.9417 6.86288 26.0415 6.40039 24.0332 6.40039C22.0249 6.40039 20.1247 6.86288 18.4332 7.68716V19.2004C18.4332 20.084 17.7169 20.8004 16.8332 20.8004C15.9495 20.8004 15.2332 20.084 15.2332 19.2004V7.68716Z" fill="white"/>
</svg>
