<svg width="32" height="33" viewBox="0 0 32 33" fill="none" xmlns="http://www.w3.org/2000/svg">
<path d="M25.2005 7.83331C24.9336 7.03319 24.2005 6.5 23.3333 6.5H8.66669C7.7995 6.5 7.06644 7.03319 6.7995 7.83331L4 15.1667V25.1667C4 25.8997 4.60025 26.5 5.33331 26.5H6.66669C7.39975 26.5 8 25.8997 8 25.1667V24.5H24V25.1667C24 25.8997 24.6003 26.5 25.3333 26.5H26.6667C27.3997 26.5 28 25.8997 28 25.1667V15.1667L25.2005 7.83331ZM8.66669 20.5C7.53388 20.5 6.66669 19.6334 6.66669 18.5C6.66669 17.3666 7.53388 16.5 8.66669 16.5C9.7995 16.5 10.6667 17.3666 10.6667 18.5C10.6667 19.6334 9.7995 20.5 8.66669 20.5ZM23.3333 20.5C22.2005 20.5 21.3333 19.6334 21.3333 18.5C21.3333 17.3666 22.2005 16.5 23.3333 16.5C24.4661 16.5 25.3333 17.3666 25.3333 18.5C25.3333 19.6334 24.4661 20.5 23.3333 20.5ZM6.66669 13.8333L8.66669 8.5H23.3333L25.3333 13.8333H6.66669Z" fill="white"/>
</svg>
