<svg
    width="32"
    height="32"
    viewBox="0 0 32 32"
    fill="none"
    xmlns="http://www.w3.org/2000/svg">
    <g clip-path="url(#clip0_45_307)">
        <path
            d="M31.5627 10.9251L29.0877 8.4501C28.5002 7.8626 27.5502 7.8626 26.9689 8.4501L12.0002 23.4188L5.0377 16.4501C4.4502 15.8626 3.5002 15.8626 2.91895 16.4501L0.437695 18.9313C-0.149805 19.5188 -0.149805 20.4688 0.437695 21.0563L10.9377 31.5626C11.5252 32.1501 12.4752 32.1501 13.0564 31.5626L31.5564 13.0501C32.1439 12.4563 32.1439 11.5063 31.5627 10.9251ZM11.2939 17.5501C11.6814 17.9438 12.3189 17.9438 12.7064 17.5501L25.7064 4.5376C26.0939 4.14385 26.0939 3.5126 25.7064 3.1251L22.8814 0.293848C22.4939 -0.0999023 21.8564 -0.0999023 21.4689 0.293848L12.0002 9.7626L8.5377 6.29385C8.1502 5.9001 7.5127 5.9001 7.1252 6.29385L4.29395 9.1251C3.90645 9.51885 3.90645 10.1501 4.29395 10.5376L11.2939 17.5501Z"
            fill="white"/>
    </g>
    <defs>
        <clipPath id="clip0_45_307">
            <rect width="32" height="32" fill="white"/>
        </clipPath>
    </defs>
</svg>