<svg width="33" height="32" viewBox="0 0 33 32" fill="none" xmlns="http://www.w3.org/2000/svg">
<path d="M13.6599 11.8687C13.9075 11.7036 14.2135 11.556 14.5665 11.4418L14.5665 14.1586C14.2135 14.0444 13.9075 13.8968 13.6599 13.7317C13.0773 13.3433 12.9665 12.9824 12.9665 12.8002C12.9665 12.618 13.0773 12.2571 13.6599 11.8687Z" fill="white"/>
<path d="M17.7665 20.5586L17.7665 17.8418C18.1194 17.956 18.4254 18.1036 18.6731 18.2687C19.2557 18.6571 19.3665 19.018 19.3665 19.2002C19.3665 19.3824 19.2557 19.7433 18.6731 20.1317C18.4254 20.2968 18.1195 20.4444 17.7665 20.5586Z" fill="white"/>
<path fill-rule="evenodd" clip-rule="evenodd" d="M16.1665 28.8002C23.2357 28.8002 28.9665 23.0694 28.9665 16.0002C28.9665 8.93095 23.2357 3.2002 16.1665 3.2002C9.09721 3.2002 3.36646 8.93095 3.36646 16.0002C3.36646 23.0694 9.09721 28.8002 16.1665 28.8002ZM17.7665 8.0002C17.7665 7.11654 17.0501 6.4002 16.1665 6.4002C15.2828 6.4002 14.5665 7.11654 14.5665 8.0002V8.14738C13.5719 8.33416 12.652 8.69471 11.8848 9.20617C10.7301 9.97596 9.76645 11.2151 9.76645 12.8002C9.76645 14.3853 10.7301 15.6244 11.8848 16.3942C12.652 16.9057 13.5719 17.2662 14.5665 17.453L14.5665 20.559C13.9409 20.3559 13.4771 20.0512 13.2171 19.7516C12.638 19.0842 11.6275 19.0126 10.96 19.5917C10.2926 20.1708 10.221 21.1814 10.8002 21.8488C11.7001 22.886 13.0617 23.5695 14.5665 23.8524L14.5665 24.0002C14.5664 24.8838 15.2828 25.6002 16.1664 25.6002C17.0501 25.6002 17.7664 24.8839 17.7665 24.0002L17.7665 23.853C18.761 23.6662 19.6809 23.3057 20.4481 22.7942C21.6028 22.0244 22.5665 20.7853 22.5665 19.2002C22.5665 17.6151 21.6028 16.376 20.4481 15.6062C19.6809 15.0947 18.761 14.7342 17.7665 14.5474L17.7665 11.4414C18.3921 11.6445 18.8558 11.9491 19.1158 12.2488C19.6949 12.9162 20.7055 12.9878 21.3729 12.4087C22.0403 11.8295 22.1119 10.819 21.5328 10.1516C20.6328 9.11438 19.2712 8.43084 17.7665 8.14797V8.0002Z" fill="white"/>
</svg>
