<svg
    width="70"
    height="18"
    viewBox="0 0 70 18"
    fill="none"
    xmlns="http://www.w3.org/2000/svg"
    className="ml-2 mt-1 w-[70px] h-[17px]">
    <g clip-path="url(#clip0_270_8479)">
        <path
            d="M18.7702 12.2988V11.9288C18.7702 7.50883 16.1902 4.79883 12.4102 4.79883C11.5891 4.79876 10.7762 4.96232 10.019 5.27996C9.26184 5.59761 8.57554 6.06296 8.00023 6.64883C7.42784 7.21762 6.97607 7.89603 6.67195 8.64346C6.36782 9.39089 6.21758 10.192 6.23023 10.9988C6.22031 12.6409 6.85598 14.2211 8.00023 15.3988C8.56778 16.0167 9.26158 16.5052 10.0346 16.8313C10.8075 17.1574 11.6416 17.3135 12.4802 17.2888C13.7099 17.3348 14.9239 17.0016 15.9579 16.3344C16.9918 15.6672 17.7955 14.6982 18.2602 13.5588H14.3802C13.8803 14.0101 13.2231 14.2471 12.5502 14.2188C11.9363 14.2986 11.3147 14.1458 10.8077 13.7905C10.3007 13.4352 9.94487 12.9031 9.81023 12.2988H18.7702ZM15.2602 9.83883H9.72023C9.88038 9.25447 10.2426 8.74586 10.7425 8.40346C11.2424 8.06105 11.8475 7.90704 12.4502 7.96883C13.0598 7.92391 13.667 8.08336 14.1759 8.422C14.6847 8.76064 15.0663 9.25917 15.2602 9.83883Z"
            fill="#494545"/>
        <path
            d="M31.9999 12.2988V11.9288C31.9999 7.49883 29.3899 4.79883 25.6099 4.79883C24.7957 4.80514 23.9907 4.97176 23.2409 5.28919C22.4911 5.60661 21.8112 6.06862 21.2399 6.64883C20.6617 7.21636 20.2021 7.89322 19.888 8.64002C19.5738 9.38681 19.4113 10.1886 19.4099 10.9988C19.3957 12.6379 20.0239 14.2173 21.1599 15.3988C21.73 16.0195 22.4269 16.5104 23.2033 16.8382C23.9797 17.166 24.8175 17.3231 25.6599 17.2988C26.8907 17.344 28.1056 17.0094 29.1397 16.3403C30.1737 15.6712 30.9768 14.7001 31.4399 13.5588H27.5799C27.08 14.0101 26.4228 14.2471 25.7499 14.2188C25.1344 14.3012 24.5103 14.1497 24.0011 13.7942C23.4919 13.4387 23.1346 12.9051 22.9999 12.2988H31.9999ZM28.4599 9.83883H22.9199C23.0803 9.25261 23.444 8.74258 23.946 8.39998C24.448 8.05738 25.0555 7.90455 25.6599 7.96883C26.2685 7.92268 26.875 8.0818 27.3825 8.42076C27.8901 8.75973 28.2694 9.259 28.4599 9.83883Z"
            fill="#494545"/>
        <path
            d="M1.28 7.79932V17.0093H4.71V7.79932H6.09V5.14932H4.71V4.85932C4.71 3.77932 5 3.42932 6 3.42932H6.08V1.03932H5.54C2.63 1.01932 1.26 2.16932 1.26 4.70932C1.26 4.83932 1.26 4.98932 1.26 5.14932H0V7.79932H1.28Z"
            fill="#494545"/>
        <path
            d="M33.3 7.79906V17.0091H36.72V7.79906H38.11V5.14906H36.72V4.85906C36.72 3.77906 36.96 3.42906 38.02 3.42906H38.11V1.03906H37.56C34.64 1.03906 33.27 2.18906 33.27 4.72906C33.27 4.85906 33.27 5.00906 33.27 5.16906H32V7.79906H33.3Z"
            fill="#494545"/>
        <path
            d="M50.6298 10.9998C50.6097 9.76759 50.2263 8.56873 49.5278 7.55346C48.8293 6.53819 47.8466 5.75169 46.703 5.29253C45.5593 4.83337 44.3056 4.72198 43.099 4.97232C41.8923 5.22265 40.7864 5.82358 39.9198 6.69979C39.3412 7.26812 38.8829 7.94696 38.572 8.69596C38.261 9.44496 38.1038 10.2488 38.1098 11.0598C38.0915 12.6858 38.717 14.2531 39.8498 15.4198C40.4187 16.0392 41.114 16.5293 41.8886 16.8571C42.6631 17.1848 43.499 17.3426 44.3398 17.3198C45.1744 17.34 46.0043 17.1889 46.7783 16.8758C47.5522 16.5628 48.2538 16.0945 48.8398 15.4998C49.4294 14.9199 49.8928 14.2243 50.2008 13.4568C50.5088 12.6893 50.6549 11.8664 50.6298 11.0398M47.1598 11.1298C47.1487 11.8511 46.8607 12.5405 46.3554 13.0553C45.8501 13.5701 45.1662 13.8708 44.4452 13.8952C43.7243 13.9197 43.0215 13.6659 42.4825 13.1864C41.9435 12.707 41.6096 12.0387 41.5498 11.3198V11.1298C41.5208 10.3937 41.7821 9.67572 42.2773 9.13038C42.7726 8.58504 43.4621 8.25597 44.1976 8.21402C44.933 8.17207 45.6555 8.42059 46.2096 8.90608C46.7636 9.39157 47.1048 10.0752 47.1598 10.8098V11.1298Z"
            fill="#494545"/>
        <path
            d="M55.9998 9.0792C55.1858 9.02499 54.4193 8.67649 53.8434 8.09871C53.2674 7.52094 52.9214 6.75336 52.8698 5.9392H60.1998V5.8592C60.1998 2.9792 58.3598 1.0492 55.8098 1.0492C55.2101 1.02966 54.6127 1.13354 54.0548 1.35441C53.4969 1.57528 52.9904 1.90842 52.5666 2.33317C52.1427 2.75792 51.8107 3.26522 51.5911 3.8236C51.3715 4.38198 51.2689 4.97954 51.2898 5.5792C51.2737 6.77194 51.7308 7.92247 52.5611 8.77897C53.3913 9.63546 54.5271 10.1281 55.7198 10.1492H55.7698C56.6905 10.1498 57.588 9.86033 58.3348 9.32178C59.0816 8.78322 59.6397 8.02303 59.9298 7.1492H59.1898C58.9204 7.71782 58.4959 8.19878 57.9651 8.53669C57.4344 8.87461 56.8189 9.05573 56.1898 9.0592H55.9998"
            fill="#FDDC47"/>
        <path
            d="M65.3098 9.07921C66.1235 9.02687 66.89 8.67868 67.4647 8.10028C68.0394 7.52188 68.3827 6.75323 68.4298 5.93921H61.0898V5.85921C61.0898 2.97921 62.9298 1.04921 65.4798 1.04921C66.0804 1.02959 66.6786 1.13376 67.2372 1.35523C67.7958 1.57671 68.3029 1.91076 68.7268 2.33659C69.1508 2.76243 69.4826 3.27095 69.7016 3.83051C69.9206 4.39008 70.0221 4.98872 69.9998 5.58921C70.0091 6.18053 69.9015 6.76784 69.6831 7.31744C69.4647 7.86703 69.1399 8.36807 68.7274 8.79178C68.3148 9.21549 67.8226 9.55353 67.279 9.78648C66.7354 10.0194 66.1512 10.1427 65.5598 10.1492C64.6378 10.1504 63.7387 9.86131 62.9902 9.32282C62.2417 8.78434 61.6818 8.02384 61.3898 7.14921H62.1298C62.3992 7.71632 62.8242 8.19514 63.3554 8.52979C63.8866 8.86444 64.502 9.04112 65.1298 9.03921H65.3298"
            fill="#FDDC47"/>
    </g>
    <defs>
        <clipPath id="clip0_270_8479">
            <rect width="70" height="17" fill="white" transform="translate(0 0.5)"/>
        </clipPath>
    </defs>
</svg>