<svg width="379" height="412" viewBox="0 0 379 412" fill="none" xmlns="http://www.w3.org/2000/svg">
<path d="M13.8764 3.08684C14.7288 3.08684 15.4199 2.39583 15.4199 1.54342C15.4199 0.691013 14.7288 0 13.8764 0C13.024 0 12.333 0.691013 12.333 1.54342C12.333 2.39583 13.024 3.08684 13.8764 3.08684Z" fill="white"/>
<path d="M36.5434 3.08684C37.3958 3.08684 38.0868 2.39583 38.0868 1.54342C38.0868 0.691013 37.3958 0 36.5434 0C35.691 0 35 0.691013 35 1.54342C35 2.39583 35.691 3.08684 36.5434 3.08684Z" fill="white"/>
<path d="M59.2099 3.08684C60.0623 3.08684 60.7533 2.39583 60.7533 1.54342C60.7533 0.691013 60.0623 0 59.2099 0C58.3575 0 57.6665 0.691013 57.6665 1.54342C57.6665 2.39583 58.3575 3.08684 59.2099 3.08684Z" fill="white"/>
<path d="M81.8769 3.08684C82.7293 3.08684 83.4203 2.39583 83.4203 1.54342C83.4203 0.691013 82.7293 0 81.8769 0C81.0245 0 80.3335 0.691013 80.3335 1.54342C80.3335 2.39583 81.0245 3.08684 81.8769 3.08684Z" fill="white"/>
<path d="M104.543 3.08684C105.396 3.08684 106.087 2.39583 106.087 1.54342C106.087 0.691013 105.396 0 104.543 0C103.691 0 103 0.691013 103 1.54342C103 2.39583 103.691 3.08684 104.543 3.08684Z" fill="white"/>
<path d="M127.21 3.08684C128.062 3.08684 128.753 2.39583 128.753 1.54342C128.753 0.691013 128.062 0 127.21 0C126.358 0 125.667 0.691013 125.667 1.54342C125.667 2.39583 126.358 3.08684 127.21 3.08684Z" fill="white"/>
<path d="M149.877 3.08684C150.729 3.08684 151.42 2.39583 151.42 1.54342C151.42 0.691013 150.729 0 149.877 0C149.025 0 148.333 0.691013 148.333 1.54342C148.333 2.39583 149.025 3.08684 149.877 3.08684Z" fill="white"/>
<path d="M172.543 3.08684C173.396 3.08684 174.087 2.39583 174.087 1.54342C174.087 0.691013 173.396 0 172.543 0C171.691 0 171 0.691013 171 1.54342C171 2.39583 171.691 3.08684 172.543 3.08684Z" fill="white"/>
<path d="M195.21 3.08684C196.062 3.08684 196.753 2.39583 196.753 1.54342C196.753 0.691013 196.062 0 195.21 0C194.358 0 193.667 0.691013 193.667 1.54342C193.667 2.39583 194.358 3.08684 195.21 3.08684Z" fill="white"/>
<path d="M217.877 3.08684C218.729 3.08684 219.42 2.39583 219.42 1.54342C219.42 0.691013 218.729 0 217.877 0C217.025 0 216.333 0.691013 216.333 1.54342C216.333 2.39583 217.025 3.08684 217.877 3.08684Z" fill="white"/>
<path d="M240.543 3.08684C241.396 3.08684 242.087 2.39583 242.087 1.54342C242.087 0.691013 241.396 0 240.543 0C239.691 0 239 0.691013 239 1.54342C239 2.39583 239.691 3.08684 240.543 3.08684Z" fill="white"/>
<path d="M263.21 3.08684C264.062 3.08684 264.753 2.39583 264.753 1.54342C264.753 0.691013 264.062 0 263.21 0C262.358 0 261.667 0.691013 261.667 1.54342C261.667 2.39583 262.358 3.08684 263.21 3.08684Z" fill="white"/>
<path d="M285.877 3.08684C286.729 3.08684 287.42 2.39583 287.42 1.54342C287.42 0.691013 286.729 0 285.877 0C285.025 0 284.333 0.691013 284.333 1.54342C284.333 2.39583 285.025 3.08684 285.877 3.08684Z" fill="white"/>
<path d="M308.543 3.08684C309.396 3.08684 310.087 2.39583 310.087 1.54342C310.087 0.691013 309.396 0 308.543 0C307.691 0 307 0.691013 307 1.54342C307 2.39583 307.691 3.08684 308.543 3.08684Z" fill="white"/>
<path d="M331.21 3.08684C332.062 3.08684 332.753 2.39583 332.753 1.54342C332.753 0.691013 332.062 0 331.21 0C330.358 0 329.667 0.691013 329.667 1.54342C329.667 2.39583 330.358 3.08684 331.21 3.08684Z" fill="white"/>
<path d="M353.877 3.08684C354.729 3.08684 355.42 2.39583 355.42 1.54342C355.42 0.691013 354.729 0 353.877 0C353.025 0 352.333 0.691013 352.333 1.54342C352.333 2.39583 353.025 3.08684 353.877 3.08684Z" fill="white"/>
<path d="M376.543 3.08684C377.396 3.08684 378.087 2.39583 378.087 1.54342C378.087 0.691013 377.396 0 376.543 0C375.691 0 375 0.691013 375 1.54342C375 2.39583 375.691 3.08684 376.543 3.08684Z" fill="white"/>
<path d="M13.8764 25.7536C14.7288 25.7536 15.4199 25.0626 15.4199 24.2102C15.4199 23.3578 14.7288 22.6667 13.8764 22.6667C13.024 22.6667 12.333 23.3578 12.333 24.2102C12.333 25.0626 13.024 25.7536 13.8764 25.7536Z" fill="white"/>
<path d="M36.5434 25.7536C37.3958 25.7536 38.0868 25.0626 38.0868 24.2102C38.0868 23.3578 37.3958 22.6667 36.5434 22.6667C35.691 22.6667 35 23.3578 35 24.2102C35 25.0626 35.691 25.7536 36.5434 25.7536Z" fill="white"/>
<path d="M59.2099 25.7536C60.0623 25.7536 60.7533 25.0626 60.7533 24.2102C60.7533 23.3578 60.0623 22.6667 59.2099 22.6667C58.3575 22.6667 57.6665 23.3578 57.6665 24.2102C57.6665 25.0626 58.3575 25.7536 59.2099 25.7536Z" fill="white"/>
<path d="M81.8769 25.7536C82.7293 25.7536 83.4203 25.0626 83.4203 24.2102C83.4203 23.3578 82.7293 22.6667 81.8769 22.6667C81.0245 22.6667 80.3335 23.3578 80.3335 24.2102C80.3335 25.0626 81.0245 25.7536 81.8769 25.7536Z" fill="white"/>
<path d="M104.543 25.7536C105.396 25.7536 106.087 25.0626 106.087 24.2102C106.087 23.3578 105.396 22.6667 104.543 22.6667C103.691 22.6667 103 23.3578 103 24.2102C103 25.0626 103.691 25.7536 104.543 25.7536Z" fill="white"/>
<path d="M127.21 25.7536C128.062 25.7536 128.753 25.0626 128.753 24.2102C128.753 23.3578 128.062 22.6667 127.21 22.6667C126.358 22.6667 125.667 23.3578 125.667 24.2102C125.667 25.0626 126.358 25.7536 127.21 25.7536Z" fill="white"/>
<path d="M149.877 25.7536C150.729 25.7536 151.42 25.0626 151.42 24.2102C151.42 23.3578 150.729 22.6667 149.877 22.6667C149.025 22.6667 148.333 23.3578 148.333 24.2102C148.333 25.0626 149.025 25.7536 149.877 25.7536Z" fill="white"/>
<path d="M172.543 25.7536C173.396 25.7536 174.087 25.0626 174.087 24.2102C174.087 23.3578 173.396 22.6667 172.543 22.6667C171.691 22.6667 171 23.3578 171 24.2102C171 25.0626 171.691 25.7536 172.543 25.7536Z" fill="white"/>
<path d="M195.21 25.7536C196.062 25.7536 196.753 25.0626 196.753 24.2102C196.753 23.3578 196.062 22.6667 195.21 22.6667C194.358 22.6667 193.667 23.3578 193.667 24.2102C193.667 25.0626 194.358 25.7536 195.21 25.7536Z" fill="white"/>
<path d="M217.877 25.7536C218.729 25.7536 219.42 25.0626 219.42 24.2102C219.42 23.3578 218.729 22.6667 217.877 22.6667C217.025 22.6667 216.333 23.3578 216.333 24.2102C216.333 25.0626 217.025 25.7536 217.877 25.7536Z" fill="white"/>
<path d="M240.543 25.7536C241.396 25.7536 242.087 25.0626 242.087 24.2102C242.087 23.3578 241.396 22.6667 240.543 22.6667C239.691 22.6667 239 23.3578 239 24.2102C239 25.0626 239.691 25.7536 240.543 25.7536Z" fill="white"/>
<path d="M263.21 25.7536C264.062 25.7536 264.753 25.0626 264.753 24.2102C264.753 23.3578 264.062 22.6667 263.21 22.6667C262.358 22.6667 261.667 23.3578 261.667 24.2102C261.667 25.0626 262.358 25.7536 263.21 25.7536Z" fill="white"/>
<path d="M285.877 25.7536C286.729 25.7536 287.42 25.0626 287.42 24.2102C287.42 23.3578 286.729 22.6667 285.877 22.6667C285.025 22.6667 284.333 23.3578 284.333 24.2102C284.333 25.0626 285.025 25.7536 285.877 25.7536Z" fill="white"/>
<path d="M308.543 25.7536C309.396 25.7536 310.087 25.0626 310.087 24.2102C310.087 23.3578 309.396 22.6667 308.543 22.6667C307.691 22.6667 307 23.3578 307 24.2102C307 25.0626 307.691 25.7536 308.543 25.7536Z" fill="white"/>
<path d="M331.21 25.7536C332.062 25.7536 332.753 25.0626 332.753 24.2102C332.753 23.3578 332.062 22.6667 331.21 22.6667C330.358 22.6667 329.667 23.3578 329.667 24.2102C329.667 25.0626 330.358 25.7536 331.21 25.7536Z" fill="white"/>
<path d="M353.877 25.7536C354.729 25.7536 355.42 25.0626 355.42 24.2102C355.42 23.3578 354.729 22.6667 353.877 22.6667C353.025 22.6667 352.333 23.3578 352.333 24.2102C352.333 25.0626 353.025 25.7536 353.877 25.7536Z" fill="white"/>
<path d="M376.543 25.7536C377.396 25.7536 378.087 25.0626 378.087 24.2102C378.087 23.3578 377.396 22.6667 376.543 22.6667C375.691 22.6667 375 23.3578 375 24.2102C375 25.0626 375.691 25.7536 376.543 25.7536Z" fill="white"/>
<path d="M13.8764 48.4201C14.7288 48.4201 15.4199 47.7291 15.4199 46.8767C15.4199 46.0243 14.7288 45.3333 13.8764 45.3333C13.024 45.3333 12.333 46.0243 12.333 46.8767C12.333 47.7291 13.024 48.4201 13.8764 48.4201Z" fill="white"/>
<path d="M36.5434 48.4201C37.3958 48.4201 38.0868 47.7291 38.0868 46.8767C38.0868 46.0243 37.3958 45.3333 36.5434 45.3333C35.691 45.3333 35 46.0243 35 46.8767C35 47.7291 35.691 48.4201 36.5434 48.4201Z" fill="white"/>
<path d="M59.2099 48.4201C60.0623 48.4201 60.7533 47.7291 60.7533 46.8767C60.7533 46.0243 60.0623 45.3333 59.2099 45.3333C58.3575 45.3333 57.6665 46.0243 57.6665 46.8767C57.6665 47.7291 58.3575 48.4201 59.2099 48.4201Z" fill="white"/>
<path d="M81.8769 48.4201C82.7293 48.4201 83.4203 47.7291 83.4203 46.8767C83.4203 46.0243 82.7293 45.3333 81.8769 45.3333C81.0245 45.3333 80.3335 46.0243 80.3335 46.8767C80.3335 47.7291 81.0245 48.4201 81.8769 48.4201Z" fill="white"/>
<path d="M104.543 48.4201C105.396 48.4201 106.087 47.7291 106.087 46.8767C106.087 46.0243 105.396 45.3333 104.543 45.3333C103.691 45.3333 103 46.0243 103 46.8767C103 47.7291 103.691 48.4201 104.543 48.4201Z" fill="white"/>
<path d="M127.21 48.4201C128.062 48.4201 128.753 47.7291 128.753 46.8767C128.753 46.0243 128.062 45.3333 127.21 45.3333C126.358 45.3333 125.667 46.0243 125.667 46.8767C125.667 47.7291 126.358 48.4201 127.21 48.4201Z" fill="white"/>
<path d="M149.877 48.4201C150.729 48.4201 151.42 47.7291 151.42 46.8767C151.42 46.0243 150.729 45.3333 149.877 45.3333C149.025 45.3333 148.333 46.0243 148.333 46.8767C148.333 47.7291 149.025 48.4201 149.877 48.4201Z" fill="white"/>
<path d="M172.543 48.4201C173.396 48.4201 174.087 47.7291 174.087 46.8767C174.087 46.0243 173.396 45.3333 172.543 45.3333C171.691 45.3333 171 46.0243 171 46.8767C171 47.7291 171.691 48.4201 172.543 48.4201Z" fill="white"/>
<path d="M195.21 48.4201C196.062 48.4201 196.753 47.7291 196.753 46.8767C196.753 46.0243 196.062 45.3333 195.21 45.3333C194.358 45.3333 193.667 46.0243 193.667 46.8767C193.667 47.7291 194.358 48.4201 195.21 48.4201Z" fill="white"/>
<path d="M217.877 48.4201C218.729 48.4201 219.42 47.7291 219.42 46.8767C219.42 46.0243 218.729 45.3333 217.877 45.3333C217.025 45.3333 216.333 46.0243 216.333 46.8767C216.333 47.7291 217.025 48.4201 217.877 48.4201Z" fill="white"/>
<path d="M240.543 48.4201C241.396 48.4201 242.087 47.7291 242.087 46.8767C242.087 46.0243 241.396 45.3333 240.543 45.3333C239.691 45.3333 239 46.0243 239 46.8767C239 47.7291 239.691 48.4201 240.543 48.4201Z" fill="white"/>
<path d="M263.21 48.4201C264.062 48.4201 264.753 47.7291 264.753 46.8767C264.753 46.0243 264.062 45.3333 263.21 45.3333C262.358 45.3333 261.667 46.0243 261.667 46.8767C261.667 47.7291 262.358 48.4201 263.21 48.4201Z" fill="white"/>
<path d="M285.877 48.4201C286.729 48.4201 287.42 47.7291 287.42 46.8767C287.42 46.0243 286.729 45.3333 285.877 45.3333C285.025 45.3333 284.333 46.0243 284.333 46.8767C284.333 47.7291 285.025 48.4201 285.877 48.4201Z" fill="white"/>
<path d="M308.543 48.4201C309.396 48.4201 310.087 47.7291 310.087 46.8767C310.087 46.0243 309.396 45.3333 308.543 45.3333C307.691 45.3333 307 46.0243 307 46.8767C307 47.7291 307.691 48.4201 308.543 48.4201Z" fill="white"/>
<path d="M331.21 48.4201C332.062 48.4201 332.753 47.7291 332.753 46.8767C332.753 46.0243 332.062 45.3333 331.21 45.3333C330.358 45.3333 329.667 46.0243 329.667 46.8767C329.667 47.7291 330.358 48.4201 331.21 48.4201Z" fill="white"/>
<path d="M353.877 48.4201C354.729 48.4201 355.42 47.7291 355.42 46.8767C355.42 46.0243 354.729 45.3333 353.877 45.3333C353.025 45.3333 352.333 46.0243 352.333 46.8767C352.333 47.7291 353.025 48.4201 353.877 48.4201Z" fill="white"/>
<path d="M376.543 48.4201C377.396 48.4201 378.087 47.7291 378.087 46.8767C378.087 46.0243 377.396 45.3333 376.543 45.3333C375.691 45.3333 375 46.0243 375 46.8767C375 47.7291 375.691 48.4201 376.543 48.4201Z" fill="white"/>
<path d="M13.8764 71.0868C14.7288 71.0868 15.4199 70.3958 15.4199 69.5434C15.4199 68.691 14.7288 68 13.8764 68C13.024 68 12.333 68.691 12.333 69.5434C12.333 70.3958 13.024 71.0868 13.8764 71.0868Z" fill="white"/>
<path d="M36.5434 71.0868C37.3958 71.0868 38.0868 70.3958 38.0868 69.5434C38.0868 68.691 37.3958 68 36.5434 68C35.691 68 35 68.691 35 69.5434C35 70.3958 35.691 71.0868 36.5434 71.0868Z" fill="white"/>
<path d="M59.2099 71.0868C60.0623 71.0868 60.7533 70.3958 60.7533 69.5434C60.7533 68.691 60.0623 68 59.2099 68C58.3575 68 57.6665 68.691 57.6665 69.5434C57.6665 70.3958 58.3575 71.0868 59.2099 71.0868Z" fill="white"/>
<path d="M81.8769 71.0868C82.7293 71.0868 83.4203 70.3958 83.4203 69.5434C83.4203 68.691 82.7293 68 81.8769 68C81.0245 68 80.3335 68.691 80.3335 69.5434C80.3335 70.3958 81.0245 71.0868 81.8769 71.0868Z" fill="white"/>
<path d="M104.543 71.0868C105.396 71.0868 106.087 70.3958 106.087 69.5434C106.087 68.691 105.396 68 104.543 68C103.691 68 103 68.691 103 69.5434C103 70.3958 103.691 71.0868 104.543 71.0868Z" fill="white"/>
<path d="M127.21 71.0868C128.062 71.0868 128.753 70.3958 128.753 69.5434C128.753 68.691 128.062 68 127.21 68C126.358 68 125.667 68.691 125.667 69.5434C125.667 70.3958 126.358 71.0868 127.21 71.0868Z" fill="white"/>
<path d="M149.877 71.0868C150.729 71.0868 151.42 70.3958 151.42 69.5434C151.42 68.691 150.729 68 149.877 68C149.025 68 148.333 68.691 148.333 69.5434C148.333 70.3958 149.025 71.0868 149.877 71.0868Z" fill="white"/>
<path d="M172.543 71.0868C173.396 71.0868 174.087 70.3958 174.087 69.5434C174.087 68.691 173.396 68 172.543 68C171.691 68 171 68.691 171 69.5434C171 70.3958 171.691 71.0868 172.543 71.0868Z" fill="white"/>
<path d="M195.21 71.0868C196.062 71.0868 196.753 70.3958 196.753 69.5434C196.753 68.691 196.062 68 195.21 68C194.358 68 193.667 68.691 193.667 69.5434C193.667 70.3958 194.358 71.0868 195.21 71.0868Z" fill="white"/>
<path d="M217.877 71.0868C218.729 71.0868 219.42 70.3958 219.42 69.5434C219.42 68.691 218.729 68 217.877 68C217.025 68 216.333 68.691 216.333 69.5434C216.333 70.3958 217.025 71.0868 217.877 71.0868Z" fill="white"/>
<path d="M240.543 71.0868C241.396 71.0868 242.087 70.3958 242.087 69.5434C242.087 68.691 241.396 68 240.543 68C239.691 68 239 68.691 239 69.5434C239 70.3958 239.691 71.0868 240.543 71.0868Z" fill="white"/>
<path d="M263.21 71.0868C264.062 71.0868 264.753 70.3958 264.753 69.5434C264.753 68.691 264.062 68 263.21 68C262.358 68 261.667 68.691 261.667 69.5434C261.667 70.3958 262.358 71.0868 263.21 71.0868Z" fill="white"/>
<path d="M285.877 71.0868C286.729 71.0868 287.42 70.3958 287.42 69.5434C287.42 68.691 286.729 68 285.877 68C285.025 68 284.333 68.691 284.333 69.5434C284.333 70.3958 285.025 71.0868 285.877 71.0868Z" fill="white"/>
<path d="M308.543 71.0868C309.396 71.0868 310.087 70.3958 310.087 69.5434C310.087 68.691 309.396 68 308.543 68C307.691 68 307 68.691 307 69.5434C307 70.3958 307.691 71.0868 308.543 71.0868Z" fill="white"/>
<path d="M331.21 71.0868C332.062 71.0868 332.753 70.3958 332.753 69.5434C332.753 68.691 332.062 68 331.21 68C330.358 68 329.667 68.691 329.667 69.5434C329.667 70.3958 330.358 71.0868 331.21 71.0868Z" fill="white"/>
<path d="M353.877 71.0868C354.729 71.0868 355.42 70.3958 355.42 69.5434C355.42 68.691 354.729 68 353.877 68C353.025 68 352.333 68.691 352.333 69.5434C352.333 70.3958 353.025 71.0868 353.877 71.0868Z" fill="white"/>
<path d="M376.543 71.0868C377.396 71.0868 378.087 70.3958 378.087 69.5434C378.087 68.691 377.396 68 376.543 68C375.691 68 375 68.691 375 69.5434C375 70.3958 375.691 71.0868 376.543 71.0868Z" fill="white"/>
<path d="M13.8764 93.7536C14.7288 93.7536 15.4199 93.0626 15.4199 92.2102C15.4199 91.3578 14.7288 90.6667 13.8764 90.6667C13.024 90.6667 12.333 91.3578 12.333 92.2102C12.333 93.0626 13.024 93.7536 13.8764 93.7536Z" fill="white"/>
<path d="M36.5434 93.7536C37.3958 93.7536 38.0868 93.0626 38.0868 92.2102C38.0868 91.3578 37.3958 90.6667 36.5434 90.6667C35.691 90.6667 35 91.3578 35 92.2102C35 93.0626 35.691 93.7536 36.5434 93.7536Z" fill="white"/>
<path d="M59.2099 93.7536C60.0623 93.7536 60.7533 93.0626 60.7533 92.2102C60.7533 91.3578 60.0623 90.6667 59.2099 90.6667C58.3575 90.6667 57.6665 91.3578 57.6665 92.2102C57.6665 93.0626 58.3575 93.7536 59.2099 93.7536Z" fill="white"/>
<path d="M81.8769 93.7536C82.7293 93.7536 83.4203 93.0626 83.4203 92.2102C83.4203 91.3578 82.7293 90.6667 81.8769 90.6667C81.0245 90.6667 80.3335 91.3578 80.3335 92.2102C80.3335 93.0626 81.0245 93.7536 81.8769 93.7536Z" fill="white"/>
<path d="M104.543 93.7536C105.396 93.7536 106.087 93.0626 106.087 92.2102C106.087 91.3578 105.396 90.6667 104.543 90.6667C103.691 90.6667 103 91.3578 103 92.2102C103 93.0626 103.691 93.7536 104.543 93.7536Z" fill="white"/>
<path d="M127.21 93.7536C128.062 93.7536 128.753 93.0626 128.753 92.2102C128.753 91.3578 128.062 90.6667 127.21 90.6667C126.358 90.6667 125.667 91.3578 125.667 92.2102C125.667 93.0626 126.358 93.7536 127.21 93.7536Z" fill="white"/>
<path d="M149.877 93.7536C150.729 93.7536 151.42 93.0626 151.42 92.2102C151.42 91.3578 150.729 90.6667 149.877 90.6667C149.025 90.6667 148.333 91.3578 148.333 92.2102C148.333 93.0626 149.025 93.7536 149.877 93.7536Z" fill="white"/>
<path d="M172.543 93.7536C173.396 93.7536 174.087 93.0626 174.087 92.2102C174.087 91.3578 173.396 90.6667 172.543 90.6667C171.691 90.6667 171 91.3578 171 92.2102C171 93.0626 171.691 93.7536 172.543 93.7536Z" fill="white"/>
<path d="M195.21 93.7536C196.062 93.7536 196.753 93.0626 196.753 92.2102C196.753 91.3578 196.062 90.6667 195.21 90.6667C194.358 90.6667 193.667 91.3578 193.667 92.2102C193.667 93.0626 194.358 93.7536 195.21 93.7536Z" fill="white"/>
<path d="M217.877 93.7536C218.729 93.7536 219.42 93.0626 219.42 92.2102C219.42 91.3578 218.729 90.6667 217.877 90.6667C217.025 90.6667 216.333 91.3578 216.333 92.2102C216.333 93.0626 217.025 93.7536 217.877 93.7536Z" fill="white"/>
<path d="M240.543 93.7536C241.396 93.7536 242.087 93.0626 242.087 92.2102C242.087 91.3578 241.396 90.6667 240.543 90.6667C239.691 90.6667 239 91.3578 239 92.2102C239 93.0626 239.691 93.7536 240.543 93.7536Z" fill="white"/>
<path d="M263.21 93.7536C264.062 93.7536 264.753 93.0626 264.753 92.2102C264.753 91.3578 264.062 90.6667 263.21 90.6667C262.358 90.6667 261.667 91.3578 261.667 92.2102C261.667 93.0626 262.358 93.7536 263.21 93.7536Z" fill="white"/>
<path d="M285.877 93.7536C286.729 93.7536 287.42 93.0626 287.42 92.2102C287.42 91.3578 286.729 90.6667 285.877 90.6667C285.025 90.6667 284.333 91.3578 284.333 92.2102C284.333 93.0626 285.025 93.7536 285.877 93.7536Z" fill="white"/>
<path d="M308.543 93.7536C309.396 93.7536 310.087 93.0626 310.087 92.2102C310.087 91.3578 309.396 90.6667 308.543 90.6667C307.691 90.6667 307 91.3578 307 92.2102C307 93.0626 307.691 93.7536 308.543 93.7536Z" fill="white"/>
<path d="M331.21 93.7536C332.062 93.7536 332.753 93.0626 332.753 92.2102C332.753 91.3578 332.062 90.6667 331.21 90.6667C330.358 90.6667 329.667 91.3578 329.667 92.2102C329.667 93.0626 330.358 93.7536 331.21 93.7536Z" fill="white"/>
<path d="M353.877 93.7536C354.729 93.7536 355.42 93.0626 355.42 92.2102C355.42 91.3578 354.729 90.6667 353.877 90.6667C353.025 90.6667 352.333 91.3578 352.333 92.2102C352.333 93.0626 353.025 93.7536 353.877 93.7536Z" fill="white"/>
<path d="M376.543 93.7536C377.396 93.7536 378.087 93.0626 378.087 92.2102C378.087 91.3578 377.396 90.6667 376.543 90.6667C375.691 90.6667 375 91.3578 375 92.2102C375 93.0626 375.691 93.7536 376.543 93.7536Z" fill="white"/>
<path d="M13.8764 116.42C14.7288 116.42 15.4199 115.729 15.4199 114.877C15.4199 114.024 14.7288 113.333 13.8764 113.333C13.024 113.333 12.333 114.024 12.333 114.877C12.333 115.729 13.024 116.42 13.8764 116.42Z" fill="white"/>
<path d="M36.5434 116.42C37.3958 116.42 38.0868 115.729 38.0868 114.877C38.0868 114.024 37.3958 113.333 36.5434 113.333C35.691 113.333 35 114.024 35 114.877C35 115.729 35.691 116.42 36.5434 116.42Z" fill="white"/>
<path d="M59.2099 116.42C60.0623 116.42 60.7533 115.729 60.7533 114.877C60.7533 114.024 60.0623 113.333 59.2099 113.333C58.3575 113.333 57.6665 114.024 57.6665 114.877C57.6665 115.729 58.3575 116.42 59.2099 116.42Z" fill="white"/>
<path d="M81.8769 116.42C82.7293 116.42 83.4203 115.729 83.4203 114.877C83.4203 114.024 82.7293 113.333 81.8769 113.333C81.0245 113.333 80.3335 114.024 80.3335 114.877C80.3335 115.729 81.0245 116.42 81.8769 116.42Z" fill="white"/>
<path d="M104.543 116.42C105.396 116.42 106.087 115.729 106.087 114.877C106.087 114.024 105.396 113.333 104.543 113.333C103.691 113.333 103 114.024 103 114.877C103 115.729 103.691 116.42 104.543 116.42Z" fill="white"/>
<path d="M127.21 116.42C128.062 116.42 128.753 115.729 128.753 114.877C128.753 114.024 128.062 113.333 127.21 113.333C126.358 113.333 125.667 114.024 125.667 114.877C125.667 115.729 126.358 116.42 127.21 116.42Z" fill="white"/>
<path d="M149.877 116.42C150.729 116.42 151.42 115.729 151.42 114.877C151.42 114.024 150.729 113.333 149.877 113.333C149.025 113.333 148.333 114.024 148.333 114.877C148.333 115.729 149.025 116.42 149.877 116.42Z" fill="white"/>
<path d="M172.543 116.42C173.396 116.42 174.087 115.729 174.087 114.877C174.087 114.024 173.396 113.333 172.543 113.333C171.691 113.333 171 114.024 171 114.877C171 115.729 171.691 116.42 172.543 116.42Z" fill="white"/>
<path d="M195.21 116.42C196.062 116.42 196.753 115.729 196.753 114.877C196.753 114.024 196.062 113.333 195.21 113.333C194.358 113.333 193.667 114.024 193.667 114.877C193.667 115.729 194.358 116.42 195.21 116.42Z" fill="white"/>
<path d="M217.877 116.42C218.729 116.42 219.42 115.729 219.42 114.877C219.42 114.024 218.729 113.333 217.877 113.333C217.025 113.333 216.333 114.024 216.333 114.877C216.333 115.729 217.025 116.42 217.877 116.42Z" fill="white"/>
<path d="M240.543 116.42C241.396 116.42 242.087 115.729 242.087 114.877C242.087 114.024 241.396 113.333 240.543 113.333C239.691 113.333 239 114.024 239 114.877C239 115.729 239.691 116.42 240.543 116.42Z" fill="white"/>
<path d="M263.21 116.42C264.062 116.42 264.753 115.729 264.753 114.877C264.753 114.024 264.062 113.333 263.21 113.333C262.358 113.333 261.667 114.024 261.667 114.877C261.667 115.729 262.358 116.42 263.21 116.42Z" fill="white"/>
<path d="M285.877 116.42C286.729 116.42 287.42 115.729 287.42 114.877C287.42 114.024 286.729 113.333 285.877 113.333C285.025 113.333 284.333 114.024 284.333 114.877C284.333 115.729 285.025 116.42 285.877 116.42Z" fill="white"/>
<path d="M308.543 116.42C309.396 116.42 310.087 115.729 310.087 114.877C310.087 114.024 309.396 113.333 308.543 113.333C307.691 113.333 307 114.024 307 114.877C307 115.729 307.691 116.42 308.543 116.42Z" fill="white"/>
<path d="M331.21 116.42C332.062 116.42 332.753 115.729 332.753 114.877C332.753 114.024 332.062 113.333 331.21 113.333C330.358 113.333 329.667 114.024 329.667 114.877C329.667 115.729 330.358 116.42 331.21 116.42Z" fill="white"/>
<path d="M353.877 116.42C354.729 116.42 355.42 115.729 355.42 114.877C355.42 114.024 354.729 113.333 353.877 113.333C353.025 113.333 352.333 114.024 352.333 114.877C352.333 115.729 353.025 116.42 353.877 116.42Z" fill="white"/>
<path d="M376.543 116.42C377.396 116.42 378.087 115.729 378.087 114.877C378.087 114.024 377.396 113.333 376.543 113.333C375.691 113.333 375 114.024 375 114.877C375 115.729 375.691 116.42 376.543 116.42Z" fill="white"/>
<path d="M13.8764 139.087C14.7288 139.087 15.4199 138.396 15.4199 137.543C15.4199 136.691 14.7288 136 13.8764 136C13.024 136 12.333 136.691 12.333 137.543C12.333 138.396 13.024 139.087 13.8764 139.087Z" fill="white"/>
<path d="M36.5434 139.087C37.3958 139.087 38.0868 138.396 38.0868 137.543C38.0868 136.691 37.3958 136 36.5434 136C35.691 136 35 136.691 35 137.543C35 138.396 35.691 139.087 36.5434 139.087Z" fill="white"/>
<path d="M59.2099 139.087C60.0623 139.087 60.7533 138.396 60.7533 137.543C60.7533 136.691 60.0623 136 59.2099 136C58.3575 136 57.6665 136.691 57.6665 137.543C57.6665 138.396 58.3575 139.087 59.2099 139.087Z" fill="white"/>
<path d="M81.8769 139.087C82.7293 139.087 83.4203 138.396 83.4203 137.543C83.4203 136.691 82.7293 136 81.8769 136C81.0245 136 80.3335 136.691 80.3335 137.543C80.3335 138.396 81.0245 139.087 81.8769 139.087Z" fill="white"/>
<path d="M104.543 139.087C105.396 139.087 106.087 138.396 106.087 137.543C106.087 136.691 105.396 136 104.543 136C103.691 136 103 136.691 103 137.543C103 138.396 103.691 139.087 104.543 139.087Z" fill="white"/>
<path d="M127.21 139.087C128.062 139.087 128.753 138.396 128.753 137.543C128.753 136.691 128.062 136 127.21 136C126.358 136 125.667 136.691 125.667 137.543C125.667 138.396 126.358 139.087 127.21 139.087Z" fill="white"/>
<path d="M149.877 139.087C150.729 139.087 151.42 138.396 151.42 137.543C151.42 136.691 150.729 136 149.877 136C149.025 136 148.333 136.691 148.333 137.543C148.333 138.396 149.025 139.087 149.877 139.087Z" fill="white"/>
<path d="M172.543 139.087C173.396 139.087 174.087 138.396 174.087 137.543C174.087 136.691 173.396 136 172.543 136C171.691 136 171 136.691 171 137.543C171 138.396 171.691 139.087 172.543 139.087Z" fill="white"/>
<path d="M195.21 139.087C196.062 139.087 196.753 138.396 196.753 137.543C196.753 136.691 196.062 136 195.21 136C194.358 136 193.667 136.691 193.667 137.543C193.667 138.396 194.358 139.087 195.21 139.087Z" fill="white"/>
<path d="M217.877 139.087C218.729 139.087 219.42 138.396 219.42 137.543C219.42 136.691 218.729 136 217.877 136C217.025 136 216.333 136.691 216.333 137.543C216.333 138.396 217.025 139.087 217.877 139.087Z" fill="white"/>
<path d="M240.543 139.087C241.396 139.087 242.087 138.396 242.087 137.543C242.087 136.691 241.396 136 240.543 136C239.691 136 239 136.691 239 137.543C239 138.396 239.691 139.087 240.543 139.087Z" fill="white"/>
<path d="M263.21 139.087C264.062 139.087 264.753 138.396 264.753 137.543C264.753 136.691 264.062 136 263.21 136C262.358 136 261.667 136.691 261.667 137.543C261.667 138.396 262.358 139.087 263.21 139.087Z" fill="white"/>
<path d="M285.877 139.087C286.729 139.087 287.42 138.396 287.42 137.543C287.42 136.691 286.729 136 285.877 136C285.025 136 284.333 136.691 284.333 137.543C284.333 138.396 285.025 139.087 285.877 139.087Z" fill="white"/>
<path d="M308.543 139.087C309.396 139.087 310.087 138.396 310.087 137.543C310.087 136.691 309.396 136 308.543 136C307.691 136 307 136.691 307 137.543C307 138.396 307.691 139.087 308.543 139.087Z" fill="white"/>
<path d="M331.21 139.087C332.062 139.087 332.753 138.396 332.753 137.543C332.753 136.691 332.062 136 331.21 136C330.358 136 329.667 136.691 329.667 137.543C329.667 138.396 330.358 139.087 331.21 139.087Z" fill="white"/>
<path d="M353.877 139.087C354.729 139.087 355.42 138.396 355.42 137.543C355.42 136.691 354.729 136 353.877 136C353.025 136 352.333 136.691 352.333 137.543C352.333 138.396 353.025 139.087 353.877 139.087Z" fill="white"/>
<path d="M376.543 139.087C377.396 139.087 378.087 138.396 378.087 137.543C378.087 136.691 377.396 136 376.543 136C375.691 136 375 136.691 375 137.543C375 138.396 375.691 139.087 376.543 139.087Z" fill="white"/>
<path d="M13.8764 161.754C14.7288 161.754 15.4199 161.063 15.4199 160.21C15.4199 159.358 14.7288 158.667 13.8764 158.667C13.024 158.667 12.333 159.358 12.333 160.21C12.333 161.063 13.024 161.754 13.8764 161.754Z" fill="white"/>
<path d="M36.5434 161.754C37.3958 161.754 38.0868 161.063 38.0868 160.21C38.0868 159.358 37.3958 158.667 36.5434 158.667C35.691 158.667 35 159.358 35 160.21C35 161.063 35.691 161.754 36.5434 161.754Z" fill="white"/>
<path d="M59.2099 161.754C60.0623 161.754 60.7533 161.063 60.7533 160.21C60.7533 159.358 60.0623 158.667 59.2099 158.667C58.3575 158.667 57.6665 159.358 57.6665 160.21C57.6665 161.063 58.3575 161.754 59.2099 161.754Z" fill="white"/>
<path d="M81.8769 161.754C82.7293 161.754 83.4203 161.063 83.4203 160.21C83.4203 159.358 82.7293 158.667 81.8769 158.667C81.0245 158.667 80.3335 159.358 80.3335 160.21C80.3335 161.063 81.0245 161.754 81.8769 161.754Z" fill="white"/>
<path d="M104.543 161.754C105.396 161.754 106.087 161.063 106.087 160.21C106.087 159.358 105.396 158.667 104.543 158.667C103.691 158.667 103 159.358 103 160.21C103 161.063 103.691 161.754 104.543 161.754Z" fill="white"/>
<path d="M127.21 161.754C128.062 161.754 128.753 161.063 128.753 160.21C128.753 159.358 128.062 158.667 127.21 158.667C126.358 158.667 125.667 159.358 125.667 160.21C125.667 161.063 126.358 161.754 127.21 161.754Z" fill="white"/>
<path d="M149.877 161.754C150.729 161.754 151.42 161.063 151.42 160.21C151.42 159.358 150.729 158.667 149.877 158.667C149.025 158.667 148.333 159.358 148.333 160.21C148.333 161.063 149.025 161.754 149.877 161.754Z" fill="white"/>
<path d="M172.543 161.754C173.396 161.754 174.087 161.063 174.087 160.21C174.087 159.358 173.396 158.667 172.543 158.667C171.691 158.667 171 159.358 171 160.21C171 161.063 171.691 161.754 172.543 161.754Z" fill="white"/>
<path d="M195.21 161.754C196.062 161.754 196.753 161.063 196.753 160.21C196.753 159.358 196.062 158.667 195.21 158.667C194.358 158.667 193.667 159.358 193.667 160.21C193.667 161.063 194.358 161.754 195.21 161.754Z" fill="white"/>
<path d="M217.877 161.754C218.729 161.754 219.42 161.063 219.42 160.21C219.42 159.358 218.729 158.667 217.877 158.667C217.025 158.667 216.333 159.358 216.333 160.21C216.333 161.063 217.025 161.754 217.877 161.754Z" fill="white"/>
<path d="M240.543 161.754C241.396 161.754 242.087 161.063 242.087 160.21C242.087 159.358 241.396 158.667 240.543 158.667C239.691 158.667 239 159.358 239 160.21C239 161.063 239.691 161.754 240.543 161.754Z" fill="white"/>
<path d="M263.21 161.754C264.062 161.754 264.753 161.063 264.753 160.21C264.753 159.358 264.062 158.667 263.21 158.667C262.358 158.667 261.667 159.358 261.667 160.21C261.667 161.063 262.358 161.754 263.21 161.754Z" fill="white"/>
<path d="M285.877 161.754C286.729 161.754 287.42 161.063 287.42 160.21C287.42 159.358 286.729 158.667 285.877 158.667C285.025 158.667 284.333 159.358 284.333 160.21C284.333 161.063 285.025 161.754 285.877 161.754Z" fill="white"/>
<path d="M308.543 161.754C309.396 161.754 310.087 161.063 310.087 160.21C310.087 159.358 309.396 158.667 308.543 158.667C307.691 158.667 307 159.358 307 160.21C307 161.063 307.691 161.754 308.543 161.754Z" fill="white"/>
<path d="M331.21 161.754C332.062 161.754 332.753 161.063 332.753 160.21C332.753 159.358 332.062 158.667 331.21 158.667C330.358 158.667 329.667 159.358 329.667 160.21C329.667 161.063 330.358 161.754 331.21 161.754Z" fill="white"/>
<path d="M353.877 161.754C354.729 161.754 355.42 161.063 355.42 160.21C355.42 159.358 354.729 158.667 353.877 158.667C353.025 158.667 352.333 159.358 352.333 160.21C352.333 161.063 353.025 161.754 353.877 161.754Z" fill="white"/>
<path d="M376.543 161.754C377.396 161.754 378.087 161.063 378.087 160.21C378.087 159.358 377.396 158.667 376.543 158.667C375.691 158.667 375 159.358 375 160.21C375 161.063 375.691 161.754 376.543 161.754Z" fill="white"/>
<path d="M13.8764 184.42C14.7288 184.42 15.4199 183.729 15.4199 182.877C15.4199 182.024 14.7288 181.333 13.8764 181.333C13.024 181.333 12.333 182.024 12.333 182.877C12.333 183.729 13.024 184.42 13.8764 184.42Z" fill="white"/>
<path d="M36.5434 184.42C37.3958 184.42 38.0868 183.729 38.0868 182.877C38.0868 182.024 37.3958 181.333 36.5434 181.333C35.691 181.333 35 182.024 35 182.877C35 183.729 35.691 184.42 36.5434 184.42Z" fill="white"/>
<path d="M59.2099 184.42C60.0623 184.42 60.7533 183.729 60.7533 182.877C60.7533 182.024 60.0623 181.333 59.2099 181.333C58.3575 181.333 57.6665 182.024 57.6665 182.877C57.6665 183.729 58.3575 184.42 59.2099 184.42Z" fill="white"/>
<path d="M81.8769 184.42C82.7293 184.42 83.4203 183.729 83.4203 182.877C83.4203 182.024 82.7293 181.333 81.8769 181.333C81.0245 181.333 80.3335 182.024 80.3335 182.877C80.3335 183.729 81.0245 184.42 81.8769 184.42Z" fill="white"/>
<path d="M104.543 184.42C105.396 184.42 106.087 183.729 106.087 182.877C106.087 182.024 105.396 181.333 104.543 181.333C103.691 181.333 103 182.024 103 182.877C103 183.729 103.691 184.42 104.543 184.42Z" fill="white"/>
<path d="M127.21 184.42C128.062 184.42 128.753 183.729 128.753 182.877C128.753 182.024 128.062 181.333 127.21 181.333C126.358 181.333 125.667 182.024 125.667 182.877C125.667 183.729 126.358 184.42 127.21 184.42Z" fill="white"/>
<path d="M149.877 184.42C150.729 184.42 151.42 183.729 151.42 182.877C151.42 182.024 150.729 181.333 149.877 181.333C149.025 181.333 148.333 182.024 148.333 182.877C148.333 183.729 149.025 184.42 149.877 184.42Z" fill="white"/>
<path d="M172.543 184.42C173.396 184.42 174.087 183.729 174.087 182.877C174.087 182.024 173.396 181.333 172.543 181.333C171.691 181.333 171 182.024 171 182.877C171 183.729 171.691 184.42 172.543 184.42Z" fill="white"/>
<path d="M195.21 184.42C196.062 184.42 196.753 183.729 196.753 182.877C196.753 182.024 196.062 181.333 195.21 181.333C194.358 181.333 193.667 182.024 193.667 182.877C193.667 183.729 194.358 184.42 195.21 184.42Z" fill="white"/>
<path d="M217.877 184.42C218.729 184.42 219.42 183.729 219.42 182.877C219.42 182.024 218.729 181.333 217.877 181.333C217.025 181.333 216.333 182.024 216.333 182.877C216.333 183.729 217.025 184.42 217.877 184.42Z" fill="white"/>
<path d="M240.543 184.42C241.396 184.42 242.087 183.729 242.087 182.877C242.087 182.024 241.396 181.333 240.543 181.333C239.691 181.333 239 182.024 239 182.877C239 183.729 239.691 184.42 240.543 184.42Z" fill="white"/>
<path d="M263.21 184.42C264.062 184.42 264.753 183.729 264.753 182.877C264.753 182.024 264.062 181.333 263.21 181.333C262.358 181.333 261.667 182.024 261.667 182.877C261.667 183.729 262.358 184.42 263.21 184.42Z" fill="white"/>
<path d="M285.877 184.42C286.729 184.42 287.42 183.729 287.42 182.877C287.42 182.024 286.729 181.333 285.877 181.333C285.025 181.333 284.333 182.024 284.333 182.877C284.333 183.729 285.025 184.42 285.877 184.42Z" fill="white"/>
<path d="M308.543 184.42C309.396 184.42 310.087 183.729 310.087 182.877C310.087 182.024 309.396 181.333 308.543 181.333C307.691 181.333 307 182.024 307 182.877C307 183.729 307.691 184.42 308.543 184.42Z" fill="white"/>
<path d="M331.21 184.42C332.062 184.42 332.753 183.729 332.753 182.877C332.753 182.024 332.062 181.333 331.21 181.333C330.358 181.333 329.667 182.024 329.667 182.877C329.667 183.729 330.358 184.42 331.21 184.42Z" fill="white"/>
<path d="M353.877 184.42C354.729 184.42 355.42 183.729 355.42 182.877C355.42 182.024 354.729 181.333 353.877 181.333C353.025 181.333 352.333 182.024 352.333 182.877C352.333 183.729 353.025 184.42 353.877 184.42Z" fill="white"/>
<path d="M376.543 184.42C377.396 184.42 378.087 183.729 378.087 182.877C378.087 182.024 377.396 181.333 376.543 181.333C375.691 181.333 375 182.024 375 182.877C375 183.729 375.691 184.42 376.543 184.42Z" fill="white"/>
<path d="M13.8764 207.087C14.7288 207.087 15.4199 206.396 15.4199 205.543C15.4199 204.691 14.7288 204 13.8764 204C13.024 204 12.333 204.691 12.333 205.543C12.333 206.396 13.024 207.087 13.8764 207.087Z" fill="white"/>
<path d="M36.5434 207.087C37.3958 207.087 38.0868 206.396 38.0868 205.543C38.0868 204.691 37.3958 204 36.5434 204C35.691 204 35 204.691 35 205.543C35 206.396 35.691 207.087 36.5434 207.087Z" fill="white"/>
<path d="M59.2099 207.087C60.0623 207.087 60.7533 206.396 60.7533 205.543C60.7533 204.691 60.0623 204 59.2099 204C58.3575 204 57.6665 204.691 57.6665 205.543C57.6665 206.396 58.3575 207.087 59.2099 207.087Z" fill="white"/>
<path d="M81.8769 207.087C82.7293 207.087 83.4203 206.396 83.4203 205.543C83.4203 204.691 82.7293 204 81.8769 204C81.0245 204 80.3335 204.691 80.3335 205.543C80.3335 206.396 81.0245 207.087 81.8769 207.087Z" fill="white"/>
<path d="M104.543 207.087C105.396 207.087 106.087 206.396 106.087 205.543C106.087 204.691 105.396 204 104.543 204C103.691 204 103 204.691 103 205.543C103 206.396 103.691 207.087 104.543 207.087Z" fill="white"/>
<path d="M127.21 207.087C128.062 207.087 128.753 206.396 128.753 205.543C128.753 204.691 128.062 204 127.21 204C126.358 204 125.667 204.691 125.667 205.543C125.667 206.396 126.358 207.087 127.21 207.087Z" fill="white"/>
<path d="M149.877 207.087C150.729 207.087 151.42 206.396 151.42 205.543C151.42 204.691 150.729 204 149.877 204C149.025 204 148.333 204.691 148.333 205.543C148.333 206.396 149.025 207.087 149.877 207.087Z" fill="white"/>
<path d="M172.543 207.087C173.396 207.087 174.087 206.396 174.087 205.543C174.087 204.691 173.396 204 172.543 204C171.691 204 171 204.691 171 205.543C171 206.396 171.691 207.087 172.543 207.087Z" fill="white"/>
<path d="M195.21 207.087C196.062 207.087 196.753 206.396 196.753 205.543C196.753 204.691 196.062 204 195.21 204C194.358 204 193.667 204.691 193.667 205.543C193.667 206.396 194.358 207.087 195.21 207.087Z" fill="white"/>
<path d="M217.877 207.087C218.729 207.087 219.42 206.396 219.42 205.543C219.42 204.691 218.729 204 217.877 204C217.025 204 216.333 204.691 216.333 205.543C216.333 206.396 217.025 207.087 217.877 207.087Z" fill="white"/>
<path d="M240.543 207.087C241.396 207.087 242.087 206.396 242.087 205.543C242.087 204.691 241.396 204 240.543 204C239.691 204 239 204.691 239 205.543C239 206.396 239.691 207.087 240.543 207.087Z" fill="white"/>
<path d="M263.21 207.087C264.062 207.087 264.753 206.396 264.753 205.543C264.753 204.691 264.062 204 263.21 204C262.358 204 261.667 204.691 261.667 205.543C261.667 206.396 262.358 207.087 263.21 207.087Z" fill="white"/>
<path d="M285.877 207.087C286.729 207.087 287.42 206.396 287.42 205.543C287.42 204.691 286.729 204 285.877 204C285.025 204 284.333 204.691 284.333 205.543C284.333 206.396 285.025 207.087 285.877 207.087Z" fill="white"/>
<path d="M308.543 207.087C309.396 207.087 310.087 206.396 310.087 205.543C310.087 204.691 309.396 204 308.543 204C307.691 204 307 204.691 307 205.543C307 206.396 307.691 207.087 308.543 207.087Z" fill="white"/>
<path d="M331.21 207.087C332.062 207.087 332.753 206.396 332.753 205.543C332.753 204.691 332.062 204 331.21 204C330.358 204 329.667 204.691 329.667 205.543C329.667 206.396 330.358 207.087 331.21 207.087Z" fill="white"/>
<path d="M353.877 207.087C354.729 207.087 355.42 206.396 355.42 205.543C355.42 204.691 354.729 204 353.877 204C353.025 204 352.333 204.691 352.333 205.543C352.333 206.396 353.025 207.087 353.877 207.087Z" fill="white"/>
<path d="M376.543 207.087C377.396 207.087 378.087 206.396 378.087 205.543C378.087 204.691 377.396 204 376.543 204C375.691 204 375 204.691 375 205.543C375 206.396 375.691 207.087 376.543 207.087Z" fill="white"/>
<path d="M13.8764 229.754C14.7288 229.754 15.4199 229.063 15.4199 228.21C15.4199 227.358 14.7288 226.667 13.8764 226.667C13.024 226.667 12.333 227.358 12.333 228.21C12.333 229.063 13.024 229.754 13.8764 229.754Z" fill="white"/>
<path d="M36.5434 229.754C37.3958 229.754 38.0868 229.063 38.0868 228.21C38.0868 227.358 37.3958 226.667 36.5434 226.667C35.691 226.667 35 227.358 35 228.21C35 229.063 35.691 229.754 36.5434 229.754Z" fill="white"/>
<path d="M59.2099 229.754C60.0623 229.754 60.7533 229.063 60.7533 228.21C60.7533 227.358 60.0623 226.667 59.2099 226.667C58.3575 226.667 57.6665 227.358 57.6665 228.21C57.6665 229.063 58.3575 229.754 59.2099 229.754Z" fill="white"/>
<path d="M81.8769 229.754C82.7293 229.754 83.4203 229.063 83.4203 228.21C83.4203 227.358 82.7293 226.667 81.8769 226.667C81.0245 226.667 80.3335 227.358 80.3335 228.21C80.3335 229.063 81.0245 229.754 81.8769 229.754Z" fill="white"/>
<path d="M104.543 229.754C105.396 229.754 106.087 229.063 106.087 228.21C106.087 227.358 105.396 226.667 104.543 226.667C103.691 226.667 103 227.358 103 228.21C103 229.063 103.691 229.754 104.543 229.754Z" fill="white"/>
<path d="M127.21 229.754C128.062 229.754 128.753 229.063 128.753 228.21C128.753 227.358 128.062 226.667 127.21 226.667C126.358 226.667 125.667 227.358 125.667 228.21C125.667 229.063 126.358 229.754 127.21 229.754Z" fill="white"/>
<path d="M149.877 229.754C150.729 229.754 151.42 229.063 151.42 228.21C151.42 227.358 150.729 226.667 149.877 226.667C149.025 226.667 148.333 227.358 148.333 228.21C148.333 229.063 149.025 229.754 149.877 229.754Z" fill="white"/>
<path d="M172.543 229.754C173.396 229.754 174.087 229.063 174.087 228.21C174.087 227.358 173.396 226.667 172.543 226.667C171.691 226.667 171 227.358 171 228.21C171 229.063 171.691 229.754 172.543 229.754Z" fill="white"/>
<path d="M195.21 229.754C196.062 229.754 196.753 229.063 196.753 228.21C196.753 227.358 196.062 226.667 195.21 226.667C194.358 226.667 193.667 227.358 193.667 228.21C193.667 229.063 194.358 229.754 195.21 229.754Z" fill="white"/>
<path d="M217.877 229.754C218.729 229.754 219.42 229.063 219.42 228.21C219.42 227.358 218.729 226.667 217.877 226.667C217.025 226.667 216.333 227.358 216.333 228.21C216.333 229.063 217.025 229.754 217.877 229.754Z" fill="white"/>
<path d="M240.543 229.754C241.396 229.754 242.087 229.063 242.087 228.21C242.087 227.358 241.396 226.667 240.543 226.667C239.691 226.667 239 227.358 239 228.21C239 229.063 239.691 229.754 240.543 229.754Z" fill="white"/>
<path d="M263.21 229.754C264.062 229.754 264.753 229.063 264.753 228.21C264.753 227.358 264.062 226.667 263.21 226.667C262.358 226.667 261.667 227.358 261.667 228.21C261.667 229.063 262.358 229.754 263.21 229.754Z" fill="white"/>
<path d="M285.877 229.754C286.729 229.754 287.42 229.063 287.42 228.21C287.42 227.358 286.729 226.667 285.877 226.667C285.025 226.667 284.333 227.358 284.333 228.21C284.333 229.063 285.025 229.754 285.877 229.754Z" fill="white"/>
<path d="M308.543 229.754C309.396 229.754 310.087 229.063 310.087 228.21C310.087 227.358 309.396 226.667 308.543 226.667C307.691 226.667 307 227.358 307 228.21C307 229.063 307.691 229.754 308.543 229.754Z" fill="white"/>
<path d="M331.21 229.754C332.062 229.754 332.753 229.063 332.753 228.21C332.753 227.358 332.062 226.667 331.21 226.667C330.358 226.667 329.667 227.358 329.667 228.21C329.667 229.063 330.358 229.754 331.21 229.754Z" fill="white"/>
<path d="M353.877 229.754C354.729 229.754 355.42 229.063 355.42 228.21C355.42 227.358 354.729 226.667 353.877 226.667C353.025 226.667 352.333 227.358 352.333 228.21C352.333 229.063 353.025 229.754 353.877 229.754Z" fill="white"/>
<path d="M376.543 229.754C377.396 229.754 378.087 229.063 378.087 228.21C378.087 227.358 377.396 226.667 376.543 226.667C375.691 226.667 375 227.358 375 228.21C375 229.063 375.691 229.754 376.543 229.754Z" fill="white"/>
<path d="M13.8764 252.42C14.7288 252.42 15.4199 251.729 15.4199 250.877C15.4199 250.024 14.7288 249.333 13.8764 249.333C13.024 249.333 12.333 250.024 12.333 250.877C12.333 251.729 13.024 252.42 13.8764 252.42Z" fill="white"/>
<path d="M36.5434 252.42C37.3958 252.42 38.0868 251.729 38.0868 250.877C38.0868 250.024 37.3958 249.333 36.5434 249.333C35.691 249.333 35 250.024 35 250.877C35 251.729 35.691 252.42 36.5434 252.42Z" fill="white"/>
<path d="M59.2099 252.42C60.0623 252.42 60.7533 251.729 60.7533 250.877C60.7533 250.024 60.0623 249.333 59.2099 249.333C58.3575 249.333 57.6665 250.024 57.6665 250.877C57.6665 251.729 58.3575 252.42 59.2099 252.42Z" fill="white"/>
<path d="M81.8769 252.42C82.7293 252.42 83.4203 251.729 83.4203 250.877C83.4203 250.024 82.7293 249.333 81.8769 249.333C81.0245 249.333 80.3335 250.024 80.3335 250.877C80.3335 251.729 81.0245 252.42 81.8769 252.42Z" fill="white"/>
<path d="M104.543 252.42C105.396 252.42 106.087 251.729 106.087 250.877C106.087 250.024 105.396 249.333 104.543 249.333C103.691 249.333 103 250.024 103 250.877C103 251.729 103.691 252.42 104.543 252.42Z" fill="white"/>
<path d="M127.21 252.42C128.062 252.42 128.753 251.729 128.753 250.877C128.753 250.024 128.062 249.333 127.21 249.333C126.358 249.333 125.667 250.024 125.667 250.877C125.667 251.729 126.358 252.42 127.21 252.42Z" fill="white"/>
<path d="M149.877 252.42C150.729 252.42 151.42 251.729 151.42 250.877C151.42 250.024 150.729 249.333 149.877 249.333C149.025 249.333 148.333 250.024 148.333 250.877C148.333 251.729 149.025 252.42 149.877 252.42Z" fill="white"/>
<path d="M172.543 252.42C173.396 252.42 174.087 251.729 174.087 250.877C174.087 250.024 173.396 249.333 172.543 249.333C171.691 249.333 171 250.024 171 250.877C171 251.729 171.691 252.42 172.543 252.42Z" fill="white"/>
<path d="M195.21 252.42C196.062 252.42 196.753 251.729 196.753 250.877C196.753 250.024 196.062 249.333 195.21 249.333C194.358 249.333 193.667 250.024 193.667 250.877C193.667 251.729 194.358 252.42 195.21 252.42Z" fill="white"/>
<path d="M217.877 252.42C218.729 252.42 219.42 251.729 219.42 250.877C219.42 250.024 218.729 249.333 217.877 249.333C217.025 249.333 216.333 250.024 216.333 250.877C216.333 251.729 217.025 252.42 217.877 252.42Z" fill="white"/>
<path d="M240.543 252.42C241.396 252.42 242.087 251.729 242.087 250.877C242.087 250.024 241.396 249.333 240.543 249.333C239.691 249.333 239 250.024 239 250.877C239 251.729 239.691 252.42 240.543 252.42Z" fill="white"/>
<path d="M263.21 252.42C264.062 252.42 264.753 251.729 264.753 250.877C264.753 250.024 264.062 249.333 263.21 249.333C262.358 249.333 261.667 250.024 261.667 250.877C261.667 251.729 262.358 252.42 263.21 252.42Z" fill="white"/>
<path d="M285.877 252.42C286.729 252.42 287.42 251.729 287.42 250.877C287.42 250.024 286.729 249.333 285.877 249.333C285.025 249.333 284.333 250.024 284.333 250.877C284.333 251.729 285.025 252.42 285.877 252.42Z" fill="white"/>
<path d="M308.543 252.42C309.396 252.42 310.087 251.729 310.087 250.877C310.087 250.024 309.396 249.333 308.543 249.333C307.691 249.333 307 250.024 307 250.877C307 251.729 307.691 252.42 308.543 252.42Z" fill="white"/>
<path d="M331.21 252.42C332.062 252.42 332.753 251.729 332.753 250.877C332.753 250.024 332.062 249.333 331.21 249.333C330.358 249.333 329.667 250.024 329.667 250.877C329.667 251.729 330.358 252.42 331.21 252.42Z" fill="white"/>
<path d="M353.877 252.42C354.729 252.42 355.42 251.729 355.42 250.877C355.42 250.024 354.729 249.333 353.877 249.333C353.025 249.333 352.333 250.024 352.333 250.877C352.333 251.729 353.025 252.42 353.877 252.42Z" fill="white"/>
<path d="M376.543 252.42C377.396 252.42 378.087 251.729 378.087 250.877C378.087 250.024 377.396 249.333 376.543 249.333C375.691 249.333 375 250.024 375 250.877C375 251.729 375.691 252.42 376.543 252.42Z" fill="white"/>
<path d="M13.8764 275.087C14.7288 275.087 15.4199 274.396 15.4199 273.543C15.4199 272.691 14.7288 272 13.8764 272C13.024 272 12.333 272.691 12.333 273.543C12.333 274.396 13.024 275.087 13.8764 275.087Z" fill="white"/>
<path d="M36.5434 275.087C37.3958 275.087 38.0868 274.396 38.0868 273.543C38.0868 272.691 37.3958 272 36.5434 272C35.691 272 35 272.691 35 273.543C35 274.396 35.691 275.087 36.5434 275.087Z" fill="white"/>
<path d="M59.2099 275.087C60.0623 275.087 60.7533 274.396 60.7533 273.543C60.7533 272.691 60.0623 272 59.2099 272C58.3575 272 57.6665 272.691 57.6665 273.543C57.6665 274.396 58.3575 275.087 59.2099 275.087Z" fill="white"/>
<path d="M81.8769 275.087C82.7293 275.087 83.4203 274.396 83.4203 273.543C83.4203 272.691 82.7293 272 81.8769 272C81.0245 272 80.3335 272.691 80.3335 273.543C80.3335 274.396 81.0245 275.087 81.8769 275.087Z" fill="white"/>
<path d="M104.543 275.087C105.396 275.087 106.087 274.396 106.087 273.543C106.087 272.691 105.396 272 104.543 272C103.691 272 103 272.691 103 273.543C103 274.396 103.691 275.087 104.543 275.087Z" fill="white"/>
<path d="M127.21 275.087C128.062 275.087 128.753 274.396 128.753 273.543C128.753 272.691 128.062 272 127.21 272C126.358 272 125.667 272.691 125.667 273.543C125.667 274.396 126.358 275.087 127.21 275.087Z" fill="white"/>
<path d="M149.877 275.087C150.729 275.087 151.42 274.396 151.42 273.543C151.42 272.691 150.729 272 149.877 272C149.025 272 148.333 272.691 148.333 273.543C148.333 274.396 149.025 275.087 149.877 275.087Z" fill="white"/>
<path d="M172.543 275.087C173.396 275.087 174.087 274.396 174.087 273.543C174.087 272.691 173.396 272 172.543 272C171.691 272 171 272.691 171 273.543C171 274.396 171.691 275.087 172.543 275.087Z" fill="white"/>
<path d="M195.21 275.087C196.062 275.087 196.753 274.396 196.753 273.543C196.753 272.691 196.062 272 195.21 272C194.358 272 193.667 272.691 193.667 273.543C193.667 274.396 194.358 275.087 195.21 275.087Z" fill="white"/>
<path d="M217.877 275.087C218.729 275.087 219.42 274.396 219.42 273.543C219.42 272.691 218.729 272 217.877 272C217.025 272 216.333 272.691 216.333 273.543C216.333 274.396 217.025 275.087 217.877 275.087Z" fill="white"/>
<path d="M240.543 275.087C241.396 275.087 242.087 274.396 242.087 273.543C242.087 272.691 241.396 272 240.543 272C239.691 272 239 272.691 239 273.543C239 274.396 239.691 275.087 240.543 275.087Z" fill="white"/>
<path d="M263.21 275.087C264.062 275.087 264.753 274.396 264.753 273.543C264.753 272.691 264.062 272 263.21 272C262.358 272 261.667 272.691 261.667 273.543C261.667 274.396 262.358 275.087 263.21 275.087Z" fill="white"/>
<path d="M285.877 275.087C286.729 275.087 287.42 274.396 287.42 273.543C287.42 272.691 286.729 272 285.877 272C285.025 272 284.333 272.691 284.333 273.543C284.333 274.396 285.025 275.087 285.877 275.087Z" fill="white"/>
<path d="M308.543 275.087C309.396 275.087 310.087 274.396 310.087 273.543C310.087 272.691 309.396 272 308.543 272C307.691 272 307 272.691 307 273.543C307 274.396 307.691 275.087 308.543 275.087Z" fill="white"/>
<path d="M331.21 275.087C332.062 275.087 332.753 274.396 332.753 273.543C332.753 272.691 332.062 272 331.21 272C330.358 272 329.667 272.691 329.667 273.543C329.667 274.396 330.358 275.087 331.21 275.087Z" fill="white"/>
<path d="M353.877 275.087C354.729 275.087 355.42 274.396 355.42 273.543C355.42 272.691 354.729 272 353.877 272C353.025 272 352.333 272.691 352.333 273.543C352.333 274.396 353.025 275.087 353.877 275.087Z" fill="white"/>
<path d="M376.543 275.087C377.396 275.087 378.087 274.396 378.087 273.543C378.087 272.691 377.396 272 376.543 272C375.691 272 375 272.691 375 273.543C375 274.396 375.691 275.087 376.543 275.087Z" fill="white"/>
<path d="M13.8764 297.754C14.7288 297.754 15.4199 297.063 15.4199 296.21C15.4199 295.358 14.7288 294.667 13.8764 294.667C13.024 294.667 12.333 295.358 12.333 296.21C12.333 297.063 13.024 297.754 13.8764 297.754Z" fill="white"/>
<path d="M36.5434 297.754C37.3958 297.754 38.0868 297.063 38.0868 296.21C38.0868 295.358 37.3958 294.667 36.5434 294.667C35.691 294.667 35 295.358 35 296.21C35 297.063 35.691 297.754 36.5434 297.754Z" fill="white"/>
<path d="M59.2099 297.754C60.0623 297.754 60.7533 297.063 60.7533 296.21C60.7533 295.358 60.0623 294.667 59.2099 294.667C58.3575 294.667 57.6665 295.358 57.6665 296.21C57.6665 297.063 58.3575 297.754 59.2099 297.754Z" fill="white"/>
<path d="M81.8769 297.754C82.7293 297.754 83.4203 297.063 83.4203 296.21C83.4203 295.358 82.7293 294.667 81.8769 294.667C81.0245 294.667 80.3335 295.358 80.3335 296.21C80.3335 297.063 81.0245 297.754 81.8769 297.754Z" fill="white"/>
<path d="M104.543 297.754C105.396 297.754 106.087 297.063 106.087 296.21C106.087 295.358 105.396 294.667 104.543 294.667C103.691 294.667 103 295.358 103 296.21C103 297.063 103.691 297.754 104.543 297.754Z" fill="white"/>
<path d="M127.21 297.754C128.062 297.754 128.753 297.063 128.753 296.21C128.753 295.358 128.062 294.667 127.21 294.667C126.358 294.667 125.667 295.358 125.667 296.21C125.667 297.063 126.358 297.754 127.21 297.754Z" fill="white"/>
<path d="M149.877 297.754C150.729 297.754 151.42 297.063 151.42 296.21C151.42 295.358 150.729 294.667 149.877 294.667C149.025 294.667 148.333 295.358 148.333 296.21C148.333 297.063 149.025 297.754 149.877 297.754Z" fill="white"/>
<path d="M172.543 297.754C173.396 297.754 174.087 297.063 174.087 296.21C174.087 295.358 173.396 294.667 172.543 294.667C171.691 294.667 171 295.358 171 296.21C171 297.063 171.691 297.754 172.543 297.754Z" fill="white"/>
<path d="M195.21 297.754C196.062 297.754 196.753 297.063 196.753 296.21C196.753 295.358 196.062 294.667 195.21 294.667C194.358 294.667 193.667 295.358 193.667 296.21C193.667 297.063 194.358 297.754 195.21 297.754Z" fill="white"/>
<path d="M217.877 297.754C218.729 297.754 219.42 297.063 219.42 296.21C219.42 295.358 218.729 294.667 217.877 294.667C217.025 294.667 216.333 295.358 216.333 296.21C216.333 297.063 217.025 297.754 217.877 297.754Z" fill="white"/>
<path d="M240.543 297.754C241.396 297.754 242.087 297.063 242.087 296.21C242.087 295.358 241.396 294.667 240.543 294.667C239.691 294.667 239 295.358 239 296.21C239 297.063 239.691 297.754 240.543 297.754Z" fill="white"/>
<path d="M263.21 297.754C264.062 297.754 264.753 297.063 264.753 296.21C264.753 295.358 264.062 294.667 263.21 294.667C262.358 294.667 261.667 295.358 261.667 296.21C261.667 297.063 262.358 297.754 263.21 297.754Z" fill="white"/>
<path d="M285.877 297.754C286.729 297.754 287.42 297.063 287.42 296.21C287.42 295.358 286.729 294.667 285.877 294.667C285.025 294.667 284.333 295.358 284.333 296.21C284.333 297.063 285.025 297.754 285.877 297.754Z" fill="white"/>
<path d="M308.543 297.754C309.396 297.754 310.087 297.063 310.087 296.21C310.087 295.358 309.396 294.667 308.543 294.667C307.691 294.667 307 295.358 307 296.21C307 297.063 307.691 297.754 308.543 297.754Z" fill="white"/>
<path d="M331.21 297.754C332.062 297.754 332.753 297.063 332.753 296.21C332.753 295.358 332.062 294.667 331.21 294.667C330.358 294.667 329.667 295.358 329.667 296.21C329.667 297.063 330.358 297.754 331.21 297.754Z" fill="white"/>
<path d="M353.877 297.754C354.729 297.754 355.42 297.063 355.42 296.21C355.42 295.358 354.729 294.667 353.877 294.667C353.025 294.667 352.333 295.358 352.333 296.21C352.333 297.063 353.025 297.754 353.877 297.754Z" fill="white"/>
<path d="M376.543 297.754C377.396 297.754 378.087 297.063 378.087 296.21C378.087 295.358 377.396 294.667 376.543 294.667C375.691 294.667 375 295.358 375 296.21C375 297.063 375.691 297.754 376.543 297.754Z" fill="white"/>
<path d="M13.8764 320.42C14.7288 320.42 15.4199 319.729 15.4199 318.877C15.4199 318.024 14.7288 317.333 13.8764 317.333C13.024 317.333 12.333 318.024 12.333 318.877C12.333 319.729 13.024 320.42 13.8764 320.42Z" fill="white"/>
<path d="M36.5434 320.42C37.3958 320.42 38.0868 319.729 38.0868 318.877C38.0868 318.024 37.3958 317.333 36.5434 317.333C35.691 317.333 35 318.024 35 318.877C35 319.729 35.691 320.42 36.5434 320.42Z" fill="white"/>
<path d="M59.2099 320.42C60.0623 320.42 60.7533 319.729 60.7533 318.877C60.7533 318.024 60.0623 317.333 59.2099 317.333C58.3575 317.333 57.6665 318.024 57.6665 318.877C57.6665 319.729 58.3575 320.42 59.2099 320.42Z" fill="white"/>
<path d="M81.8769 320.42C82.7293 320.42 83.4203 319.729 83.4203 318.877C83.4203 318.024 82.7293 317.333 81.8769 317.333C81.0245 317.333 80.3335 318.024 80.3335 318.877C80.3335 319.729 81.0245 320.42 81.8769 320.42Z" fill="white"/>
<path d="M104.543 320.42C105.396 320.42 106.087 319.729 106.087 318.877C106.087 318.024 105.396 317.333 104.543 317.333C103.691 317.333 103 318.024 103 318.877C103 319.729 103.691 320.42 104.543 320.42Z" fill="white"/>
<path d="M127.21 320.42C128.062 320.42 128.753 319.729 128.753 318.877C128.753 318.024 128.062 317.333 127.21 317.333C126.358 317.333 125.667 318.024 125.667 318.877C125.667 319.729 126.358 320.42 127.21 320.42Z" fill="white"/>
<path d="M149.877 320.42C150.729 320.42 151.42 319.729 151.42 318.877C151.42 318.024 150.729 317.333 149.877 317.333C149.025 317.333 148.333 318.024 148.333 318.877C148.333 319.729 149.025 320.42 149.877 320.42Z" fill="white"/>
<path d="M172.543 320.42C173.396 320.42 174.087 319.729 174.087 318.877C174.087 318.024 173.396 317.333 172.543 317.333C171.691 317.333 171 318.024 171 318.877C171 319.729 171.691 320.42 172.543 320.42Z" fill="white"/>
<path d="M195.21 320.42C196.062 320.42 196.753 319.729 196.753 318.877C196.753 318.024 196.062 317.333 195.21 317.333C194.358 317.333 193.667 318.024 193.667 318.877C193.667 319.729 194.358 320.42 195.21 320.42Z" fill="white"/>
<path d="M217.877 320.42C218.729 320.42 219.42 319.729 219.42 318.877C219.42 318.024 218.729 317.333 217.877 317.333C217.025 317.333 216.333 318.024 216.333 318.877C216.333 319.729 217.025 320.42 217.877 320.42Z" fill="white"/>
<path d="M240.543 320.42C241.396 320.42 242.087 319.729 242.087 318.877C242.087 318.024 241.396 317.333 240.543 317.333C239.691 317.333 239 318.024 239 318.877C239 319.729 239.691 320.42 240.543 320.42Z" fill="white"/>
<path d="M263.21 320.42C264.062 320.42 264.753 319.729 264.753 318.877C264.753 318.024 264.062 317.333 263.21 317.333C262.358 317.333 261.667 318.024 261.667 318.877C261.667 319.729 262.358 320.42 263.21 320.42Z" fill="white"/>
<path d="M285.877 320.42C286.729 320.42 287.42 319.729 287.42 318.877C287.42 318.024 286.729 317.333 285.877 317.333C285.025 317.333 284.333 318.024 284.333 318.877C284.333 319.729 285.025 320.42 285.877 320.42Z" fill="white"/>
<path d="M308.543 320.42C309.396 320.42 310.087 319.729 310.087 318.877C310.087 318.024 309.396 317.333 308.543 317.333C307.691 317.333 307 318.024 307 318.877C307 319.729 307.691 320.42 308.543 320.42Z" fill="white"/>
<path d="M331.21 320.42C332.062 320.42 332.753 319.729 332.753 318.877C332.753 318.024 332.062 317.333 331.21 317.333C330.358 317.333 329.667 318.024 329.667 318.877C329.667 319.729 330.358 320.42 331.21 320.42Z" fill="white"/>
<path d="M353.877 320.42C354.729 320.42 355.42 319.729 355.42 318.877C355.42 318.024 354.729 317.333 353.877 317.333C353.025 317.333 352.333 318.024 352.333 318.877C352.333 319.729 353.025 320.42 353.877 320.42Z" fill="white"/>
<path d="M376.543 320.42C377.396 320.42 378.087 319.729 378.087 318.877C378.087 318.024 377.396 317.333 376.543 317.333C375.691 317.333 375 318.024 375 318.877C375 319.729 375.691 320.42 376.543 320.42Z" fill="white"/>
<path d="M13.8764 343.087C14.7288 343.087 15.4199 342.396 15.4199 341.543C15.4199 340.691 14.7288 340 13.8764 340C13.024 340 12.333 340.691 12.333 341.543C12.333 342.396 13.024 343.087 13.8764 343.087Z" fill="white"/>
<path d="M36.5434 343.087C37.3958 343.087 38.0868 342.396 38.0868 341.543C38.0868 340.691 37.3958 340 36.5434 340C35.691 340 35 340.691 35 341.543C35 342.396 35.691 343.087 36.5434 343.087Z" fill="white"/>
<path d="M59.2099 343.087C60.0623 343.087 60.7533 342.396 60.7533 341.543C60.7533 340.691 60.0623 340 59.2099 340C58.3575 340 57.6665 340.691 57.6665 341.543C57.6665 342.396 58.3575 343.087 59.2099 343.087Z" fill="white"/>
<path d="M81.8769 343.087C82.7293 343.087 83.4203 342.396 83.4203 341.543C83.4203 340.691 82.7293 340 81.8769 340C81.0245 340 80.3335 340.691 80.3335 341.543C80.3335 342.396 81.0245 343.087 81.8769 343.087Z" fill="white"/>
<path d="M104.543 343.087C105.396 343.087 106.087 342.396 106.087 341.543C106.087 340.691 105.396 340 104.543 340C103.691 340 103 340.691 103 341.543C103 342.396 103.691 343.087 104.543 343.087Z" fill="white"/>
<path d="M127.21 343.087C128.062 343.087 128.753 342.396 128.753 341.543C128.753 340.691 128.062 340 127.21 340C126.358 340 125.667 340.691 125.667 341.543C125.667 342.396 126.358 343.087 127.21 343.087Z" fill="white"/>
<path d="M149.877 343.087C150.729 343.087 151.42 342.396 151.42 341.543C151.42 340.691 150.729 340 149.877 340C149.025 340 148.333 340.691 148.333 341.543C148.333 342.396 149.025 343.087 149.877 343.087Z" fill="white"/>
<path d="M172.543 343.087C173.396 343.087 174.087 342.396 174.087 341.543C174.087 340.691 173.396 340 172.543 340C171.691 340 171 340.691 171 341.543C171 342.396 171.691 343.087 172.543 343.087Z" fill="white"/>
<path d="M195.21 343.087C196.062 343.087 196.753 342.396 196.753 341.543C196.753 340.691 196.062 340 195.21 340C194.358 340 193.667 340.691 193.667 341.543C193.667 342.396 194.358 343.087 195.21 343.087Z" fill="white"/>
<path d="M217.877 343.087C218.729 343.087 219.42 342.396 219.42 341.543C219.42 340.691 218.729 340 217.877 340C217.025 340 216.333 340.691 216.333 341.543C216.333 342.396 217.025 343.087 217.877 343.087Z" fill="white"/>
<path d="M240.543 343.087C241.396 343.087 242.087 342.396 242.087 341.543C242.087 340.691 241.396 340 240.543 340C239.691 340 239 340.691 239 341.543C239 342.396 239.691 343.087 240.543 343.087Z" fill="white"/>
<path d="M263.21 343.087C264.062 343.087 264.753 342.396 264.753 341.543C264.753 340.691 264.062 340 263.21 340C262.358 340 261.667 340.691 261.667 341.543C261.667 342.396 262.358 343.087 263.21 343.087Z" fill="white"/>
<path d="M285.877 343.087C286.729 343.087 287.42 342.396 287.42 341.543C287.42 340.691 286.729 340 285.877 340C285.025 340 284.333 340.691 284.333 341.543C284.333 342.396 285.025 343.087 285.877 343.087Z" fill="white"/>
<path d="M308.543 343.087C309.396 343.087 310.087 342.396 310.087 341.543C310.087 340.691 309.396 340 308.543 340C307.691 340 307 340.691 307 341.543C307 342.396 307.691 343.087 308.543 343.087Z" fill="white"/>
<path d="M331.21 343.087C332.062 343.087 332.753 342.396 332.753 341.543C332.753 340.691 332.062 340 331.21 340C330.358 340 329.667 340.691 329.667 341.543C329.667 342.396 330.358 343.087 331.21 343.087Z" fill="white"/>
<path d="M353.877 343.087C354.729 343.087 355.42 342.396 355.42 341.543C355.42 340.691 354.729 340 353.877 340C353.025 340 352.333 340.691 352.333 341.543C352.333 342.396 353.025 343.087 353.877 343.087Z" fill="white"/>
<path d="M376.543 343.087C377.396 343.087 378.087 342.396 378.087 341.543C378.087 340.691 377.396 340 376.543 340C375.691 340 375 340.691 375 341.543C375 342.396 375.691 343.087 376.543 343.087Z" fill="white"/>
<path d="M13.8764 365.754C14.7288 365.754 15.4199 365.063 15.4199 364.21C15.4199 363.358 14.7288 362.667 13.8764 362.667C13.024 362.667 12.333 363.358 12.333 364.21C12.333 365.063 13.024 365.754 13.8764 365.754Z" fill="white"/>
<path d="M36.5434 365.754C37.3958 365.754 38.0868 365.063 38.0868 364.21C38.0868 363.358 37.3958 362.667 36.5434 362.667C35.691 362.667 35 363.358 35 364.21C35 365.063 35.691 365.754 36.5434 365.754Z" fill="white"/>
<path d="M59.2099 365.754C60.0623 365.754 60.7533 365.063 60.7533 364.21C60.7533 363.358 60.0623 362.667 59.2099 362.667C58.3575 362.667 57.6665 363.358 57.6665 364.21C57.6665 365.063 58.3575 365.754 59.2099 365.754Z" fill="white"/>
<path d="M81.8769 365.754C82.7293 365.754 83.4203 365.063 83.4203 364.21C83.4203 363.358 82.7293 362.667 81.8769 362.667C81.0245 362.667 80.3335 363.358 80.3335 364.21C80.3335 365.063 81.0245 365.754 81.8769 365.754Z" fill="white"/>
<path d="M104.543 365.754C105.396 365.754 106.087 365.063 106.087 364.21C106.087 363.358 105.396 362.667 104.543 362.667C103.691 362.667 103 363.358 103 364.21C103 365.063 103.691 365.754 104.543 365.754Z" fill="white"/>
<path d="M127.21 365.754C128.062 365.754 128.753 365.063 128.753 364.21C128.753 363.358 128.062 362.667 127.21 362.667C126.358 362.667 125.667 363.358 125.667 364.21C125.667 365.063 126.358 365.754 127.21 365.754Z" fill="white"/>
<path d="M149.877 365.754C150.729 365.754 151.42 365.063 151.42 364.21C151.42 363.358 150.729 362.667 149.877 362.667C149.025 362.667 148.333 363.358 148.333 364.21C148.333 365.063 149.025 365.754 149.877 365.754Z" fill="white"/>
<path d="M172.543 365.754C173.396 365.754 174.087 365.063 174.087 364.21C174.087 363.358 173.396 362.667 172.543 362.667C171.691 362.667 171 363.358 171 364.21C171 365.063 171.691 365.754 172.543 365.754Z" fill="white"/>
<path d="M195.21 365.754C196.062 365.754 196.753 365.063 196.753 364.21C196.753 363.358 196.062 362.667 195.21 362.667C194.358 362.667 193.667 363.358 193.667 364.21C193.667 365.063 194.358 365.754 195.21 365.754Z" fill="white"/>
<path d="M217.877 365.754C218.729 365.754 219.42 365.063 219.42 364.21C219.42 363.358 218.729 362.667 217.877 362.667C217.025 362.667 216.333 363.358 216.333 364.21C216.333 365.063 217.025 365.754 217.877 365.754Z" fill="white"/>
<path d="M240.543 365.754C241.396 365.754 242.087 365.063 242.087 364.21C242.087 363.358 241.396 362.667 240.543 362.667C239.691 362.667 239 363.358 239 364.21C239 365.063 239.691 365.754 240.543 365.754Z" fill="white"/>
<path d="M263.21 365.754C264.062 365.754 264.753 365.063 264.753 364.21C264.753 363.358 264.062 362.667 263.21 362.667C262.358 362.667 261.667 363.358 261.667 364.21C261.667 365.063 262.358 365.754 263.21 365.754Z" fill="white"/>
<path d="M285.877 365.754C286.729 365.754 287.42 365.063 287.42 364.21C287.42 363.358 286.729 362.667 285.877 362.667C285.025 362.667 284.333 363.358 284.333 364.21C284.333 365.063 285.025 365.754 285.877 365.754Z" fill="white"/>
<path d="M308.543 365.754C309.396 365.754 310.087 365.063 310.087 364.21C310.087 363.358 309.396 362.667 308.543 362.667C307.691 362.667 307 363.358 307 364.21C307 365.063 307.691 365.754 308.543 365.754Z" fill="white"/>
<path d="M331.21 365.754C332.062 365.754 332.753 365.063 332.753 364.21C332.753 363.358 332.062 362.667 331.21 362.667C330.358 362.667 329.667 363.358 329.667 364.21C329.667 365.063 330.358 365.754 331.21 365.754Z" fill="white"/>
<path d="M353.877 365.754C354.729 365.754 355.42 365.063 355.42 364.21C355.42 363.358 354.729 362.667 353.877 362.667C353.025 362.667 352.333 363.358 352.333 364.21C352.333 365.063 353.025 365.754 353.877 365.754Z" fill="white"/>
<path d="M376.543 365.754C377.396 365.754 378.087 365.063 378.087 364.21C378.087 363.358 377.396 362.667 376.543 362.667C375.691 362.667 375 363.358 375 364.21C375 365.063 375.691 365.754 376.543 365.754Z" fill="white"/>
<path d="M13.8764 388.42C14.7288 388.42 15.4199 387.729 15.4199 386.877C15.4199 386.024 14.7288 385.333 13.8764 385.333C13.024 385.333 12.333 386.024 12.333 386.877C12.333 387.729 13.024 388.42 13.8764 388.42Z" fill="white"/>
<path d="M36.5434 388.42C37.3958 388.42 38.0868 387.729 38.0868 386.877C38.0868 386.024 37.3958 385.333 36.5434 385.333C35.691 385.333 35 386.024 35 386.877C35 387.729 35.691 388.42 36.5434 388.42Z" fill="white"/>
<path d="M59.2099 388.42C60.0623 388.42 60.7533 387.729 60.7533 386.877C60.7533 386.024 60.0623 385.333 59.2099 385.333C58.3575 385.333 57.6665 386.024 57.6665 386.877C57.6665 387.729 58.3575 388.42 59.2099 388.42Z" fill="white"/>
<path d="M81.8769 388.42C82.7293 388.42 83.4203 387.729 83.4203 386.877C83.4203 386.024 82.7293 385.333 81.8769 385.333C81.0245 385.333 80.3335 386.024 80.3335 386.877C80.3335 387.729 81.0245 388.42 81.8769 388.42Z" fill="white"/>
<path d="M104.543 388.42C105.396 388.42 106.087 387.729 106.087 386.877C106.087 386.024 105.396 385.333 104.543 385.333C103.691 385.333 103 386.024 103 386.877C103 387.729 103.691 388.42 104.543 388.42Z" fill="white"/>
<path d="M127.21 388.42C128.062 388.42 128.753 387.729 128.753 386.877C128.753 386.024 128.062 385.333 127.21 385.333C126.358 385.333 125.667 386.024 125.667 386.877C125.667 387.729 126.358 388.42 127.21 388.42Z" fill="white"/>
<path d="M149.877 388.42C150.729 388.42 151.42 387.729 151.42 386.877C151.42 386.024 150.729 385.333 149.877 385.333C149.025 385.333 148.333 386.024 148.333 386.877C148.333 387.729 149.025 388.42 149.877 388.42Z" fill="white"/>
<path d="M172.543 388.42C173.396 388.42 174.087 387.729 174.087 386.877C174.087 386.024 173.396 385.333 172.543 385.333C171.691 385.333 171 386.024 171 386.877C171 387.729 171.691 388.42 172.543 388.42Z" fill="white"/>
<path d="M195.21 388.42C196.062 388.42 196.753 387.729 196.753 386.877C196.753 386.024 196.062 385.333 195.21 385.333C194.358 385.333 193.667 386.024 193.667 386.877C193.667 387.729 194.358 388.42 195.21 388.42Z" fill="white"/>
<path d="M217.877 388.42C218.729 388.42 219.42 387.729 219.42 386.877C219.42 386.024 218.729 385.333 217.877 385.333C217.025 385.333 216.333 386.024 216.333 386.877C216.333 387.729 217.025 388.42 217.877 388.42Z" fill="white"/>
<path d="M240.543 388.42C241.396 388.42 242.087 387.729 242.087 386.877C242.087 386.024 241.396 385.333 240.543 385.333C239.691 385.333 239 386.024 239 386.877C239 387.729 239.691 388.42 240.543 388.42Z" fill="white"/>
<path d="M263.21 388.42C264.062 388.42 264.753 387.729 264.753 386.877C264.753 386.024 264.062 385.333 263.21 385.333C262.358 385.333 261.667 386.024 261.667 386.877C261.667 387.729 262.358 388.42 263.21 388.42Z" fill="white"/>
<path d="M285.877 388.42C286.729 388.42 287.42 387.729 287.42 386.877C287.42 386.024 286.729 385.333 285.877 385.333C285.025 385.333 284.333 386.024 284.333 386.877C284.333 387.729 285.025 388.42 285.877 388.42Z" fill="white"/>
<path d="M308.543 388.42C309.396 388.42 310.087 387.729 310.087 386.877C310.087 386.024 309.396 385.333 308.543 385.333C307.691 385.333 307 386.024 307 386.877C307 387.729 307.691 388.42 308.543 388.42Z" fill="white"/>
<path d="M331.21 388.42C332.062 388.42 332.753 387.729 332.753 386.877C332.753 386.024 332.062 385.333 331.21 385.333C330.358 385.333 329.667 386.024 329.667 386.877C329.667 387.729 330.358 388.42 331.21 388.42Z" fill="white"/>
<path d="M353.877 388.42C354.729 388.42 355.42 387.729 355.42 386.877C355.42 386.024 354.729 385.333 353.877 385.333C353.025 385.333 352.333 386.024 352.333 386.877C352.333 387.729 353.025 388.42 353.877 388.42Z" fill="white"/>
<path d="M376.543 388.42C377.396 388.42 378.087 387.729 378.087 386.877C378.087 386.024 377.396 385.333 376.543 385.333C375.691 385.333 375 386.024 375 386.877C375 387.729 375.691 388.42 376.543 388.42Z" fill="white"/>
<path d="M13.8764 411.087C14.7288 411.087 15.4199 410.396 15.4199 409.543C15.4199 408.691 14.7288 408 13.8764 408C13.024 408 12.333 408.691 12.333 409.543C12.333 410.396 13.024 411.087 13.8764 411.087Z" fill="white"/>
<path d="M36.5434 411.087C37.3958 411.087 38.0868 410.396 38.0868 409.543C38.0868 408.691 37.3958 408 36.5434 408C35.691 408 35 408.691 35 409.543C35 410.396 35.691 411.087 36.5434 411.087Z" fill="white"/>
<path d="M59.2099 411.087C60.0623 411.087 60.7533 410.396 60.7533 409.543C60.7533 408.691 60.0623 408 59.2099 408C58.3575 408 57.6665 408.691 57.6665 409.543C57.6665 410.396 58.3575 411.087 59.2099 411.087Z" fill="white"/>
<path d="M81.8769 411.087C82.7293 411.087 83.4203 410.396 83.4203 409.543C83.4203 408.691 82.7293 408 81.8769 408C81.0245 408 80.3335 408.691 80.3335 409.543C80.3335 410.396 81.0245 411.087 81.8769 411.087Z" fill="white"/>
<path d="M104.543 411.087C105.396 411.087 106.087 410.396 106.087 409.543C106.087 408.691 105.396 408 104.543 408C103.691 408 103 408.691 103 409.543C103 410.396 103.691 411.087 104.543 411.087Z" fill="white"/>
<path d="M127.21 411.087C128.062 411.087 128.753 410.396 128.753 409.543C128.753 408.691 128.062 408 127.21 408C126.358 408 125.667 408.691 125.667 409.543C125.667 410.396 126.358 411.087 127.21 411.087Z" fill="white"/>
<path d="M149.877 411.087C150.729 411.087 151.42 410.396 151.42 409.543C151.42 408.691 150.729 408 149.877 408C149.025 408 148.333 408.691 148.333 409.543C148.333 410.396 149.025 411.087 149.877 411.087Z" fill="white"/>
<path d="M172.543 411.087C173.396 411.087 174.087 410.396 174.087 409.543C174.087 408.691 173.396 408 172.543 408C171.691 408 171 408.691 171 409.543C171 410.396 171.691 411.087 172.543 411.087Z" fill="white"/>
<path d="M195.21 411.087C196.062 411.087 196.753 410.396 196.753 409.543C196.753 408.691 196.062 408 195.21 408C194.358 408 193.667 408.691 193.667 409.543C193.667 410.396 194.358 411.087 195.21 411.087Z" fill="white"/>
<path d="M217.877 411.087C218.729 411.087 219.42 410.396 219.42 409.543C219.42 408.691 218.729 408 217.877 408C217.025 408 216.333 408.691 216.333 409.543C216.333 410.396 217.025 411.087 217.877 411.087Z" fill="white"/>
<path d="M240.543 411.087C241.396 411.087 242.087 410.396 242.087 409.543C242.087 408.691 241.396 408 240.543 408C239.691 408 239 408.691 239 409.543C239 410.396 239.691 411.087 240.543 411.087Z" fill="white"/>
<path d="M263.21 411.087C264.062 411.087 264.753 410.396 264.753 409.543C264.753 408.691 264.062 408 263.21 408C262.358 408 261.667 408.691 261.667 409.543C261.667 410.396 262.358 411.087 263.21 411.087Z" fill="white"/>
<path d="M285.877 411.087C286.729 411.087 287.42 410.396 287.42 409.543C287.42 408.691 286.729 408 285.877 408C285.025 408 284.333 408.691 284.333 409.543C284.333 410.396 285.025 411.087 285.877 411.087Z" fill="white"/>
<path d="M308.543 411.087C309.396 411.087 310.087 410.396 310.087 409.543C310.087 408.691 309.396 408 308.543 408C307.691 408 307 408.691 307 409.543C307 410.396 307.691 411.087 308.543 411.087Z" fill="white"/>
<path d="M331.21 411.087C332.062 411.087 332.753 410.396 332.753 409.543C332.753 408.691 332.062 408 331.21 408C330.358 408 329.667 408.691 329.667 409.543C329.667 410.396 330.358 411.087 331.21 411.087Z" fill="white"/>
<path d="M353.877 411.087C354.729 411.087 355.42 410.396 355.42 409.543C355.42 408.691 354.729 408 353.877 408C353.025 408 352.333 408.691 352.333 409.543C352.333 410.396 353.025 411.087 353.877 411.087Z" fill="white"/>
<path d="M376.543 411.087C377.396 411.087 378.087 410.396 378.087 409.543C378.087 408.691 377.396 408 376.543 408C375.691 408 375 408.691 375 409.543C375 410.396 375.691 411.087 376.543 411.087Z" fill="white"/>
</svg>
