<svg width="53" height="213" viewBox="0 0 53 213" fill="none" xmlns="http://www.w3.org/2000/svg">
<g clip-path="url(#clip0_58_1864)">
<path d="M21.1203 4.06481C22.2428 4.06481 23.1527 3.15487 23.1527 2.0324C23.1527 0.909939 22.2428 0 21.1203 0C19.9978 0 19.0879 0.909939 19.0879 2.0324C19.0879 3.15487 19.9978 4.06481 21.1203 4.06481Z" fill="white"/>
<path d="M50.9679 4.06481C52.0904 4.06481 53.0004 3.15487 53.0004 2.0324C53.0004 0.909939 52.0904 0 50.9679 0C49.8455 0 48.9355 0.909939 48.9355 2.0324C48.9355 3.15487 49.8455 4.06481 50.9679 4.06481Z" fill="white"/>
<path d="M21.1203 33.9125C22.2428 33.9125 23.1527 33.0025 23.1527 31.8801C23.1527 30.7576 22.2428 29.8477 21.1203 29.8477C19.9978 29.8477 19.0879 30.7576 19.0879 31.8801C19.0879 33.0025 19.9978 33.9125 21.1203 33.9125Z" fill="white"/>
<path d="M50.9679 33.9125C52.0904 33.9125 53.0004 33.0025 53.0004 31.8801C53.0004 30.7576 52.0904 29.8477 50.9679 29.8477C49.8455 29.8477 48.9355 30.7576 48.9355 31.8801C48.9355 33.0025 49.8455 33.9125 50.9679 33.9125Z" fill="white"/>
<path d="M21.1203 63.7606C22.2428 63.7606 23.1527 62.8507 23.1527 61.7282C23.1527 60.6057 22.2428 59.6958 21.1203 59.6958C19.9978 59.6958 19.0879 60.6057 19.0879 61.7282C19.0879 62.8507 19.9978 63.7606 21.1203 63.7606Z" fill="white"/>
<path d="M50.9679 63.7606C52.0904 63.7606 53.0004 62.8507 53.0004 61.7282C53.0004 60.6057 52.0904 59.6958 50.9679 59.6958C49.8455 59.6958 48.9355 60.6057 48.9355 61.7282C48.9355 62.8507 49.8455 63.7606 50.9679 63.7606Z" fill="white"/>
<path d="M21.1203 93.6083C22.2428 93.6083 23.1527 92.6983 23.1527 91.5759C23.1527 90.4534 22.2428 89.5435 21.1203 89.5435C19.9978 89.5435 19.0879 90.4534 19.0879 91.5759C19.0879 92.6983 19.9978 93.6083 21.1203 93.6083Z" fill="white"/>
<path d="M50.9679 93.6083C52.0904 93.6083 53.0004 92.6983 53.0004 91.5759C53.0004 90.4534 52.0904 89.5435 50.9679 89.5435C49.8455 89.5435 48.9355 90.4534 48.9355 91.5759C48.9355 92.6983 49.8455 93.6083 50.9679 93.6083Z" fill="white"/>
<path d="M21.1203 123.456C22.2428 123.456 23.1527 122.546 23.1527 121.424C23.1527 120.302 22.2428 119.392 21.1203 119.392C19.9978 119.392 19.0879 120.302 19.0879 121.424C19.0879 122.546 19.9978 123.456 21.1203 123.456Z" fill="white"/>
<path d="M50.9679 123.456C52.0904 123.456 53.0004 122.546 53.0004 121.424C53.0004 120.302 52.0904 119.392 50.9679 119.392C49.8455 119.392 48.9355 120.302 48.9355 121.424C48.9355 122.546 49.8455 123.456 50.9679 123.456Z" fill="white"/>
<path d="M21.1203 153.304C22.2428 153.304 23.1527 152.394 23.1527 151.272C23.1527 150.149 22.2428 149.239 21.1203 149.239C19.9978 149.239 19.0879 150.149 19.0879 151.272C19.0879 152.394 19.9978 153.304 21.1203 153.304Z" fill="white"/>
<path d="M50.9679 153.304C52.0904 153.304 53.0004 152.394 53.0004 151.272C53.0004 150.149 52.0904 149.239 50.9679 149.239C49.8455 149.239 48.9355 150.149 48.9355 151.272C48.9355 152.394 49.8455 153.304 50.9679 153.304Z" fill="white"/>
<path d="M21.1203 183.152C22.2428 183.152 23.1527 182.242 23.1527 181.12C23.1527 179.997 22.2428 179.087 21.1203 179.087C19.9978 179.087 19.0879 179.997 19.0879 181.12C19.0879 182.242 19.9978 183.152 21.1203 183.152Z" fill="white"/>
<path d="M50.9679 183.152C52.0904 183.152 53.0004 182.242 53.0004 181.12C53.0004 179.997 52.0904 179.087 50.9679 179.087C49.8455 179.087 48.9355 179.997 48.9355 181.12C48.9355 182.242 49.8455 183.152 50.9679 183.152Z" fill="white"/>
<path d="M21.1203 213C22.2428 213 23.1527 212.09 23.1527 210.967C23.1527 209.845 22.2428 208.935 21.1203 208.935C19.9978 208.935 19.0879 209.845 19.0879 210.967C19.0879 212.09 19.9978 213 21.1203 213Z" fill="white"/>
<path d="M50.9679 213C52.0904 213 53.0004 212.09 53.0004 210.967C53.0004 209.845 52.0904 208.935 50.9679 208.935C49.8455 208.935 48.9355 209.845 48.9355 210.967C48.9355 212.09 49.8455 213 50.9679 213Z" fill="white"/>
</g>
<defs>
<clipPath id="clip0_58_1864">
<rect width="213" height="213" fill="white" transform="translate(-160)"/>
</clipPath>
</defs>
</svg>
