<svg width="193" height="412" viewBox="0 0 193 412" fill="none" xmlns="http://www.w3.org/2000/svg">
<path d="M1.54342 3.08684C2.39583 3.08684 3.08684 2.39583 3.08684 1.54342C3.08684 0.691013 2.39583 0 1.54342 0C0.691013 0 0 0.691013 0 1.54342C0 2.39583 0.691013 3.08684 1.54342 3.08684Z" fill="white"/>
<path d="M24.2099 3.08684C25.0623 3.08684 25.7533 2.39583 25.7533 1.54342C25.7533 0.691013 25.0623 0 24.2099 0C23.3575 0 22.6665 0.691013 22.6665 1.54342C22.6665 2.39583 23.3575 3.08684 24.2099 3.08684Z" fill="white"/>
<path d="M46.8769 3.08684C47.7293 3.08684 48.4203 2.39583 48.4203 1.54342C48.4203 0.691013 47.7293 0 46.8769 0C46.0245 0 45.3335 0.691013 45.3335 1.54342C45.3335 2.39583 46.0245 3.08684 46.8769 3.08684Z" fill="white"/>
<path d="M69.5434 3.08684C70.3958 3.08684 71.0868 2.39583 71.0868 1.54342C71.0868 0.691013 70.3958 0 69.5434 0C68.691 0 68 0.691013 68 1.54342C68 2.39583 68.691 3.08684 69.5434 3.08684Z" fill="white"/>
<path d="M92.2099 3.08684C93.0623 3.08684 93.7533 2.39583 93.7533 1.54342C93.7533 0.691013 93.0623 0 92.2099 0C91.3575 0 90.6665 0.691013 90.6665 1.54342C90.6665 2.39583 91.3575 3.08684 92.2099 3.08684Z" fill="white"/>
<path d="M114.877 3.08684C115.729 3.08684 116.42 2.39583 116.42 1.54342C116.42 0.691013 115.729 0 114.877 0C114.025 0 113.333 0.691013 113.333 1.54342C113.333 2.39583 114.025 3.08684 114.877 3.08684Z" fill="white"/>
<path d="M137.543 3.08684C138.396 3.08684 139.087 2.39583 139.087 1.54342C139.087 0.691013 138.396 0 137.543 0C136.691 0 136 0.691013 136 1.54342C136 2.39583 136.691 3.08684 137.543 3.08684Z" fill="white"/>
<path d="M160.21 3.08684C161.062 3.08684 161.753 2.39583 161.753 1.54342C161.753 0.691013 161.062 0 160.21 0C159.358 0 158.667 0.691013 158.667 1.54342C158.667 2.39583 159.358 3.08684 160.21 3.08684Z" fill="white"/>
<path d="M182.877 3.08684C183.729 3.08684 184.42 2.39583 184.42 1.54342C184.42 0.691013 183.729 0 182.877 0C182.025 0 181.333 0.691013 181.333 1.54342C181.333 2.39583 182.025 3.08684 182.877 3.08684Z" fill="white"/>
<path d="M1.54342 25.7536C2.39583 25.7536 3.08684 25.0626 3.08684 24.2102C3.08684 23.3578 2.39583 22.6667 1.54342 22.6667C0.691013 22.6667 0 23.3578 0 24.2102C0 25.0626 0.691013 25.7536 1.54342 25.7536Z" fill="white"/>
<path d="M24.2099 25.7536C25.0623 25.7536 25.7533 25.0626 25.7533 24.2102C25.7533 23.3578 25.0623 22.6667 24.2099 22.6667C23.3575 22.6667 22.6665 23.3578 22.6665 24.2102C22.6665 25.0626 23.3575 25.7536 24.2099 25.7536Z" fill="white"/>
<path d="M46.8769 25.7536C47.7293 25.7536 48.4203 25.0626 48.4203 24.2102C48.4203 23.3578 47.7293 22.6667 46.8769 22.6667C46.0245 22.6667 45.3335 23.3578 45.3335 24.2102C45.3335 25.0626 46.0245 25.7536 46.8769 25.7536Z" fill="white"/>
<path d="M69.5434 25.7536C70.3958 25.7536 71.0868 25.0626 71.0868 24.2102C71.0868 23.3578 70.3958 22.6667 69.5434 22.6667C68.691 22.6667 68 23.3578 68 24.2102C68 25.0626 68.691 25.7536 69.5434 25.7536Z" fill="white"/>
<path d="M92.2099 25.7536C93.0623 25.7536 93.7533 25.0626 93.7533 24.2102C93.7533 23.3578 93.0623 22.6667 92.2099 22.6667C91.3575 22.6667 90.6665 23.3578 90.6665 24.2102C90.6665 25.0626 91.3575 25.7536 92.2099 25.7536Z" fill="white"/>
<path d="M114.877 25.7536C115.729 25.7536 116.42 25.0626 116.42 24.2102C116.42 23.3578 115.729 22.6667 114.877 22.6667C114.025 22.6667 113.333 23.3578 113.333 24.2102C113.333 25.0626 114.025 25.7536 114.877 25.7536Z" fill="white"/>
<path d="M137.543 25.7536C138.396 25.7536 139.087 25.0626 139.087 24.2102C139.087 23.3578 138.396 22.6667 137.543 22.6667C136.691 22.6667 136 23.3578 136 24.2102C136 25.0626 136.691 25.7536 137.543 25.7536Z" fill="white"/>
<path d="M160.21 25.7536C161.062 25.7536 161.753 25.0626 161.753 24.2102C161.753 23.3578 161.062 22.6667 160.21 22.6667C159.358 22.6667 158.667 23.3578 158.667 24.2102C158.667 25.0626 159.358 25.7536 160.21 25.7536Z" fill="white"/>
<path d="M182.877 25.7536C183.729 25.7536 184.42 25.0626 184.42 24.2102C184.42 23.3578 183.729 22.6667 182.877 22.6667C182.025 22.6667 181.333 23.3578 181.333 24.2102C181.333 25.0626 182.025 25.7536 182.877 25.7536Z" fill="white"/>
<path d="M1.54342 48.4201C2.39583 48.4201 3.08684 47.7291 3.08684 46.8767C3.08684 46.0243 2.39583 45.3333 1.54342 45.3333C0.691013 45.3333 0 46.0243 0 46.8767C0 47.7291 0.691013 48.4201 1.54342 48.4201Z" fill="white"/>
<path d="M24.2099 48.4201C25.0623 48.4201 25.7533 47.7291 25.7533 46.8767C25.7533 46.0243 25.0623 45.3333 24.2099 45.3333C23.3575 45.3333 22.6665 46.0243 22.6665 46.8767C22.6665 47.7291 23.3575 48.4201 24.2099 48.4201Z" fill="white"/>
<path d="M46.8769 48.4201C47.7293 48.4201 48.4203 47.7291 48.4203 46.8767C48.4203 46.0243 47.7293 45.3333 46.8769 45.3333C46.0245 45.3333 45.3335 46.0243 45.3335 46.8767C45.3335 47.7291 46.0245 48.4201 46.8769 48.4201Z" fill="white"/>
<path d="M69.5434 48.4201C70.3958 48.4201 71.0868 47.7291 71.0868 46.8767C71.0868 46.0243 70.3958 45.3333 69.5434 45.3333C68.691 45.3333 68 46.0243 68 46.8767C68 47.7291 68.691 48.4201 69.5434 48.4201Z" fill="white"/>
<path d="M92.2099 48.4201C93.0623 48.4201 93.7533 47.7291 93.7533 46.8767C93.7533 46.0243 93.0623 45.3333 92.2099 45.3333C91.3575 45.3333 90.6665 46.0243 90.6665 46.8767C90.6665 47.7291 91.3575 48.4201 92.2099 48.4201Z" fill="white"/>
<path d="M114.877 48.4201C115.729 48.4201 116.42 47.7291 116.42 46.8767C116.42 46.0243 115.729 45.3333 114.877 45.3333C114.025 45.3333 113.333 46.0243 113.333 46.8767C113.333 47.7291 114.025 48.4201 114.877 48.4201Z" fill="white"/>
<path d="M137.543 48.4201C138.396 48.4201 139.087 47.7291 139.087 46.8767C139.087 46.0243 138.396 45.3333 137.543 45.3333C136.691 45.3333 136 46.0243 136 46.8767C136 47.7291 136.691 48.4201 137.543 48.4201Z" fill="white"/>
<path d="M160.21 48.4201C161.062 48.4201 161.753 47.7291 161.753 46.8767C161.753 46.0243 161.062 45.3333 160.21 45.3333C159.358 45.3333 158.667 46.0243 158.667 46.8767C158.667 47.7291 159.358 48.4201 160.21 48.4201Z" fill="white"/>
<path d="M182.877 48.4201C183.729 48.4201 184.42 47.7291 184.42 46.8767C184.42 46.0243 183.729 45.3333 182.877 45.3333C182.025 45.3333 181.333 46.0243 181.333 46.8767C181.333 47.7291 182.025 48.4201 182.877 48.4201Z" fill="white"/>
<path d="M1.54342 71.0868C2.39583 71.0868 3.08684 70.3958 3.08684 69.5434C3.08684 68.691 2.39583 68 1.54342 68C0.691013 68 0 68.691 0 69.5434C0 70.3958 0.691013 71.0868 1.54342 71.0868Z" fill="white"/>
<path d="M24.2099 71.0868C25.0623 71.0868 25.7533 70.3958 25.7533 69.5434C25.7533 68.691 25.0623 68 24.2099 68C23.3575 68 22.6665 68.691 22.6665 69.5434C22.6665 70.3958 23.3575 71.0868 24.2099 71.0868Z" fill="white"/>
<path d="M46.8769 71.0868C47.7293 71.0868 48.4203 70.3958 48.4203 69.5434C48.4203 68.691 47.7293 68 46.8769 68C46.0245 68 45.3335 68.691 45.3335 69.5434C45.3335 70.3958 46.0245 71.0868 46.8769 71.0868Z" fill="white"/>
<path d="M69.5434 71.0868C70.3958 71.0868 71.0868 70.3958 71.0868 69.5434C71.0868 68.691 70.3958 68 69.5434 68C68.691 68 68 68.691 68 69.5434C68 70.3958 68.691 71.0868 69.5434 71.0868Z" fill="white"/>
<path d="M92.2099 71.0868C93.0623 71.0868 93.7533 70.3958 93.7533 69.5434C93.7533 68.691 93.0623 68 92.2099 68C91.3575 68 90.6665 68.691 90.6665 69.5434C90.6665 70.3958 91.3575 71.0868 92.2099 71.0868Z" fill="white"/>
<path d="M114.877 71.0868C115.729 71.0868 116.42 70.3958 116.42 69.5434C116.42 68.691 115.729 68 114.877 68C114.025 68 113.333 68.691 113.333 69.5434C113.333 70.3958 114.025 71.0868 114.877 71.0868Z" fill="white"/>
<path d="M137.543 71.0868C138.396 71.0868 139.087 70.3958 139.087 69.5434C139.087 68.691 138.396 68 137.543 68C136.691 68 136 68.691 136 69.5434C136 70.3958 136.691 71.0868 137.543 71.0868Z" fill="white"/>
<path d="M160.21 71.0868C161.062 71.0868 161.753 70.3958 161.753 69.5434C161.753 68.691 161.062 68 160.21 68C159.358 68 158.667 68.691 158.667 69.5434C158.667 70.3958 159.358 71.0868 160.21 71.0868Z" fill="white"/>
<path d="M182.877 71.0868C183.729 71.0868 184.42 70.3958 184.42 69.5434C184.42 68.691 183.729 68 182.877 68C182.025 68 181.333 68.691 181.333 69.5434C181.333 70.3958 182.025 71.0868 182.877 71.0868Z" fill="white"/>
<path d="M1.54342 93.7536C2.39583 93.7536 3.08684 93.0626 3.08684 92.2102C3.08684 91.3578 2.39583 90.6667 1.54342 90.6667C0.691013 90.6667 0 91.3578 0 92.2102C0 93.0626 0.691013 93.7536 1.54342 93.7536Z" fill="white"/>
<path d="M24.2099 93.7536C25.0623 93.7536 25.7533 93.0626 25.7533 92.2102C25.7533 91.3578 25.0623 90.6667 24.2099 90.6667C23.3575 90.6667 22.6665 91.3578 22.6665 92.2102C22.6665 93.0626 23.3575 93.7536 24.2099 93.7536Z" fill="white"/>
<path d="M46.8769 93.7536C47.7293 93.7536 48.4203 93.0626 48.4203 92.2102C48.4203 91.3578 47.7293 90.6667 46.8769 90.6667C46.0245 90.6667 45.3335 91.3578 45.3335 92.2102C45.3335 93.0626 46.0245 93.7536 46.8769 93.7536Z" fill="white"/>
<path d="M69.5434 93.7536C70.3958 93.7536 71.0868 93.0626 71.0868 92.2102C71.0868 91.3578 70.3958 90.6667 69.5434 90.6667C68.691 90.6667 68 91.3578 68 92.2102C68 93.0626 68.691 93.7536 69.5434 93.7536Z" fill="white"/>
<path d="M92.2099 93.7536C93.0623 93.7536 93.7533 93.0626 93.7533 92.2102C93.7533 91.3578 93.0623 90.6667 92.2099 90.6667C91.3575 90.6667 90.6665 91.3578 90.6665 92.2102C90.6665 93.0626 91.3575 93.7536 92.2099 93.7536Z" fill="white"/>
<path d="M114.877 93.7536C115.729 93.7536 116.42 93.0626 116.42 92.2102C116.42 91.3578 115.729 90.6667 114.877 90.6667C114.025 90.6667 113.333 91.3578 113.333 92.2102C113.333 93.0626 114.025 93.7536 114.877 93.7536Z" fill="white"/>
<path d="M137.543 93.7536C138.396 93.7536 139.087 93.0626 139.087 92.2102C139.087 91.3578 138.396 90.6667 137.543 90.6667C136.691 90.6667 136 91.3578 136 92.2102C136 93.0626 136.691 93.7536 137.543 93.7536Z" fill="white"/>
<path d="M160.21 93.7536C161.062 93.7536 161.753 93.0626 161.753 92.2102C161.753 91.3578 161.062 90.6667 160.21 90.6667C159.358 90.6667 158.667 91.3578 158.667 92.2102C158.667 93.0626 159.358 93.7536 160.21 93.7536Z" fill="white"/>
<path d="M182.877 93.7536C183.729 93.7536 184.42 93.0626 184.42 92.2102C184.42 91.3578 183.729 90.6667 182.877 90.6667C182.025 90.6667 181.333 91.3578 181.333 92.2102C181.333 93.0626 182.025 93.7536 182.877 93.7536Z" fill="white"/>
<path d="M1.54342 116.42C2.39583 116.42 3.08684 115.729 3.08684 114.877C3.08684 114.024 2.39583 113.333 1.54342 113.333C0.691013 113.333 0 114.024 0 114.877C0 115.729 0.691013 116.42 1.54342 116.42Z" fill="white"/>
<path d="M24.2099 116.42C25.0623 116.42 25.7533 115.729 25.7533 114.877C25.7533 114.024 25.0623 113.333 24.2099 113.333C23.3575 113.333 22.6665 114.024 22.6665 114.877C22.6665 115.729 23.3575 116.42 24.2099 116.42Z" fill="white"/>
<path d="M46.8769 116.42C47.7293 116.42 48.4203 115.729 48.4203 114.877C48.4203 114.024 47.7293 113.333 46.8769 113.333C46.0245 113.333 45.3335 114.024 45.3335 114.877C45.3335 115.729 46.0245 116.42 46.8769 116.42Z" fill="white"/>
<path d="M69.5434 116.42C70.3958 116.42 71.0868 115.729 71.0868 114.877C71.0868 114.024 70.3958 113.333 69.5434 113.333C68.691 113.333 68 114.024 68 114.877C68 115.729 68.691 116.42 69.5434 116.42Z" fill="white"/>
<path d="M92.2099 116.42C93.0623 116.42 93.7533 115.729 93.7533 114.877C93.7533 114.024 93.0623 113.333 92.2099 113.333C91.3575 113.333 90.6665 114.024 90.6665 114.877C90.6665 115.729 91.3575 116.42 92.2099 116.42Z" fill="white"/>
<path d="M114.877 116.42C115.729 116.42 116.42 115.729 116.42 114.877C116.42 114.024 115.729 113.333 114.877 113.333C114.025 113.333 113.333 114.024 113.333 114.877C113.333 115.729 114.025 116.42 114.877 116.42Z" fill="white"/>
<path d="M137.543 116.42C138.396 116.42 139.087 115.729 139.087 114.877C139.087 114.024 138.396 113.333 137.543 113.333C136.691 113.333 136 114.024 136 114.877C136 115.729 136.691 116.42 137.543 116.42Z" fill="white"/>
<path d="M160.21 116.42C161.062 116.42 161.753 115.729 161.753 114.877C161.753 114.024 161.062 113.333 160.21 113.333C159.358 113.333 158.667 114.024 158.667 114.877C158.667 115.729 159.358 116.42 160.21 116.42Z" fill="white"/>
<path d="M182.877 116.42C183.729 116.42 184.42 115.729 184.42 114.877C184.42 114.024 183.729 113.333 182.877 113.333C182.025 113.333 181.333 114.024 181.333 114.877C181.333 115.729 182.025 116.42 182.877 116.42Z" fill="white"/>
<path d="M1.54342 139.087C2.39583 139.087 3.08684 138.396 3.08684 137.543C3.08684 136.691 2.39583 136 1.54342 136C0.691013 136 0 136.691 0 137.543C0 138.396 0.691013 139.087 1.54342 139.087Z" fill="white"/>
<path d="M24.2099 139.087C25.0623 139.087 25.7533 138.396 25.7533 137.543C25.7533 136.691 25.0623 136 24.2099 136C23.3575 136 22.6665 136.691 22.6665 137.543C22.6665 138.396 23.3575 139.087 24.2099 139.087Z" fill="white"/>
<path d="M46.8769 139.087C47.7293 139.087 48.4203 138.396 48.4203 137.543C48.4203 136.691 47.7293 136 46.8769 136C46.0245 136 45.3335 136.691 45.3335 137.543C45.3335 138.396 46.0245 139.087 46.8769 139.087Z" fill="white"/>
<path d="M69.5434 139.087C70.3958 139.087 71.0868 138.396 71.0868 137.543C71.0868 136.691 70.3958 136 69.5434 136C68.691 136 68 136.691 68 137.543C68 138.396 68.691 139.087 69.5434 139.087Z" fill="white"/>
<path d="M92.2099 139.087C93.0623 139.087 93.7533 138.396 93.7533 137.543C93.7533 136.691 93.0623 136 92.2099 136C91.3575 136 90.6665 136.691 90.6665 137.543C90.6665 138.396 91.3575 139.087 92.2099 139.087Z" fill="white"/>
<path d="M114.877 139.087C115.729 139.087 116.42 138.396 116.42 137.543C116.42 136.691 115.729 136 114.877 136C114.025 136 113.333 136.691 113.333 137.543C113.333 138.396 114.025 139.087 114.877 139.087Z" fill="white"/>
<path d="M137.543 139.087C138.396 139.087 139.087 138.396 139.087 137.543C139.087 136.691 138.396 136 137.543 136C136.691 136 136 136.691 136 137.543C136 138.396 136.691 139.087 137.543 139.087Z" fill="white"/>
<path d="M160.21 139.087C161.062 139.087 161.753 138.396 161.753 137.543C161.753 136.691 161.062 136 160.21 136C159.358 136 158.667 136.691 158.667 137.543C158.667 138.396 159.358 139.087 160.21 139.087Z" fill="white"/>
<path d="M182.877 139.087C183.729 139.087 184.42 138.396 184.42 137.543C184.42 136.691 183.729 136 182.877 136C182.025 136 181.333 136.691 181.333 137.543C181.333 138.396 182.025 139.087 182.877 139.087Z" fill="white"/>
<path d="M1.54342 161.754C2.39583 161.754 3.08684 161.063 3.08684 160.21C3.08684 159.358 2.39583 158.667 1.54342 158.667C0.691013 158.667 0 159.358 0 160.21C0 161.063 0.691013 161.754 1.54342 161.754Z" fill="white"/>
<path d="M24.2099 161.754C25.0623 161.754 25.7533 161.063 25.7533 160.21C25.7533 159.358 25.0623 158.667 24.2099 158.667C23.3575 158.667 22.6665 159.358 22.6665 160.21C22.6665 161.063 23.3575 161.754 24.2099 161.754Z" fill="white"/>
<path d="M46.8769 161.754C47.7293 161.754 48.4203 161.063 48.4203 160.21C48.4203 159.358 47.7293 158.667 46.8769 158.667C46.0245 158.667 45.3335 159.358 45.3335 160.21C45.3335 161.063 46.0245 161.754 46.8769 161.754Z" fill="white"/>
<path d="M69.5434 161.754C70.3958 161.754 71.0868 161.063 71.0868 160.21C71.0868 159.358 70.3958 158.667 69.5434 158.667C68.691 158.667 68 159.358 68 160.21C68 161.063 68.691 161.754 69.5434 161.754Z" fill="white"/>
<path d="M92.2099 161.754C93.0623 161.754 93.7533 161.063 93.7533 160.21C93.7533 159.358 93.0623 158.667 92.2099 158.667C91.3575 158.667 90.6665 159.358 90.6665 160.21C90.6665 161.063 91.3575 161.754 92.2099 161.754Z" fill="white"/>
<path d="M114.877 161.754C115.729 161.754 116.42 161.063 116.42 160.21C116.42 159.358 115.729 158.667 114.877 158.667C114.025 158.667 113.333 159.358 113.333 160.21C113.333 161.063 114.025 161.754 114.877 161.754Z" fill="white"/>
<path d="M137.543 161.754C138.396 161.754 139.087 161.063 139.087 160.21C139.087 159.358 138.396 158.667 137.543 158.667C136.691 158.667 136 159.358 136 160.21C136 161.063 136.691 161.754 137.543 161.754Z" fill="white"/>
<path d="M160.21 161.754C161.062 161.754 161.753 161.063 161.753 160.21C161.753 159.358 161.062 158.667 160.21 158.667C159.358 158.667 158.667 159.358 158.667 160.21C158.667 161.063 159.358 161.754 160.21 161.754Z" fill="white"/>
<path d="M182.877 161.754C183.729 161.754 184.42 161.063 184.42 160.21C184.42 159.358 183.729 158.667 182.877 158.667C182.025 158.667 181.333 159.358 181.333 160.21C181.333 161.063 182.025 161.754 182.877 161.754Z" fill="white"/>
<path d="M1.54342 184.42C2.39583 184.42 3.08684 183.729 3.08684 182.877C3.08684 182.024 2.39583 181.333 1.54342 181.333C0.691013 181.333 0 182.024 0 182.877C0 183.729 0.691013 184.42 1.54342 184.42Z" fill="white"/>
<path d="M24.2099 184.42C25.0623 184.42 25.7533 183.729 25.7533 182.877C25.7533 182.024 25.0623 181.333 24.2099 181.333C23.3575 181.333 22.6665 182.024 22.6665 182.877C22.6665 183.729 23.3575 184.42 24.2099 184.42Z" fill="white"/>
<path d="M46.8769 184.42C47.7293 184.42 48.4203 183.729 48.4203 182.877C48.4203 182.024 47.7293 181.333 46.8769 181.333C46.0245 181.333 45.3335 182.024 45.3335 182.877C45.3335 183.729 46.0245 184.42 46.8769 184.42Z" fill="white"/>
<path d="M69.5434 184.42C70.3958 184.42 71.0868 183.729 71.0868 182.877C71.0868 182.024 70.3958 181.333 69.5434 181.333C68.691 181.333 68 182.024 68 182.877C68 183.729 68.691 184.42 69.5434 184.42Z" fill="white"/>
<path d="M92.2099 184.42C93.0623 184.42 93.7533 183.729 93.7533 182.877C93.7533 182.024 93.0623 181.333 92.2099 181.333C91.3575 181.333 90.6665 182.024 90.6665 182.877C90.6665 183.729 91.3575 184.42 92.2099 184.42Z" fill="white"/>
<path d="M114.877 184.42C115.729 184.42 116.42 183.729 116.42 182.877C116.42 182.024 115.729 181.333 114.877 181.333C114.025 181.333 113.333 182.024 113.333 182.877C113.333 183.729 114.025 184.42 114.877 184.42Z" fill="white"/>
<path d="M137.543 184.42C138.396 184.42 139.087 183.729 139.087 182.877C139.087 182.024 138.396 181.333 137.543 181.333C136.691 181.333 136 182.024 136 182.877C136 183.729 136.691 184.42 137.543 184.42Z" fill="white"/>
<path d="M160.21 184.42C161.062 184.42 161.753 183.729 161.753 182.877C161.753 182.024 161.062 181.333 160.21 181.333C159.358 181.333 158.667 182.024 158.667 182.877C158.667 183.729 159.358 184.42 160.21 184.42Z" fill="white"/>
<path d="M182.877 184.42C183.729 184.42 184.42 183.729 184.42 182.877C184.42 182.024 183.729 181.333 182.877 181.333C182.025 181.333 181.333 182.024 181.333 182.877C181.333 183.729 182.025 184.42 182.877 184.42Z" fill="white"/>
<path d="M1.54342 207.087C2.39583 207.087 3.08684 206.396 3.08684 205.543C3.08684 204.691 2.39583 204 1.54342 204C0.691013 204 0 204.691 0 205.543C0 206.396 0.691013 207.087 1.54342 207.087Z" fill="white"/>
<path d="M24.2099 207.087C25.0623 207.087 25.7533 206.396 25.7533 205.543C25.7533 204.691 25.0623 204 24.2099 204C23.3575 204 22.6665 204.691 22.6665 205.543C22.6665 206.396 23.3575 207.087 24.2099 207.087Z" fill="white"/>
<path d="M46.8769 207.087C47.7293 207.087 48.4203 206.396 48.4203 205.543C48.4203 204.691 47.7293 204 46.8769 204C46.0245 204 45.3335 204.691 45.3335 205.543C45.3335 206.396 46.0245 207.087 46.8769 207.087Z" fill="white"/>
<path d="M69.5434 207.087C70.3958 207.087 71.0868 206.396 71.0868 205.543C71.0868 204.691 70.3958 204 69.5434 204C68.691 204 68 204.691 68 205.543C68 206.396 68.691 207.087 69.5434 207.087Z" fill="white"/>
<path d="M92.2099 207.087C93.0623 207.087 93.7533 206.396 93.7533 205.543C93.7533 204.691 93.0623 204 92.2099 204C91.3575 204 90.6665 204.691 90.6665 205.543C90.6665 206.396 91.3575 207.087 92.2099 207.087Z" fill="white"/>
<path d="M114.877 207.087C115.729 207.087 116.42 206.396 116.42 205.543C116.42 204.691 115.729 204 114.877 204C114.025 204 113.333 204.691 113.333 205.543C113.333 206.396 114.025 207.087 114.877 207.087Z" fill="white"/>
<path d="M137.543 207.087C138.396 207.087 139.087 206.396 139.087 205.543C139.087 204.691 138.396 204 137.543 204C136.691 204 136 204.691 136 205.543C136 206.396 136.691 207.087 137.543 207.087Z" fill="white"/>
<path d="M160.21 207.087C161.062 207.087 161.753 206.396 161.753 205.543C161.753 204.691 161.062 204 160.21 204C159.358 204 158.667 204.691 158.667 205.543C158.667 206.396 159.358 207.087 160.21 207.087Z" fill="white"/>
<path d="M182.877 207.087C183.729 207.087 184.42 206.396 184.42 205.543C184.42 204.691 183.729 204 182.877 204C182.025 204 181.333 204.691 181.333 205.543C181.333 206.396 182.025 207.087 182.877 207.087Z" fill="white"/>
<path d="M1.54342 229.754C2.39583 229.754 3.08684 229.063 3.08684 228.21C3.08684 227.358 2.39583 226.667 1.54342 226.667C0.691013 226.667 0 227.358 0 228.21C0 229.063 0.691013 229.754 1.54342 229.754Z" fill="white"/>
<path d="M24.2099 229.754C25.0623 229.754 25.7533 229.063 25.7533 228.21C25.7533 227.358 25.0623 226.667 24.2099 226.667C23.3575 226.667 22.6665 227.358 22.6665 228.21C22.6665 229.063 23.3575 229.754 24.2099 229.754Z" fill="white"/>
<path d="M46.8769 229.754C47.7293 229.754 48.4203 229.063 48.4203 228.21C48.4203 227.358 47.7293 226.667 46.8769 226.667C46.0245 226.667 45.3335 227.358 45.3335 228.21C45.3335 229.063 46.0245 229.754 46.8769 229.754Z" fill="white"/>
<path d="M69.5434 229.754C70.3958 229.754 71.0868 229.063 71.0868 228.21C71.0868 227.358 70.3958 226.667 69.5434 226.667C68.691 226.667 68 227.358 68 228.21C68 229.063 68.691 229.754 69.5434 229.754Z" fill="white"/>
<path d="M92.2099 229.754C93.0623 229.754 93.7533 229.063 93.7533 228.21C93.7533 227.358 93.0623 226.667 92.2099 226.667C91.3575 226.667 90.6665 227.358 90.6665 228.21C90.6665 229.063 91.3575 229.754 92.2099 229.754Z" fill="white"/>
<path d="M114.877 229.754C115.729 229.754 116.42 229.063 116.42 228.21C116.42 227.358 115.729 226.667 114.877 226.667C114.025 226.667 113.333 227.358 113.333 228.21C113.333 229.063 114.025 229.754 114.877 229.754Z" fill="white"/>
<path d="M137.543 229.754C138.396 229.754 139.087 229.063 139.087 228.21C139.087 227.358 138.396 226.667 137.543 226.667C136.691 226.667 136 227.358 136 228.21C136 229.063 136.691 229.754 137.543 229.754Z" fill="white"/>
<path d="M160.21 229.754C161.062 229.754 161.753 229.063 161.753 228.21C161.753 227.358 161.062 226.667 160.21 226.667C159.358 226.667 158.667 227.358 158.667 228.21C158.667 229.063 159.358 229.754 160.21 229.754Z" fill="white"/>
<path d="M182.877 229.754C183.729 229.754 184.42 229.063 184.42 228.21C184.42 227.358 183.729 226.667 182.877 226.667C182.025 226.667 181.333 227.358 181.333 228.21C181.333 229.063 182.025 229.754 182.877 229.754Z" fill="white"/>
<path d="M1.54342 252.42C2.39583 252.42 3.08684 251.729 3.08684 250.877C3.08684 250.024 2.39583 249.333 1.54342 249.333C0.691013 249.333 0 250.024 0 250.877C0 251.729 0.691013 252.42 1.54342 252.42Z" fill="white"/>
<path d="M24.2099 252.42C25.0623 252.42 25.7533 251.729 25.7533 250.877C25.7533 250.024 25.0623 249.333 24.2099 249.333C23.3575 249.333 22.6665 250.024 22.6665 250.877C22.6665 251.729 23.3575 252.42 24.2099 252.42Z" fill="white"/>
<path d="M46.8769 252.42C47.7293 252.42 48.4203 251.729 48.4203 250.877C48.4203 250.024 47.7293 249.333 46.8769 249.333C46.0245 249.333 45.3335 250.024 45.3335 250.877C45.3335 251.729 46.0245 252.42 46.8769 252.42Z" fill="white"/>
<path d="M69.5434 252.42C70.3958 252.42 71.0868 251.729 71.0868 250.877C71.0868 250.024 70.3958 249.333 69.5434 249.333C68.691 249.333 68 250.024 68 250.877C68 251.729 68.691 252.42 69.5434 252.42Z" fill="white"/>
<path d="M92.2099 252.42C93.0623 252.42 93.7533 251.729 93.7533 250.877C93.7533 250.024 93.0623 249.333 92.2099 249.333C91.3575 249.333 90.6665 250.024 90.6665 250.877C90.6665 251.729 91.3575 252.42 92.2099 252.42Z" fill="white"/>
<path d="M114.877 252.42C115.729 252.42 116.42 251.729 116.42 250.877C116.42 250.024 115.729 249.333 114.877 249.333C114.025 249.333 113.333 250.024 113.333 250.877C113.333 251.729 114.025 252.42 114.877 252.42Z" fill="white"/>
<path d="M137.543 252.42C138.396 252.42 139.087 251.729 139.087 250.877C139.087 250.024 138.396 249.333 137.543 249.333C136.691 249.333 136 250.024 136 250.877C136 251.729 136.691 252.42 137.543 252.42Z" fill="white"/>
<path d="M160.21 252.42C161.062 252.42 161.753 251.729 161.753 250.877C161.753 250.024 161.062 249.333 160.21 249.333C159.358 249.333 158.667 250.024 158.667 250.877C158.667 251.729 159.358 252.42 160.21 252.42Z" fill="white"/>
<path d="M182.877 252.42C183.729 252.42 184.42 251.729 184.42 250.877C184.42 250.024 183.729 249.333 182.877 249.333C182.025 249.333 181.333 250.024 181.333 250.877C181.333 251.729 182.025 252.42 182.877 252.42Z" fill="white"/>
<path d="M1.54342 275.087C2.39583 275.087 3.08684 274.396 3.08684 273.543C3.08684 272.691 2.39583 272 1.54342 272C0.691013 272 0 272.691 0 273.543C0 274.396 0.691013 275.087 1.54342 275.087Z" fill="white"/>
<path d="M24.2099 275.087C25.0623 275.087 25.7533 274.396 25.7533 273.543C25.7533 272.691 25.0623 272 24.2099 272C23.3575 272 22.6665 272.691 22.6665 273.543C22.6665 274.396 23.3575 275.087 24.2099 275.087Z" fill="white"/>
<path d="M46.8769 275.087C47.7293 275.087 48.4203 274.396 48.4203 273.543C48.4203 272.691 47.7293 272 46.8769 272C46.0245 272 45.3335 272.691 45.3335 273.543C45.3335 274.396 46.0245 275.087 46.8769 275.087Z" fill="white"/>
<path d="M69.5434 275.087C70.3958 275.087 71.0868 274.396 71.0868 273.543C71.0868 272.691 70.3958 272 69.5434 272C68.691 272 68 272.691 68 273.543C68 274.396 68.691 275.087 69.5434 275.087Z" fill="white"/>
<path d="M92.2099 275.087C93.0623 275.087 93.7533 274.396 93.7533 273.543C93.7533 272.691 93.0623 272 92.2099 272C91.3575 272 90.6665 272.691 90.6665 273.543C90.6665 274.396 91.3575 275.087 92.2099 275.087Z" fill="white"/>
<path d="M114.877 275.087C115.729 275.087 116.42 274.396 116.42 273.543C116.42 272.691 115.729 272 114.877 272C114.025 272 113.333 272.691 113.333 273.543C113.333 274.396 114.025 275.087 114.877 275.087Z" fill="white"/>
<path d="M137.543 275.087C138.396 275.087 139.087 274.396 139.087 273.543C139.087 272.691 138.396 272 137.543 272C136.691 272 136 272.691 136 273.543C136 274.396 136.691 275.087 137.543 275.087Z" fill="white"/>
<path d="M160.21 275.087C161.062 275.087 161.753 274.396 161.753 273.543C161.753 272.691 161.062 272 160.21 272C159.358 272 158.667 272.691 158.667 273.543C158.667 274.396 159.358 275.087 160.21 275.087Z" fill="white"/>
<path d="M182.877 275.087C183.729 275.087 184.42 274.396 184.42 273.543C184.42 272.691 183.729 272 182.877 272C182.025 272 181.333 272.691 181.333 273.543C181.333 274.396 182.025 275.087 182.877 275.087Z" fill="white"/>
<path d="M1.54342 297.754C2.39583 297.754 3.08684 297.063 3.08684 296.21C3.08684 295.358 2.39583 294.667 1.54342 294.667C0.691013 294.667 0 295.358 0 296.21C0 297.063 0.691013 297.754 1.54342 297.754Z" fill="white"/>
<path d="M24.2099 297.754C25.0623 297.754 25.7533 297.063 25.7533 296.21C25.7533 295.358 25.0623 294.667 24.2099 294.667C23.3575 294.667 22.6665 295.358 22.6665 296.21C22.6665 297.063 23.3575 297.754 24.2099 297.754Z" fill="white"/>
<path d="M46.8769 297.754C47.7293 297.754 48.4203 297.063 48.4203 296.21C48.4203 295.358 47.7293 294.667 46.8769 294.667C46.0245 294.667 45.3335 295.358 45.3335 296.21C45.3335 297.063 46.0245 297.754 46.8769 297.754Z" fill="white"/>
<path d="M69.5434 297.754C70.3958 297.754 71.0868 297.063 71.0868 296.21C71.0868 295.358 70.3958 294.667 69.5434 294.667C68.691 294.667 68 295.358 68 296.21C68 297.063 68.691 297.754 69.5434 297.754Z" fill="white"/>
<path d="M92.2099 297.754C93.0623 297.754 93.7533 297.063 93.7533 296.21C93.7533 295.358 93.0623 294.667 92.2099 294.667C91.3575 294.667 90.6665 295.358 90.6665 296.21C90.6665 297.063 91.3575 297.754 92.2099 297.754Z" fill="white"/>
<path d="M114.877 297.754C115.729 297.754 116.42 297.063 116.42 296.21C116.42 295.358 115.729 294.667 114.877 294.667C114.025 294.667 113.333 295.358 113.333 296.21C113.333 297.063 114.025 297.754 114.877 297.754Z" fill="white"/>
<path d="M137.543 297.754C138.396 297.754 139.087 297.063 139.087 296.21C139.087 295.358 138.396 294.667 137.543 294.667C136.691 294.667 136 295.358 136 296.21C136 297.063 136.691 297.754 137.543 297.754Z" fill="white"/>
<path d="M160.21 297.754C161.062 297.754 161.753 297.063 161.753 296.21C161.753 295.358 161.062 294.667 160.21 294.667C159.358 294.667 158.667 295.358 158.667 296.21C158.667 297.063 159.358 297.754 160.21 297.754Z" fill="white"/>
<path d="M182.877 297.754C183.729 297.754 184.42 297.063 184.42 296.21C184.42 295.358 183.729 294.667 182.877 294.667C182.025 294.667 181.333 295.358 181.333 296.21C181.333 297.063 182.025 297.754 182.877 297.754Z" fill="white"/>
<path d="M1.54342 320.42C2.39583 320.42 3.08684 319.729 3.08684 318.877C3.08684 318.024 2.39583 317.333 1.54342 317.333C0.691013 317.333 0 318.024 0 318.877C0 319.729 0.691013 320.42 1.54342 320.42Z" fill="white"/>
<path d="M24.2099 320.42C25.0623 320.42 25.7533 319.729 25.7533 318.877C25.7533 318.024 25.0623 317.333 24.2099 317.333C23.3575 317.333 22.6665 318.024 22.6665 318.877C22.6665 319.729 23.3575 320.42 24.2099 320.42Z" fill="white"/>
<path d="M46.8769 320.42C47.7293 320.42 48.4203 319.729 48.4203 318.877C48.4203 318.024 47.7293 317.333 46.8769 317.333C46.0245 317.333 45.3335 318.024 45.3335 318.877C45.3335 319.729 46.0245 320.42 46.8769 320.42Z" fill="white"/>
<path d="M69.5434 320.42C70.3958 320.42 71.0868 319.729 71.0868 318.877C71.0868 318.024 70.3958 317.333 69.5434 317.333C68.691 317.333 68 318.024 68 318.877C68 319.729 68.691 320.42 69.5434 320.42Z" fill="white"/>
<path d="M92.2099 320.42C93.0623 320.42 93.7533 319.729 93.7533 318.877C93.7533 318.024 93.0623 317.333 92.2099 317.333C91.3575 317.333 90.6665 318.024 90.6665 318.877C90.6665 319.729 91.3575 320.42 92.2099 320.42Z" fill="white"/>
<path d="M114.877 320.42C115.729 320.42 116.42 319.729 116.42 318.877C116.42 318.024 115.729 317.333 114.877 317.333C114.025 317.333 113.333 318.024 113.333 318.877C113.333 319.729 114.025 320.42 114.877 320.42Z" fill="white"/>
<path d="M137.543 320.42C138.396 320.42 139.087 319.729 139.087 318.877C139.087 318.024 138.396 317.333 137.543 317.333C136.691 317.333 136 318.024 136 318.877C136 319.729 136.691 320.42 137.543 320.42Z" fill="white"/>
<path d="M160.21 320.42C161.062 320.42 161.753 319.729 161.753 318.877C161.753 318.024 161.062 317.333 160.21 317.333C159.358 317.333 158.667 318.024 158.667 318.877C158.667 319.729 159.358 320.42 160.21 320.42Z" fill="white"/>
<path d="M182.877 320.42C183.729 320.42 184.42 319.729 184.42 318.877C184.42 318.024 183.729 317.333 182.877 317.333C182.025 317.333 181.333 318.024 181.333 318.877C181.333 319.729 182.025 320.42 182.877 320.42Z" fill="white"/>
<path d="M1.54342 343.087C2.39583 343.087 3.08684 342.396 3.08684 341.543C3.08684 340.691 2.39583 340 1.54342 340C0.691013 340 0 340.691 0 341.543C0 342.396 0.691013 343.087 1.54342 343.087Z" fill="white"/>
<path d="M24.2099 343.087C25.0623 343.087 25.7533 342.396 25.7533 341.543C25.7533 340.691 25.0623 340 24.2099 340C23.3575 340 22.6665 340.691 22.6665 341.543C22.6665 342.396 23.3575 343.087 24.2099 343.087Z" fill="white"/>
<path d="M46.8769 343.087C47.7293 343.087 48.4203 342.396 48.4203 341.543C48.4203 340.691 47.7293 340 46.8769 340C46.0245 340 45.3335 340.691 45.3335 341.543C45.3335 342.396 46.0245 343.087 46.8769 343.087Z" fill="white"/>
<path d="M69.5434 343.087C70.3958 343.087 71.0868 342.396 71.0868 341.543C71.0868 340.691 70.3958 340 69.5434 340C68.691 340 68 340.691 68 341.543C68 342.396 68.691 343.087 69.5434 343.087Z" fill="white"/>
<path d="M92.2099 343.087C93.0623 343.087 93.7533 342.396 93.7533 341.543C93.7533 340.691 93.0623 340 92.2099 340C91.3575 340 90.6665 340.691 90.6665 341.543C90.6665 342.396 91.3575 343.087 92.2099 343.087Z" fill="white"/>
<path d="M114.877 343.087C115.729 343.087 116.42 342.396 116.42 341.543C116.42 340.691 115.729 340 114.877 340C114.025 340 113.333 340.691 113.333 341.543C113.333 342.396 114.025 343.087 114.877 343.087Z" fill="white"/>
<path d="M137.543 343.087C138.396 343.087 139.087 342.396 139.087 341.543C139.087 340.691 138.396 340 137.543 340C136.691 340 136 340.691 136 341.543C136 342.396 136.691 343.087 137.543 343.087Z" fill="white"/>
<path d="M160.21 343.087C161.062 343.087 161.753 342.396 161.753 341.543C161.753 340.691 161.062 340 160.21 340C159.358 340 158.667 340.691 158.667 341.543C158.667 342.396 159.358 343.087 160.21 343.087Z" fill="white"/>
<path d="M182.877 343.087C183.729 343.087 184.42 342.396 184.42 341.543C184.42 340.691 183.729 340 182.877 340C182.025 340 181.333 340.691 181.333 341.543C181.333 342.396 182.025 343.087 182.877 343.087Z" fill="white"/>
<path d="M1.54342 365.754C2.39583 365.754 3.08684 365.063 3.08684 364.21C3.08684 363.358 2.39583 362.667 1.54342 362.667C0.691013 362.667 0 363.358 0 364.21C0 365.063 0.691013 365.754 1.54342 365.754Z" fill="white"/>
<path d="M24.2099 365.754C25.0623 365.754 25.7533 365.063 25.7533 364.21C25.7533 363.358 25.0623 362.667 24.2099 362.667C23.3575 362.667 22.6665 363.358 22.6665 364.21C22.6665 365.063 23.3575 365.754 24.2099 365.754Z" fill="white"/>
<path d="M46.8769 365.754C47.7293 365.754 48.4203 365.063 48.4203 364.21C48.4203 363.358 47.7293 362.667 46.8769 362.667C46.0245 362.667 45.3335 363.358 45.3335 364.21C45.3335 365.063 46.0245 365.754 46.8769 365.754Z" fill="white"/>
<path d="M69.5434 365.754C70.3958 365.754 71.0868 365.063 71.0868 364.21C71.0868 363.358 70.3958 362.667 69.5434 362.667C68.691 362.667 68 363.358 68 364.21C68 365.063 68.691 365.754 69.5434 365.754Z" fill="white"/>
<path d="M92.2099 365.754C93.0623 365.754 93.7533 365.063 93.7533 364.21C93.7533 363.358 93.0623 362.667 92.2099 362.667C91.3575 362.667 90.6665 363.358 90.6665 364.21C90.6665 365.063 91.3575 365.754 92.2099 365.754Z" fill="white"/>
<path d="M114.877 365.754C115.729 365.754 116.42 365.063 116.42 364.21C116.42 363.358 115.729 362.667 114.877 362.667C114.025 362.667 113.333 363.358 113.333 364.21C113.333 365.063 114.025 365.754 114.877 365.754Z" fill="white"/>
<path d="M137.543 365.754C138.396 365.754 139.087 365.063 139.087 364.21C139.087 363.358 138.396 362.667 137.543 362.667C136.691 362.667 136 363.358 136 364.21C136 365.063 136.691 365.754 137.543 365.754Z" fill="white"/>
<path d="M160.21 365.754C161.062 365.754 161.753 365.063 161.753 364.21C161.753 363.358 161.062 362.667 160.21 362.667C159.358 362.667 158.667 363.358 158.667 364.21C158.667 365.063 159.358 365.754 160.21 365.754Z" fill="white"/>
<path d="M182.877 365.754C183.729 365.754 184.42 365.063 184.42 364.21C184.42 363.358 183.729 362.667 182.877 362.667C182.025 362.667 181.333 363.358 181.333 364.21C181.333 365.063 182.025 365.754 182.877 365.754Z" fill="white"/>
<path d="M1.54342 388.42C2.39583 388.42 3.08684 387.729 3.08684 386.877C3.08684 386.024 2.39583 385.333 1.54342 385.333C0.691013 385.333 0 386.024 0 386.877C0 387.729 0.691013 388.42 1.54342 388.42Z" fill="white"/>
<path d="M24.2099 388.42C25.0623 388.42 25.7533 387.729 25.7533 386.877C25.7533 386.024 25.0623 385.333 24.2099 385.333C23.3575 385.333 22.6665 386.024 22.6665 386.877C22.6665 387.729 23.3575 388.42 24.2099 388.42Z" fill="white"/>
<path d="M46.8769 388.42C47.7293 388.42 48.4203 387.729 48.4203 386.877C48.4203 386.024 47.7293 385.333 46.8769 385.333C46.0245 385.333 45.3335 386.024 45.3335 386.877C45.3335 387.729 46.0245 388.42 46.8769 388.42Z" fill="white"/>
<path d="M69.5434 388.42C70.3958 388.42 71.0868 387.729 71.0868 386.877C71.0868 386.024 70.3958 385.333 69.5434 385.333C68.691 385.333 68 386.024 68 386.877C68 387.729 68.691 388.42 69.5434 388.42Z" fill="white"/>
<path d="M92.2099 388.42C93.0623 388.42 93.7533 387.729 93.7533 386.877C93.7533 386.024 93.0623 385.333 92.2099 385.333C91.3575 385.333 90.6665 386.024 90.6665 386.877C90.6665 387.729 91.3575 388.42 92.2099 388.42Z" fill="white"/>
<path d="M114.877 388.42C115.729 388.42 116.42 387.729 116.42 386.877C116.42 386.024 115.729 385.333 114.877 385.333C114.025 385.333 113.333 386.024 113.333 386.877C113.333 387.729 114.025 388.42 114.877 388.42Z" fill="white"/>
<path d="M137.543 388.42C138.396 388.42 139.087 387.729 139.087 386.877C139.087 386.024 138.396 385.333 137.543 385.333C136.691 385.333 136 386.024 136 386.877C136 387.729 136.691 388.42 137.543 388.42Z" fill="white"/>
<path d="M160.21 388.42C161.062 388.42 161.753 387.729 161.753 386.877C161.753 386.024 161.062 385.333 160.21 385.333C159.358 385.333 158.667 386.024 158.667 386.877C158.667 387.729 159.358 388.42 160.21 388.42Z" fill="white"/>
<path d="M182.877 388.42C183.729 388.42 184.42 387.729 184.42 386.877C184.42 386.024 183.729 385.333 182.877 385.333C182.025 385.333 181.333 386.024 181.333 386.877C181.333 387.729 182.025 388.42 182.877 388.42Z" fill="white"/>
<path d="M1.54342 411.087C2.39583 411.087 3.08684 410.396 3.08684 409.543C3.08684 408.691 2.39583 408 1.54342 408C0.691013 408 0 408.691 0 409.543C0 410.396 0.691013 411.087 1.54342 411.087Z" fill="white"/>
<path d="M24.2099 411.087C25.0623 411.087 25.7533 410.396 25.7533 409.543C25.7533 408.691 25.0623 408 24.2099 408C23.3575 408 22.6665 408.691 22.6665 409.543C22.6665 410.396 23.3575 411.087 24.2099 411.087Z" fill="white"/>
<path d="M46.8769 411.087C47.7293 411.087 48.4203 410.396 48.4203 409.543C48.4203 408.691 47.7293 408 46.8769 408C46.0245 408 45.3335 408.691 45.3335 409.543C45.3335 410.396 46.0245 411.087 46.8769 411.087Z" fill="white"/>
<path d="M69.5434 411.087C70.3958 411.087 71.0868 410.396 71.0868 409.543C71.0868 408.691 70.3958 408 69.5434 408C68.691 408 68 408.691 68 409.543C68 410.396 68.691 411.087 69.5434 411.087Z" fill="white"/>
<path d="M92.2099 411.087C93.0623 411.087 93.7533 410.396 93.7533 409.543C93.7533 408.691 93.0623 408 92.2099 408C91.3575 408 90.6665 408.691 90.6665 409.543C90.6665 410.396 91.3575 411.087 92.2099 411.087Z" fill="white"/>
<path d="M114.877 411.087C115.729 411.087 116.42 410.396 116.42 409.543C116.42 408.691 115.729 408 114.877 408C114.025 408 113.333 408.691 113.333 409.543C113.333 410.396 114.025 411.087 114.877 411.087Z" fill="white"/>
<path d="M137.543 411.087C138.396 411.087 139.087 410.396 139.087 409.543C139.087 408.691 138.396 408 137.543 408C136.691 408 136 408.691 136 409.543C136 410.396 136.691 411.087 137.543 411.087Z" fill="white"/>
<path d="M160.21 411.087C161.062 411.087 161.753 410.396 161.753 409.543C161.753 408.691 161.062 408 160.21 408C159.358 408 158.667 408.691 158.667 409.543C158.667 410.396 159.358 411.087 160.21 411.087Z" fill="white"/>
<path d="M182.877 411.087C183.729 411.087 184.42 410.396 184.42 409.543C184.42 408.691 183.729 408 182.877 408C182.025 408 181.333 408.691 181.333 409.543C181.333 410.396 182.025 411.087 182.877 411.087Z" fill="white"/>
</svg>
