<svg
    width="213"
    height="213"
    viewBox="0 0 213 213"
    fill="none"
    xmlns="http://www.w3.org/2000/svg">
    <g clip-path="url(#clip0_58_1733)">
        <path
            d="M2.03241 4.06481C3.15488 4.06481 4.06482 3.15487 4.06482 2.0324C4.06482 0.909939 3.15488 0 2.03241 0C0.90994 0 0 0.909939 0 2.0324C0 3.15487 0.90994 4.06481 2.03241 4.06481Z"
            fill="black"/>
        <path
            d="M31.8801 4.06481C33.0025 4.06481 33.9125 3.15487 33.9125 2.0324C33.9125 0.909939 33.0025 0 31.8801 0C30.7576 0 29.8477 0.909939 29.8477 2.0324C29.8477 3.15487 30.7576 4.06481 31.8801 4.06481Z"
            fill="black"/>
        <path
            d="M61.7282 4.06481C62.8507 4.06481 63.7606 3.15487 63.7606 2.0324C63.7606 0.909939 62.8507 0 61.7282 0C60.6057 0 59.6958 0.909939 59.6958 2.0324C59.6958 3.15487 60.6057 4.06481 61.7282 4.06481Z"
            fill="black"/>
        <path
            d="M91.5759 4.06481C92.6983 4.06481 93.6083 3.15487 93.6083 2.0324C93.6083 0.909939 92.6983 0 91.5759 0C90.4534 0 89.5435 0.909939 89.5435 2.0324C89.5435 3.15487 90.4534 4.06481 91.5759 4.06481Z"
            fill="black"/>
        <path
            d="M121.424 4.06481C122.546 4.06481 123.456 3.15487 123.456 2.0324C123.456 0.909939 122.546 0 121.424 0C120.302 0 119.392 0.909939 119.392 2.0324C119.392 3.15487 120.302 4.06481 121.424 4.06481Z"
            fill="black"/>
        <path
            d="M151.273 4.06481C152.395 4.06481 153.305 3.15487 153.305 2.0324C153.305 0.909939 152.395 0 151.273 0C150.15 0 149.24 0.909939 149.24 2.0324C149.24 3.15487 150.15 4.06481 151.273 4.06481Z"
            fill="black"/>
        <path
            d="M181.12 4.06481C182.243 4.06481 183.153 3.15487 183.153 2.0324C183.153 0.909939 182.243 0 181.12 0C179.998 0 179.088 0.909939 179.088 2.0324C179.088 3.15487 179.998 4.06481 181.12 4.06481Z"
            fill="black"/>
        <path
            d="M210.967 4.06481C212.09 4.06481 213 3.15487 213 2.0324C213 0.909939 212.09 0 210.967 0C209.845 0 208.935 0.909939 208.935 2.0324C208.935 3.15487 209.845 4.06481 210.967 4.06481Z"
            fill="black"/>
        <path
            d="M2.03241 33.9125C3.15488 33.9125 4.06482 33.0025 4.06482 31.8801C4.06482 30.7576 3.15488 29.8477 2.03241 29.8477C0.90994 29.8477 0 30.7576 0 31.8801C0 33.0025 0.90994 33.9125 2.03241 33.9125Z"
            fill="black"/>
        <path
            d="M31.8801 33.9125C33.0025 33.9125 33.9125 33.0025 33.9125 31.8801C33.9125 30.7576 33.0025 29.8477 31.8801 29.8477C30.7576 29.8477 29.8477 30.7576 29.8477 31.8801C29.8477 33.0025 30.7576 33.9125 31.8801 33.9125Z"
            fill="black"/>
        <path
            d="M61.7282 33.9125C62.8507 33.9125 63.7606 33.0025 63.7606 31.8801C63.7606 30.7576 62.8507 29.8477 61.7282 29.8477C60.6057 29.8477 59.6958 30.7576 59.6958 31.8801C59.6958 33.0025 60.6057 33.9125 61.7282 33.9125Z"
            fill="black"/>
        <path
            d="M91.5759 33.9125C92.6983 33.9125 93.6083 33.0025 93.6083 31.8801C93.6083 30.7576 92.6983 29.8477 91.5759 29.8477C90.4534 29.8477 89.5435 30.7576 89.5435 31.8801C89.5435 33.0025 90.4534 33.9125 91.5759 33.9125Z"
            fill="black"/>
        <path
            d="M121.424 33.9125C122.546 33.9125 123.456 33.0025 123.456 31.8801C123.456 30.7576 122.546 29.8477 121.424 29.8477C120.302 29.8477 119.392 30.7576 119.392 31.8801C119.392 33.0025 120.302 33.9125 121.424 33.9125Z"
            fill="black"/>
        <path
            d="M151.273 33.9125C152.395 33.9125 153.305 33.0025 153.305 31.8801C153.305 30.7576 152.395 29.8477 151.273 29.8477C150.15 29.8477 149.24 30.7576 149.24 31.8801C149.24 33.0025 150.15 33.9125 151.273 33.9125Z"
            fill="black"/>
        <path
            d="M181.12 33.9125C182.243 33.9125 183.153 33.0025 183.153 31.8801C183.153 30.7576 182.243 29.8477 181.12 29.8477C179.998 29.8477 179.088 30.7576 179.088 31.8801C179.088 33.0025 179.998 33.9125 181.12 33.9125Z"
            fill="black"/>
        <path
            d="M210.967 33.9125C212.09 33.9125 213 33.0025 213 31.8801C213 30.7576 212.09 29.8477 210.967 29.8477C209.845 29.8477 208.935 30.7576 208.935 31.8801C208.935 33.0025 209.845 33.9125 210.967 33.9125Z"
            fill="black"/>
        <path
            d="M2.03241 63.7606C3.15488 63.7606 4.06482 62.8507 4.06482 61.7282C4.06482 60.6057 3.15488 59.6958 2.03241 59.6958C0.90994 59.6958 0 60.6057 0 61.7282C0 62.8507 0.90994 63.7606 2.03241 63.7606Z"
            fill="black"/>
        <path
            d="M31.8801 63.7606C33.0025 63.7606 33.9125 62.8507 33.9125 61.7282C33.9125 60.6057 33.0025 59.6958 31.8801 59.6958C30.7576 59.6958 29.8477 60.6057 29.8477 61.7282C29.8477 62.8507 30.7576 63.7606 31.8801 63.7606Z"
            fill="black"/>
        <path
            d="M61.7282 63.7606C62.8507 63.7606 63.7606 62.8507 63.7606 61.7282C63.7606 60.6057 62.8507 59.6958 61.7282 59.6958C60.6057 59.6958 59.6958 60.6057 59.6958 61.7282C59.6958 62.8507 60.6057 63.7606 61.7282 63.7606Z"
            fill="black"/>
        <path
            d="M91.5759 63.7606C92.6983 63.7606 93.6083 62.8507 93.6083 61.7282C93.6083 60.6057 92.6983 59.6958 91.5759 59.6958C90.4534 59.6958 89.5435 60.6057 89.5435 61.7282C89.5435 62.8507 90.4534 63.7606 91.5759 63.7606Z"
            fill="black"/>
        <path
            d="M121.424 63.7606C122.546 63.7606 123.456 62.8507 123.456 61.7282C123.456 60.6057 122.546 59.6958 121.424 59.6958C120.302 59.6958 119.392 60.6057 119.392 61.7282C119.392 62.8507 120.302 63.7606 121.424 63.7606Z"
            fill="black"/>
        <path
            d="M151.273 63.7606C152.395 63.7606 153.305 62.8507 153.305 61.7282C153.305 60.6057 152.395 59.6958 151.273 59.6958C150.15 59.6958 149.24 60.6057 149.24 61.7282C149.24 62.8507 150.15 63.7606 151.273 63.7606Z"
            fill="black"/>
        <path
            d="M181.12 63.7606C182.243 63.7606 183.153 62.8507 183.153 61.7282C183.153 60.6057 182.243 59.6958 181.12 59.6958C179.998 59.6958 179.088 60.6057 179.088 61.7282C179.088 62.8507 179.998 63.7606 181.12 63.7606Z"
            fill="black"/>
        <path
            d="M210.967 63.7606C212.09 63.7606 213 62.8507 213 61.7282C213 60.6057 212.09 59.6958 210.967 59.6958C209.845 59.6958 208.935 60.6057 208.935 61.7282C208.935 62.8507 209.845 63.7606 210.967 63.7606Z"
            fill="black"/>
        <path
            d="M2.03241 93.6083C3.15488 93.6083 4.06482 92.6983 4.06482 91.5759C4.06482 90.4534 3.15488 89.5435 2.03241 89.5435C0.90994 89.5435 0 90.4534 0 91.5759C0 92.6983 0.90994 93.6083 2.03241 93.6083Z"
            fill="black"/>
        <path
            d="M31.8801 93.6083C33.0025 93.6083 33.9125 92.6983 33.9125 91.5759C33.9125 90.4534 33.0025 89.5435 31.8801 89.5435C30.7576 89.5435 29.8477 90.4534 29.8477 91.5759C29.8477 92.6983 30.7576 93.6083 31.8801 93.6083Z"
            fill="black"/>
        <path
            d="M61.7282 93.6083C62.8507 93.6083 63.7606 92.6983 63.7606 91.5759C63.7606 90.4534 62.8507 89.5435 61.7282 89.5435C60.6057 89.5435 59.6958 90.4534 59.6958 91.5759C59.6958 92.6983 60.6057 93.6083 61.7282 93.6083Z"
            fill="black"/>
        <path
            d="M91.5759 93.6083C92.6983 93.6083 93.6083 92.6983 93.6083 91.5759C93.6083 90.4534 92.6983 89.5435 91.5759 89.5435C90.4534 89.5435 89.5435 90.4534 89.5435 91.5759C89.5435 92.6983 90.4534 93.6083 91.5759 93.6083Z"
            fill="black"/>
        <path
            d="M121.424 93.6083C122.546 93.6083 123.456 92.6983 123.456 91.5759C123.456 90.4534 122.546 89.5435 121.424 89.5435C120.302 89.5435 119.392 90.4534 119.392 91.5759C119.392 92.6983 120.302 93.6083 121.424 93.6083Z"
            fill="black"/>
        <path
            d="M151.273 93.6083C152.395 93.6083 153.305 92.6983 153.305 91.5759C153.305 90.4534 152.395 89.5435 151.273 89.5435C150.15 89.5435 149.24 90.4534 149.24 91.5759C149.24 92.6983 150.15 93.6083 151.273 93.6083Z"
            fill="black"/>
        <path
            d="M181.12 93.6083C182.243 93.6083 183.153 92.6983 183.153 91.5759C183.153 90.4534 182.243 89.5435 181.12 89.5435C179.998 89.5435 179.088 90.4534 179.088 91.5759C179.088 92.6983 179.998 93.6083 181.12 93.6083Z"
            fill="black"/>
        <path
            d="M210.967 93.6083C212.09 93.6083 213 92.6983 213 91.5759C213 90.4534 212.09 89.5435 210.967 89.5435C209.845 89.5435 208.935 90.4534 208.935 91.5759C208.935 92.6983 209.845 93.6083 210.967 93.6083Z"
            fill="black"/>
        <path
            d="M2.03241 123.456C3.15488 123.456 4.06482 122.546 4.06482 121.424C4.06482 120.302 3.15488 119.392 2.03241 119.392C0.90994 119.392 0 120.302 0 121.424C0 122.546 0.90994 123.456 2.03241 123.456Z"
            fill="black"/>
        <path
            d="M31.8801 123.456C33.0025 123.456 33.9125 122.546 33.9125 121.424C33.9125 120.302 33.0025 119.392 31.8801 119.392C30.7576 119.392 29.8477 120.302 29.8477 121.424C29.8477 122.546 30.7576 123.456 31.8801 123.456Z"
            fill="black"/>
        <path
            d="M61.7282 123.456C62.8507 123.456 63.7606 122.546 63.7606 121.424C63.7606 120.302 62.8507 119.392 61.7282 119.392C60.6057 119.392 59.6958 120.302 59.6958 121.424C59.6958 122.546 60.6057 123.456 61.7282 123.456Z"
            fill="black"/>
        <path
            d="M91.5759 123.456C92.6983 123.456 93.6083 122.546 93.6083 121.424C93.6083 120.302 92.6983 119.392 91.5759 119.392C90.4534 119.392 89.5435 120.302 89.5435 121.424C89.5435 122.546 90.4534 123.456 91.5759 123.456Z"
            fill="black"/>
        <path
            d="M121.424 123.456C122.546 123.456 123.456 122.546 123.456 121.424C123.456 120.302 122.546 119.392 121.424 119.392C120.302 119.392 119.392 120.302 119.392 121.424C119.392 122.546 120.302 123.456 121.424 123.456Z"
            fill="black"/>
        <path
            d="M151.273 123.456C152.395 123.456 153.305 122.546 153.305 121.424C153.305 120.302 152.395 119.392 151.273 119.392C150.15 119.392 149.24 120.302 149.24 121.424C149.24 122.546 150.15 123.456 151.273 123.456Z"
            fill="black"/>
        <path
            d="M181.12 123.456C182.243 123.456 183.153 122.546 183.153 121.424C183.153 120.302 182.243 119.392 181.12 119.392C179.998 119.392 179.088 120.302 179.088 121.424C179.088 122.546 179.998 123.456 181.12 123.456Z"
            fill="black"/>
        <path
            d="M210.967 123.456C212.09 123.456 213 122.546 213 121.424C213 120.302 212.09 119.392 210.967 119.392C209.845 119.392 208.935 120.302 208.935 121.424C208.935 122.546 209.845 123.456 210.967 123.456Z"
            fill="black"/>
        <path
            d="M2.03241 153.304C3.15488 153.304 4.06482 152.394 4.06482 151.272C4.06482 150.149 3.15488 149.239 2.03241 149.239C0.90994 149.239 0 150.149 0 151.272C0 152.394 0.90994 153.304 2.03241 153.304Z"
            fill="black"/>
        <path
            d="M31.8801 153.304C33.0025 153.304 33.9125 152.394 33.9125 151.272C33.9125 150.149 33.0025 149.239 31.8801 149.239C30.7576 149.239 29.8477 150.149 29.8477 151.272C29.8477 152.394 30.7576 153.304 31.8801 153.304Z"
            fill="black"/>
        <path
            d="M61.7282 153.304C62.8507 153.304 63.7606 152.394 63.7606 151.272C63.7606 150.149 62.8507 149.239 61.7282 149.239C60.6057 149.239 59.6958 150.149 59.6958 151.272C59.6958 152.394 60.6057 153.304 61.7282 153.304Z"
            fill="black"/>
        <path
            d="M91.5759 153.304C92.6983 153.304 93.6083 152.394 93.6083 151.272C93.6083 150.149 92.6983 149.239 91.5759 149.239C90.4534 149.239 89.5435 150.149 89.5435 151.272C89.5435 152.394 90.4534 153.304 91.5759 153.304Z"
            fill="black"/>
        <path
            d="M121.424 153.304C122.546 153.304 123.456 152.394 123.456 151.272C123.456 150.149 122.546 149.239 121.424 149.239C120.302 149.239 119.392 150.149 119.392 151.272C119.392 152.394 120.302 153.304 121.424 153.304Z"
            fill="black"/>
        <path
            d="M151.273 153.304C152.395 153.304 153.305 152.394 153.305 151.272C153.305 150.149 152.395 149.239 151.273 149.239C150.15 149.239 149.24 150.149 149.24 151.272C149.24 152.394 150.15 153.304 151.273 153.304Z"
            fill="black"/>
        <path
            d="M181.12 153.304C182.243 153.304 183.153 152.394 183.153 151.272C183.153 150.149 182.243 149.239 181.12 149.239C179.998 149.239 179.088 150.149 179.088 151.272C179.088 152.394 179.998 153.304 181.12 153.304Z"
            fill="black"/>
        <path
            d="M210.967 153.304C212.09 153.304 213 152.394 213 151.272C213 150.149 212.09 149.239 210.967 149.239C209.845 149.239 208.935 150.149 208.935 151.272C208.935 152.394 209.845 153.304 210.967 153.304Z"
            fill="black"/>
        <path
            d="M2.03241 183.152C3.15488 183.152 4.06482 182.242 4.06482 181.12C4.06482 179.997 3.15488 179.087 2.03241 179.087C0.90994 179.087 0 179.997 0 181.12C0 182.242 0.90994 183.152 2.03241 183.152Z"
            fill="black"/>
        <path
            d="M31.8801 183.152C33.0025 183.152 33.9125 182.242 33.9125 181.12C33.9125 179.997 33.0025 179.087 31.8801 179.087C30.7576 179.087 29.8477 179.997 29.8477 181.12C29.8477 182.242 30.7576 183.152 31.8801 183.152Z"
            fill="black"/>
        <path
            d="M61.7282 183.152C62.8507 183.152 63.7606 182.242 63.7606 181.12C63.7606 179.997 62.8507 179.087 61.7282 179.087C60.6057 179.087 59.6958 179.997 59.6958 181.12C59.6958 182.242 60.6057 183.152 61.7282 183.152Z"
            fill="black"/>
        <path
            d="M91.5759 183.152C92.6983 183.152 93.6083 182.242 93.6083 181.12C93.6083 179.997 92.6983 179.087 91.5759 179.087C90.4534 179.087 89.5435 179.997 89.5435 181.12C89.5435 182.242 90.4534 183.152 91.5759 183.152Z"
            fill="black"/>
        <path
            d="M121.424 183.152C122.546 183.152 123.456 182.242 123.456 181.12C123.456 179.997 122.546 179.087 121.424 179.087C120.302 179.087 119.392 179.997 119.392 181.12C119.392 182.242 120.302 183.152 121.424 183.152Z"
            fill="black"/>
        <path
            d="M151.273 183.152C152.395 183.152 153.305 182.242 153.305 181.12C153.305 179.997 152.395 179.087 151.273 179.087C150.15 179.087 149.24 179.997 149.24 181.12C149.24 182.242 150.15 183.152 151.273 183.152Z"
            fill="black"/>
        <path
            d="M181.12 183.152C182.243 183.152 183.153 182.242 183.153 181.12C183.153 179.997 182.243 179.087 181.12 179.087C179.998 179.087 179.088 179.997 179.088 181.12C179.088 182.242 179.998 183.152 181.12 183.152Z"
            fill="black"/>
        <path
            d="M210.967 183.152C212.09 183.152 213 182.242 213 181.12C213 179.997 212.09 179.087 210.967 179.087C209.845 179.087 208.935 179.997 208.935 181.12C208.935 182.242 209.845 183.152 210.967 183.152Z"
            fill="black"/>
        <path
            d="M2.03241 213C3.15488 213 4.06482 212.09 4.06482 210.967C4.06482 209.845 3.15488 208.935 2.03241 208.935C0.90994 208.935 0 209.845 0 210.967C0 212.09 0.90994 213 2.03241 213Z"
            fill="black"/>
        <path
            d="M31.8801 213C33.0025 213 33.9125 212.09 33.9125 210.967C33.9125 209.845 33.0025 208.935 31.8801 208.935C30.7576 208.935 29.8477 209.845 29.8477 210.967C29.8477 212.09 30.7576 213 31.8801 213Z"
            fill="black"/>
        <path
            d="M61.7282 213C62.8507 213 63.7606 212.09 63.7606 210.967C63.7606 209.845 62.8507 208.935 61.7282 208.935C60.6057 208.935 59.6958 209.845 59.6958 210.967C59.6958 212.09 60.6057 213 61.7282 213Z"
            fill="black"/>
        <path
            d="M91.5759 213C92.6983 213 93.6083 212.09 93.6083 210.967C93.6083 209.845 92.6983 208.935 91.5759 208.935C90.4534 208.935 89.5435 209.845 89.5435 210.967C89.5435 212.09 90.4534 213 91.5759 213Z"
            fill="black"/>
        <path
            d="M121.424 213C122.546 213 123.456 212.09 123.456 210.967C123.456 209.845 122.546 208.935 121.424 208.935C120.302 208.935 119.392 209.845 119.392 210.967C119.392 212.09 120.302 213 121.424 213Z"
            fill="black"/>
        <path
            d="M151.273 213C152.395 213 153.305 212.09 153.305 210.967C153.305 209.845 152.395 208.935 151.273 208.935C150.15 208.935 149.24 209.845 149.24 210.967C149.24 212.09 150.15 213 151.273 213Z"
            fill="black"/>
        <path
            d="M181.12 213C182.243 213 183.153 212.09 183.153 210.967C183.153 209.845 182.243 208.935 181.12 208.935C179.998 208.935 179.088 209.845 179.088 210.967C179.088 212.09 179.998 213 181.12 213Z"
            fill="black"/>
        <path
            d="M210.967 213C212.09 213 213 212.09 213 210.967C213 209.845 212.09 208.935 210.967 208.935C209.845 208.935 208.935 209.845 208.935 210.967C208.935 212.09 209.845 213 210.967 213Z"
            fill="black"/>
    </g>
    <defs>
        <clipPath id="clip0_58_1733">
            <rect width="213" height="213" fill="black"/>
        </clipPath>
    </defs>
</svg>