<svg width = "32" height = "32" viewBox = "0 0 32 32" fill = "none" xmlns = "http://www.w3.org/2000/svg" > 
<path
    d="M27.8301 12.1999C28.0183 12.031 28.163 11.8192 28.2518 11.5824C28.3406 11.3456 28.3709 11.0909 28.3401 10.8399C28.3161 10.6098 28.2244 10.3921 28.0767 10.2141C27.929 10.0361 27.7318 9.90587 27.5101 9.8399C27.3246 10.0087 27.1817 10.2191 27.0931 10.4537C27.0045 10.6883 26.9726 10.9406 27.0001 11.1899C27.0235 11.4213 27.1148 11.6406 27.2624 11.8203C27.4101 12 27.6076 12.1321 27.8301 12.1999ZM28.4401 12.7499C28.236 12.9205 28.0758 13.1376 27.9732 13.383C27.8705 13.6283 27.8283 13.8948 27.8501 14.1599C28.1091 14.1826 28.37 14.1502 28.6155 14.0648C28.8611 13.9794 29.0858 13.8429 29.2748 13.6643C29.4637 13.4857 29.6127 13.2691 29.7119 13.0288C29.811 12.7884 29.8581 12.5298 29.8501 12.2699C29.5939 12.2353 29.3333 12.2607 29.0886 12.344C28.8439 12.4273 28.6219 12.5662 28.4401 12.7499ZM27.6001 14.1099C27.6664 13.8708 27.6651 13.618 27.5962 13.3797C27.5274 13.1413 27.3937 12.9268 27.2101 12.7599C27.0264 12.5901 26.8001 12.4735 26.5552 12.4224C26.3104 12.3713 26.0563 12.3877 25.8201 12.4699C25.7502 12.7079 25.7488 12.9608 25.816 13.1995C25.8832 13.4383 26.0163 13.6533 26.2001 13.8199C26.3859 13.9896 26.6139 14.1061 26.8603 14.1571C27.1066 14.2081 27.3622 14.1918 27.6001 14.1099ZM27.6101 15.8399C27.3611 15.9969 27.152 16.2096 26.9993 16.4612C26.8466 16.7129 26.7544 16.9966 26.7301 17.2899C27.0051 17.3764 27.2968 17.3952 27.5806 17.3447C27.8644 17.2942 28.1318 17.1759 28.3601 16.9999C28.6075 16.8412 28.8154 16.628 28.9679 16.3767C29.1204 16.1255 29.2135 15.8426 29.2401 15.5499C28.9654 15.4608 28.6731 15.4407 28.3889 15.4913C28.1046 15.5418 27.8372 15.6616 27.6101 15.8399ZM26.4701 17.1799C26.5835 16.9318 26.6276 16.6576 26.5977 16.3864C26.5677 16.1153 26.4649 15.8573 26.3001 15.6399C26.1369 15.4238 25.9164 15.2578 25.6637 15.1606C25.4109 15.0634 25.136 15.0389 24.8701 15.0899C24.751 15.3345 24.7003 15.6067 24.7231 15.8778C24.746 16.1489 24.8417 16.4087 25.0001 16.6299C25.1665 16.853 25.3936 17.0235 25.6542 17.121C25.9149 17.2185 26.1981 17.239 26.4701 17.1799ZM26.7501 19.0499C26.4442 19.1684 26.1687 19.3539 25.9438 19.5927C25.7189 19.8315 25.5502 20.1175 25.4501 20.4299C25.7082 20.5959 26.0045 20.6931 26.3108 20.7124C26.6171 20.7316 26.9232 20.6723 27.2001 20.5399C27.506 20.4213 27.7814 20.2359 28.0064 19.9971C28.2313 19.7583 28.4 19.4723 28.5001 19.1599C28.2431 18.9911 27.9465 18.8923 27.6397 18.873C27.3328 18.8537 27.0262 18.9147 26.7501 19.0499ZM23.8901 19.2699C23.9877 19.5477 24.1649 19.7907 24.3996 19.9686C24.6343 20.1464 24.9162 20.2512 25.2101 20.2699C25.3945 20.0222 25.514 19.7324 25.5576 19.4267C25.6013 19.121 25.5678 18.8093 25.4601 18.5199C25.3607 18.2413 25.1817 17.9979 24.9453 17.8202C24.7088 17.6424 24.4254 17.538 24.1301 17.5199C23.9448 17.7672 23.8255 18.0577 23.7836 18.3638C23.7416 18.67 23.7782 18.9818 23.8901 19.2699ZM25.0001 21.7099C24.6815 21.7923 24.3853 21.9446 24.1328 22.1556C23.8803 22.3666 23.6778 22.6311 23.5401 22.9299C23.7654 23.133 24.0411 23.2718 24.3385 23.3316C24.6358 23.3914 24.9438 23.3701 25.2301 23.2699C25.5495 23.1899 25.8471 23.0398 26.1014 22.8305C26.3556 22.6212 26.5601 22.358 26.7001 22.0599C26.4732 21.8561 26.1962 21.7162 25.8975 21.6547C25.5987 21.5932 25.289 21.6123 25.0001 21.7099ZM22.7001 19.8199C22.4837 20.0463 22.3266 20.3228 22.2429 20.6246C22.1591 20.9265 22.1513 21.2443 22.2201 21.5499C22.2762 21.8361 22.4151 22.0994 22.6196 22.3074C22.824 22.5154 23.0849 22.6588 23.3701 22.7199C23.5796 22.4909 23.733 22.2163 23.8181 21.9177C23.9031 21.6192 23.9175 21.305 23.8601 20.9999C23.805 20.7106 23.6654 20.4441 23.4589 20.2341C23.2525 20.0241 22.9884 19.8799 22.7001 19.8199ZM22.5501 24.1699C22.1962 24.1413 21.8405 24.1951 21.5109 24.327C21.1813 24.4588 20.8866 24.6652 20.6501 24.9299C20.7665 25.2365 20.9711 25.5017 21.238 25.6921C21.505 25.8825 21.8223 25.9896 22.1501 25.9999C22.5048 26.0272 22.8609 25.9719 23.1906 25.8383C23.5203 25.7047 23.8145 25.4964 24.0501 25.2299C23.931 24.9259 23.7255 24.6636 23.4589 24.4752C23.1923 24.2868 22.8763 24.1806 22.5501 24.1699ZM19.8901 22.8899C19.8213 23.2102 19.846 23.5436 19.9613 23.8503C20.0765 24.157 20.2774 24.4241 20.5401 24.6199C20.8512 24.4399 21.1173 24.1916 21.3183 23.8936C21.5193 23.5956 21.6498 23.2558 21.7001 22.8999C21.7664 22.5796 21.7405 22.247 21.6255 21.9408C21.5104 21.6346 21.3109 21.3673 21.0501 21.1699C20.739 21.3499 20.4729 21.5982 20.2719 21.8962C20.0709 22.1942 19.9404 22.534 19.8901 22.8899ZM19.3501 25.8499C18.9618 25.8174 18.5714 25.8765 18.2101 26.0224C17.8489 26.1683 17.5269 26.3969 17.2701 26.6899C17.4021 27.0202 17.6275 27.305 17.9188 27.5092C18.21 27.7134 18.5545 27.8284 18.9101 27.8399C19.2995 27.8693 19.6905 27.8088 20.0529 27.6632C20.4152 27.5175 20.7393 27.2906 21.0001 26.9999C20.8674 26.668 20.6405 26.3823 20.3472 26.1779C20.054 25.9735 19.7074 25.8595 19.3501 25.8499ZM18.4201 24.4599C18.4971 24.1085 18.471 23.7423 18.3451 23.4053C18.2191 23.0683 17.9987 22.7747 17.7101 22.5599C17.3668 22.754 17.0728 23.0246 16.8508 23.3506C16.6288 23.6766 16.4849 24.0493 16.4301 24.4399C16.3585 24.7928 16.387 25.1587 16.5125 25.4962C16.6379 25.8338 16.8553 26.1295 17.1401 26.3499C17.4827 26.1524 17.7759 25.8797 17.9977 25.5522C18.2194 25.2248 18.3638 24.8513 18.4201 24.4599ZM5.00009 11.1899C5.02921 10.939 4.99815 10.6848 4.90946 10.4483C4.82077 10.2118 4.67701 9.99978 4.49009 9.8299C4.26838 9.89587 4.07121 10.0261 3.92348 10.2041C3.77575 10.3821 3.68409 10.5998 3.66009 10.8299C3.62928 11.0809 3.65956 11.3356 3.74836 11.5724C3.83715 11.8092 3.98183 12.021 4.17009 12.1899C4.39113 12.1228 4.58761 11.9922 4.73516 11.8145C4.8827 11.6367 4.97482 11.4195 5.00009 11.1899ZM4.15009 14.1599C4.17191 13.8948 4.1297 13.6283 4.02702 13.383C3.92435 13.1376 3.7642 12.9205 3.56009 12.7499C3.37399 12.5603 3.14536 12.4179 2.89318 12.3344C2.64099 12.2509 2.37253 12.2288 2.11009 12.2699C2.08827 12.535 2.13047 12.8015 2.23315 13.0468C2.33583 13.2922 2.49597 13.5093 2.70009 13.6799C2.8852 13.8708 3.11373 14.0142 3.3662 14.0978C3.61867 14.1814 3.8876 14.2027 4.15009 14.1599ZM4.40009 14.1099C4.63797 14.1918 4.89353 14.2081 5.1399 14.1571C5.38626 14.1061 5.61432 13.9896 5.80009 13.8199C5.98387 13.6533 6.117 13.4383 6.18421 13.1995C6.25142 12.9608 6.24999 12.7079 6.18009 12.4699C5.94386 12.3877 5.68976 12.3713 5.44493 12.4224C5.2001 12.4735 4.97375 12.5901 4.79009 12.7599C4.60647 12.9268 4.47279 13.1413 4.40393 13.3797C4.33507 13.618 4.33374 13.8708 4.40009 14.1099ZM5.27009 17.2899C5.24575 16.9966 5.15358 16.7129 5.00087 16.4612C4.84815 16.2096 4.63906 15.9969 4.39009 15.8399C4.16213 15.6633 3.89425 15.5453 3.61003 15.4965C3.3258 15.4477 3.03393 15.4695 2.76009 15.5599C2.78813 15.8509 2.88191 16.1317 3.03435 16.3812C3.1868 16.6306 3.39392 16.8422 3.64009 16.9999C3.86836 17.1759 4.13576 17.2942 4.41954 17.3447C4.70333 17.3952 4.99512 17.3764 5.27009 17.2899ZM5.53009 17.1799C5.80206 17.239 6.08528 17.2185 6.34594 17.121C6.6066 17.0235 6.83368 16.853 7.00009 16.6299C7.16489 16.4125 7.26772 16.1545 7.29766 15.8834C7.32759 15.6122 7.28351 15.338 7.17009 15.0899C6.90415 15.0389 6.62925 15.0634 6.37651 15.1606C6.12378 15.2578 5.90331 15.4238 5.74009 15.6399C5.56877 15.8534 5.45872 16.1095 5.42173 16.3808C5.38474 16.6521 5.4222 16.9283 5.53009 17.1799ZM6.55009 20.4299C6.44999 20.1175 6.2813 19.8315 6.05637 19.5927C5.83144 19.3539 5.55595 19.1684 5.25009 19.0499C4.97396 18.9147 4.66737 18.8537 4.36051 18.873C4.05365 18.8923 3.7571 18.9911 3.50009 19.1599C3.60018 19.4723 3.76887 19.7583 3.99381 19.9971C4.21874 20.2359 4.49422 20.4213 4.80009 20.5399C5.07697 20.6723 5.3831 20.7316 5.68939 20.7124C5.99568 20.6931 6.29196 20.5959 6.55009 20.4299ZM6.54009 18.4999C6.43241 18.7893 6.39887 19.101 6.44254 19.4067C6.48621 19.7124 6.60569 20.0022 6.79009 20.2499C7.08398 20.2312 7.36586 20.1264 7.60059 19.9486C7.83532 19.7707 8.01252 19.5277 8.11009 19.2499C8.22195 18.9618 8.25861 18.65 8.21662 18.3438C8.17463 18.0377 8.05538 17.7472 7.87009 17.4999C7.57482 17.518 7.29136 17.6224 7.05491 17.8002C6.81847 17.9779 6.63945 18.2213 6.54009 18.4999ZM7.00009 21.7099C6.71114 21.6123 6.40143 21.5932 6.1027 21.6547C5.80397 21.7162 5.52697 21.8561 5.30009 22.0599C5.44003 22.358 5.64454 22.6212 5.89879 22.8305C6.15304 23.0398 6.45066 23.1899 6.77009 23.2699C7.05637 23.3701 7.36434 23.3914 7.6617 23.3316C7.95905 23.2718 8.23483 23.133 8.46009 22.9299C8.32236 22.6311 8.11992 22.3666 7.86741 22.1556C7.6149 21.9446 7.31865 21.7923 7.00009 21.7099ZM8.63009 22.7199C8.91524 22.6588 9.17619 22.5154 9.38061 22.3074C9.58503 22.0994 9.72393 21.8361 9.78009 21.5499C9.84888 21.2443 9.84106 20.9265 9.75731 20.6246C9.67357 20.3228 9.5165 20.0463 9.30009 19.8199C9.01176 19.8799 8.74769 20.0241 8.54123 20.2341C8.33477 20.4441 8.19518 20.7106 8.14009 20.9999C8.08268 21.305 8.09707 21.6192 8.18212 21.9177C8.26717 22.2163 8.42054 22.4909 8.63009 22.7199ZM11.3501 24.9299C11.1135 24.6652 10.8189 24.4588 10.4893 24.327C10.1596 24.1951 9.80396 24.1413 9.45009 24.1699C9.13059 24.1756 8.81944 24.2729 8.55356 24.4501C8.28768 24.6274 8.07824 24.8772 7.95009 25.1699C8.18567 25.4364 8.47987 25.6447 8.80955 25.7783C9.13923 25.9119 9.49541 25.9672 9.85009 25.9399C10.171 25.9346 10.4835 25.8363 10.7497 25.6571C11.0159 25.4778 11.2245 25.2252 11.3501 24.9299ZM11.4601 24.6199C11.7228 24.4241 11.9237 24.157 12.0389 23.8503C12.1542 23.5436 12.1789 23.2102 12.1101 22.8899C12.0654 22.5385 11.9425 22.2015 11.7504 21.9039C11.5583 21.6062 11.3019 21.3554 11.0001 21.1699C10.7393 21.3673 10.5398 21.6346 10.4247 21.9408C10.3097 22.247 10.2838 22.5796 10.3501 22.8999C10.3948 23.2513 10.5177 23.5883 10.7098 23.8859C10.9019 24.1836 11.1583 24.4344 11.4601 24.6199ZM11.0001 26.9999C11.2599 27.2924 11.5835 27.5212 11.946 27.6686C12.3084 27.816 12.6999 27.878 13.0901 27.8499C13.4456 27.8384 13.7901 27.7234 14.0814 27.5192C14.3727 27.315 14.5981 27.0302 14.7301 26.6999C14.4733 26.4069 14.1513 26.1783 13.79 26.0324C13.4288 25.8865 13.0383 25.8274 12.6501 25.8599C12.2939 25.8687 11.9481 25.9812 11.655 26.1837C11.3619 26.3862 11.1343 26.6699 11.0001 26.9999ZM14.2901 22.5599C14.0015 22.7747 13.781 23.0683 13.6551 23.4053C13.5292 23.7423 13.5031 24.1085 13.5801 24.4599C13.6363 24.8513 13.7808 25.2248 14.0025 25.5522C14.2243 25.8797 14.5175 26.1524 14.8601 26.3499C15.1448 26.1295 15.3622 25.8338 15.4877 25.4962C15.6132 25.1587 15.6417 24.7928 15.5701 24.4399C15.5153 24.0493 15.3713 23.6766 15.1494 23.3506C14.9274 23.0246 14.6334 22.754 14.2901 22.5599ZM24.1101 11.9999C24.1101 10.3959 23.6344 8.8279 22.7433 7.49422C21.8522 6.16054 20.5856 5.12106 19.1037 4.50723C17.6217 3.89341 15.9911 3.7328 14.4179 4.04573C12.8447 4.35865 11.3997 5.13106 10.2655 6.26526C9.13125 7.39946 8.35885 8.84453 8.04592 10.4177C7.73299 11.9909 7.8936 13.6215 8.50742 15.1035C9.12125 16.5854 10.1607 17.852 11.4944 18.7431C12.8281 19.6343 14.3961 20.1099 16.0001 20.1099C18.1502 20.1073 20.2115 19.252 21.7318 17.7316C23.2521 16.2113 24.1074 14.15 24.1101 11.9999ZM18.7401 15.9999L16.0001 14.5599L13.2601 15.9999L13.7901 12.9999L11.5701 10.8399L14.6301 10.3899L16.0001 7.5699L17.3701 10.3399L20.4301 10.7899L18.2101 12.9999L18.7401 15.9999Z"
    fill="white"/> 
    </svg>