<svg width="32" height="33" viewBox="0 0 32 33" fill="none" xmlns="http://www.w3.org/2000/svg">
<path d="M14.8371 5.02126C15.2009 3.92521 16.799 3.92521 17.1628 5.02126L19.0042 10.569C19.3043 11.4733 20.1605 12.076 21.1161 12.076H27.075C28.2808 12.076 28.7294 13.5543 27.7972 14.2173L22.9763 17.646C22.1969 18.2003 21.8653 19.1889 22.1661 20.0952L24.0075 25.643C24.3583 26.6997 23.11 27.6645 22.1226 26.9623L17.3017 23.5336C16.5248 22.981 15.4751 22.981 14.6982 23.5336L9.87734 26.9623C8.8899 27.6645 7.6416 26.6997 7.99235 25.643L9.83376 20.0952C10.1346 19.1889 9.80299 18.2003 9.02359 17.646L4.20272 14.2173L3.91293 14.6248L4.20272 14.2173C3.27054 13.5543 3.71907 12.076 4.92488 12.076H10.8838C11.8394 12.076 12.6956 11.4733 12.9957 10.569L14.8371 5.02126Z" fill="white" stroke="white"/>
</svg>
