<svg width="33" height="32" viewBox="0 0 33 32" fill="none" xmlns="http://www.w3.org/2000/svg">
<path d="M3.69995 16.8002C3.69995 15.4747 4.77447 14.4002 6.09995 14.4002C7.42543 14.4002 8.49995 15.4747 8.49995 16.8002V26.4002C8.49995 27.7257 7.42543 28.8002 6.09995 28.8002C4.77447 28.8002 3.69995 27.7257 3.69995 26.4002V16.8002Z" fill="white"/>
<path d="M10.1 16.5335V25.2225C10.1 26.4346 10.7848 27.5426 11.8689 28.0847L11.9486 28.1245C12.8373 28.5689 13.8172 28.8002 14.8108 28.8002H23.4766C25.002 28.8002 26.3153 27.7235 26.6144 26.2278L28.5344 16.6278C28.9305 14.6476 27.4159 12.8002 25.3966 12.8002H19.7V6.4002C19.7 4.63288 18.2673 3.2002 16.5 3.2002C15.6163 3.2002 14.9 3.91654 14.9 4.8002V5.86686C14.9 7.25163 14.4508 8.59905 13.62 9.70686L11.38 12.6935C10.5491 13.8013 10.1 15.1488 10.1 16.5335Z" fill="white"/>
</svg>
