<svg width="32" height="33" viewBox="0 0 32 33" fill="none" xmlns="http://www.w3.org/2000/svg">
<path d="M16.6663 27.1667C22.9256 27.1667 27.9997 22.0926 27.9997 15.8333C27.9997 9.57411 22.9256 4.5 16.6663 4.5C10.4071 4.5 5.33301 9.57411 5.33301 15.8333C5.33301 18.2215 6.07168 20.4372 7.33301 22.2643L5.94678 26.5864C5.69456 27.3727 6.45027 28.1086 7.22964 27.8355L11.9997 26.1643C13.4228 26.8082 15.0027 27.1667 16.6663 27.1667Z" stroke="#7DD255" stroke-width="1.5"/>
<path d="M10.667 10.584C10.667 10.1698 11.0028 9.83398 11.417 9.83398H13.0316C13.3983 9.83398 13.7112 10.099 13.7714 10.4607L14.3259 13.7876C14.3801 14.1124 14.216 14.4345 13.9215 14.5817L12.7604 15.1623C13.5977 17.2427 15.2583 18.9033 17.3387 19.7405L17.9193 18.5794C18.0665 18.2849 18.3886 18.1209 18.7134 18.175L22.0403 18.7295C22.4019 18.7898 22.667 19.1027 22.667 19.4693V21.084C22.667 21.4982 22.3312 21.834 21.917 21.834H20.417C15.0322 21.834 10.667 17.4688 10.667 12.084V10.584Z" fill="#7DD255"/>
</svg>
