<svg width="32" height="32" viewBox="0 0 32 32" fill="none" xmlns="http://www.w3.org/2000/svg">
<g clip-path="url(#clip0_104_870)">
<path d="M7.16233 14.2402L6.54133 16.5587C6.39083 17.1212 6.35983 17.7032 6.42083 18.2782L4.66083 19.7272C4.33233 19.9977 3.84533 19.7057 3.92983 19.2887L4.70183 15.4547C4.75483 15.1917 4.56883 14.9407 4.30183 14.9152L0.408834 14.5377C-0.0146658 14.4967 -0.152666 13.9462 0.201834 13.7107L3.45933 11.5457C3.68233 11.3972 3.72833 11.0882 3.55833 10.8812L1.07283 7.86068C0.802334 7.53218 1.09433 7.04568 1.51183 7.12968L5.34583 7.90168C5.60883 7.95468 5.85983 7.76868 5.88583 7.50168L6.26333 3.60868C6.30433 3.18468 6.85484 3.04718 7.09084 3.40168L9.25583 6.65868C9.40433 6.88168 9.71334 6.92768 9.92033 6.75768L12.9403 4.27218C13.2688 4.00168 13.7553 4.29368 13.6713 4.71068L13.1048 7.51868C12.9693 7.67118 12.8333 7.82318 12.7093 7.98868L11.1018 10.1372L10.5663 10.8532C8.92983 11.2912 7.60733 12.5797 7.16233 14.2402ZM31.8908 20.8657L31.2698 23.1837C31.1133 23.7677 30.8008 24.2642 30.3923 24.6517C30.2564 24.7804 30.1099 24.8975 29.9543 25.0017L29.2548 27.6132C29.1978 27.8267 29.0998 28.0182 28.9723 28.1822C28.5888 28.6742 27.9353 28.9162 27.2953 28.7447L25.7498 28.3307C24.8963 28.1022 24.3898 27.2247 24.6183 26.3712L25.0323 24.8257L12.6683 21.5127L12.2543 23.0582C12.0258 23.9117 11.1483 24.4182 10.2948 24.1897L8.74934 23.7757C8.10933 23.6042 7.66433 23.0677 7.57833 22.4502C7.54983 22.2442 7.56083 22.0292 7.61783 21.8162L8.31734 19.2047C8.23459 19.0366 8.16618 18.8618 8.11283 18.6822C7.95283 18.1427 7.93034 17.5562 8.08683 16.9722L8.70784 14.6537C8.97333 13.6637 9.67583 12.9122 10.5523 12.5432C10.8471 12.419 11.1586 12.3395 11.4768 12.3072L12.3833 11.0957L13.9908 8.94718C14.1633 8.71668 14.3503 8.50218 14.5508 8.30518C14.9508 7.91068 15.4023 7.58318 15.8878 7.32968C16.1308 7.20268 16.3823 7.09418 16.6403 7.00518C17.1568 6.82618 17.6998 6.72368 18.2523 6.70318C18.8048 6.68268 19.3678 6.74418 19.9238 6.89318L26.0578 8.53668C26.6138 8.68568 27.1318 8.91368 27.6003 9.20818C28.2995 9.64717 28.892 10.2365 29.3348 10.9332C29.7758 11.6272 30.0668 12.4252 30.1688 13.2827L30.4868 15.9472L30.6663 17.4497C31.1855 17.8245 31.5813 18.3455 31.8033 18.9462C32.0228 19.5402 32.0678 20.2057 31.8908 20.8657ZM12.7788 14.9167C11.8513 14.6682 11.0683 15.1187 10.8203 16.0432C10.5723 16.9677 11.0258 17.7492 11.9528 17.9977C12.8803 18.2462 14.2298 18.7732 14.4773 17.8487C14.7253 16.9242 13.7058 15.1652 12.7788 14.9167ZM27.3093 16.3252L26.9913 13.6607C26.9623 13.4172 26.8968 13.1842 26.8003 12.9677C26.5103 12.3182 25.9403 11.8172 25.2293 11.6267L19.0953 9.98318C18.632 9.85906 18.1421 9.87661 17.6888 10.0336C17.2356 10.1905 16.8397 10.4796 16.5523 10.8637L14.9448 13.0122L23.5448 15.3162L27.3093 16.3252ZM28.2338 19.0577C27.3063 18.8092 25.5438 19.8232 25.2963 20.7472C25.0488 21.6717 26.4808 21.8902 27.4083 22.1387C28.3358 22.3872 29.1188 21.9367 29.3668 21.0122C29.6143 20.0882 29.1613 19.3062 28.2338 19.0577Z" fill="white"/>
</g>
<defs>
<clipPath id="clip0_104_870">
<rect width="32" height="32" fill="white"/>
</clipPath>
</defs>
</svg>
