<svg width="32" height="32" viewBox="0 0 32 32" fill="none" xmlns="http://www.w3.org/2000/svg">
<path d="M28.6647 14.3172C28.4665 13.1932 27.8759 12.1701 27.0015 11.4364C26.5054 11.0201 26.1702 10.4397 26.0577 9.80197C25.8595 8.67796 25.2687 7.6548 24.3945 6.92112C23.5201 6.18744 22.41 5.78332 21.2686 5.78332C20.6211 5.78332 19.9911 5.55406 19.4951 5.13779C18.6206 4.40411 17.5106 4 16.3692 4C15.2278 4 14.1177 4.40411 13.2433 5.13779C12.7472 5.55406 12.1175 5.78332 11.4698 5.78332C10.3283 5.78332 9.21829 6.18744 8.34386 6.92112C7.46943 7.6548 6.87886 8.67796 6.68061 9.80197C6.56815 10.4397 6.23315 11.0201 5.73689 11.4364C4.86246 12.1701 4.27189 13.1932 4.07364 14.3172C3.87539 15.4412 4.08053 16.6048 4.65134 17.5931C4.9751 18.154 5.09154 18.814 4.97909 19.4517C4.78084 20.5757 4.98598 21.7393 5.55678 22.7276C6.1274 23.7161 7.03249 24.4754 8.10498 24.8659C8.71351 25.0874 9.227 25.5181 9.55076 26.079C10.1214 27.0675 11.0265 27.8267 12.099 28.2173C13.1715 28.6076 14.353 28.6076 15.4255 28.2173C16.034 27.9958 16.7042 27.9958 17.3127 28.2173C17.8491 28.4124 18.4124 28.51 18.976 28.51C19.5395 28.51 20.1029 28.4124 20.6392 28.2173C21.7117 27.8269 22.6168 27.0675 23.1874 26.079C23.5112 25.5181 24.0247 25.0874 24.6332 24.8659C25.7057 24.4756 26.6108 23.7161 27.1814 22.7276C27.752 21.7391 27.9572 20.5757 27.7591 19.4517C27.6466 18.814 27.7631 18.154 28.0868 17.5931C28.6575 16.6046 28.8626 15.4412 28.6645 14.3172H28.6647ZM21.3562 14.7319L16.1379 19.8879C15.9009 20.1221 15.5793 20.2538 15.2441 20.2538C14.9089 20.2538 14.5873 20.1221 14.3502 19.8879L11.8958 17.4627C11.4021 16.975 11.4021 16.184 11.8958 15.6963C12.3895 15.2085 13.19 15.2085 13.6837 15.6963L15.2443 17.2382L19.5687 12.9652C20.0624 12.4775 20.8629 12.4775 21.3566 12.9652C21.8503 13.453 21.8503 14.244 21.3566 14.7317L21.3562 14.7319Z" fill="white"/>
</svg>
