<svg width="107" height="49" viewBox="0 0 107 49" fill="none" xmlns="http://www.w3.org/2000/svg">
<path d="M0.482422 36.708V12.4434H16.0367V31.7307H23.5028V12.4434H32.8353V31.7307H40.3014V13.0655C43.7233 14.621 47.4564 32.3528 53.0559 32.3528C58.6555 32.3528 62.6996 15.5542 66.4326 12.4434V31.7307H73.8987V24.5757C73.8987 24.5757 78.876 31.4196 84.1645 31.7307H105.007C105.007 31.7307 103.141 36.708 100.03 36.708H0.482422Z" fill="#0449C8"/>
<path d="M40.3013 4.97737H1.10449C1.10449 4.97737 2.97101 0 6.70404 0H105.94V24.2647H84.1644C84.1644 24.2647 80.1203 24.2647 80.1203 18.6651C80.1203 13.0656 84.1644 13.0656 84.1644 13.0656H100.652V5.59954H83.8533C79.187 5.59954 73.8986 13.0656 73.8986 13.0656C73.8986 13.0656 73.5875 4.97737 66.4325 4.97737C63.0106 4.97737 61.6929 7.15497 58.3443 13.3767C55.6594 18.3653 53.0558 23.9536 53.0558 23.9536C53.0558 23.9536 50.8782 18.3541 48.3895 13.0656C45.7544 7.46606 43.5258 4.97737 40.3013 4.97737Z" fill="#E91E24"/>
<path d="M0 42.0378V41.1563H5.25289V42.0378H3.13516V47.9436H2.11441V42.0378H0Z" fill="#E91E24"/>
<path d="M6.50698 47.9436V41.1563H7.53105V44.1058H10.9148V41.1563H11.9421V47.9436H10.9148V44.9841H7.53105V47.9436H6.50698Z" fill="#E91E24"/>
<path d="M13.5268 47.9436V41.1563H17.7822V42.0378H14.5509V44.1058H17.5601V44.9841H14.5509V47.062H17.8219V47.9436H13.5268Z" fill="#E91E24"/>
<path d="M21.8066 41.1563H23.0494L25.2102 46.4324H25.2897L27.4505 41.1563H28.6933V47.9436H27.719V43.0321H27.656L25.6543 47.9337H24.8456L22.8439 43.0288H22.7809V47.9436H21.8066V41.1563Z" fill="#0449C8"/>
<path d="M36.1713 44.5499C36.1713 45.2746 36.0388 45.8977 35.7736 46.4191C35.5085 46.9383 35.1451 47.3382 34.6833 47.6188C34.2237 47.8972 33.7012 48.0364 33.1157 48.0364C32.528 48.0364 32.0033 47.8972 31.5415 47.6188C31.082 47.3382 30.7196 46.9372 30.4545 46.4158C30.1893 45.8944 30.0568 45.2724 30.0568 44.5499C30.0568 43.8252 30.1893 43.2033 30.4545 42.6841C30.7196 42.1627 31.082 41.7628 31.5415 41.4844C32.0033 41.2038 32.528 41.0635 33.1157 41.0635C33.7012 41.0635 34.2237 41.2038 34.6833 41.4844C35.1451 41.7628 35.5085 42.1627 35.7736 42.6841C36.0388 43.2033 36.1713 43.8252 36.1713 44.5499ZM35.1572 44.5499C35.1572 43.9976 35.0677 43.5325 34.8888 43.1547C34.712 42.7747 34.469 42.4874 34.1597 42.293C33.8526 42.0964 33.5046 41.9981 33.1157 41.9981C32.7247 41.9981 32.3756 42.0964 32.0685 42.293C31.7613 42.4874 31.5183 42.7747 31.3393 43.1547C31.1626 43.5325 31.0742 43.9976 31.0742 44.5499C31.0742 45.1023 31.1626 45.5685 31.3393 45.9485C31.5183 46.3263 31.7613 46.6135 32.0685 46.8102C32.3756 47.0046 32.7247 47.1018 33.1157 47.1018C33.5046 47.1018 33.8526 47.0046 34.1597 46.8102C34.469 46.6135 34.712 46.3263 34.8888 45.9485C35.0677 45.5685 35.1572 45.1023 35.1572 44.5499Z" fill="#0449C8"/>
<path d="M36.9151 42.0378V41.1563H42.1679V42.0378H40.0502V47.9436H39.0295V42.0378H36.9151Z" fill="#0449C8"/>
<path d="M49.0262 44.5499C49.0262 45.2746 48.8937 45.8977 48.6285 46.4191C48.3634 46.9383 48 47.3382 47.5382 47.6188C47.0786 47.8972 46.5561 48.0364 45.9706 48.0364C45.3829 48.0364 44.8582 47.8972 44.3964 47.6188C43.9368 47.3382 43.5745 46.9372 43.3094 46.4158C43.0442 45.8944 42.9117 45.2724 42.9117 44.5499C42.9117 43.8252 43.0442 43.2033 43.3094 42.6841C43.5745 42.1627 43.9368 41.7628 44.3964 41.4844C44.8582 41.2038 45.3829 41.0635 45.9706 41.0635C46.5561 41.0635 47.0786 41.2038 47.5382 41.4844C48 41.7628 48.3634 42.1627 48.6285 42.6841C48.8937 43.2033 49.0262 43.8252 49.0262 44.5499ZM48.0121 44.5499C48.0121 43.9976 47.9226 43.5325 47.7437 43.1547C47.5669 42.7747 47.3239 42.4874 47.0146 42.293C46.7075 42.0964 46.3595 41.9981 45.9706 41.9981C45.5795 41.9981 45.2305 42.0964 44.9234 42.293C44.6162 42.4874 44.3732 42.7747 44.1942 43.1547C44.0175 43.5325 43.9291 43.9976 43.9291 44.5499C43.9291 45.1023 44.0175 45.5685 44.1942 45.9485C44.3732 46.3263 44.6162 46.6135 44.9234 46.8102C45.2305 47.0046 45.5795 47.1018 45.9706 47.1018C46.3595 47.1018 46.7075 47.0046 47.0146 46.8102C47.3239 46.6135 47.5669 46.3263 47.7437 45.9485C47.9226 45.5685 48.0121 45.1023 48.0121 44.5499Z" fill="#0449C8"/>
<path d="M50.3963 47.9436V41.1563H52.8156C53.3415 41.1563 53.7778 41.2469 54.1247 41.428C54.4738 41.6092 54.7345 41.86 54.9068 42.1803C55.0792 42.4985 55.1653 42.8664 55.1653 43.2839C55.1653 43.6993 55.0781 44.065 54.9035 44.3809C54.7312 44.6947 54.4705 44.9388 54.1214 45.1133C53.7745 45.2879 53.3382 45.3752 52.8123 45.3752H51.4204V44.4936H52.7195C53.0509 44.4936 53.3205 44.4461 53.5282 44.3511C53.7381 44.2561 53.8916 44.118 53.9888 43.9368C54.086 43.7556 54.1347 43.538 54.1347 43.2839C54.1347 43.0276 54.0849 42.8056 53.9855 42.6178C53.8883 42.43 53.7347 42.2864 53.5249 42.187C53.3172 42.0853 53.0443 42.0345 52.7063 42.0345H51.4204V47.9436H50.3963ZM54.0291 45.1568L55.4238 47.9436H54.2573L52.8123 45.3752C52.8123 45.3752 53.276 45.3614 53.458 45.3239C53.6399 45.2864 54.0291 45.1568 54.0291 45.1568Z" fill="#0449C8"/>
<path d="M64.7053 43.3635H63.6713C63.6315 43.1425 63.5575 42.9481 63.4492 42.7802C63.341 42.6123 63.2084 42.4698 63.0515 42.3527C62.8947 42.2356 62.719 42.1472 62.5246 42.0875C62.3324 42.0279 62.128 41.9981 61.9115 41.9981C61.5204 41.9981 61.1702 42.0964 60.8609 42.293C60.5538 42.4897 60.3108 42.778 60.1318 43.158C59.955 43.538 59.8667 44.002 59.8667 44.5499C59.8667 45.1023 59.955 45.5685 60.1318 45.9485C60.3108 46.3285 60.5549 46.6157 60.8642 46.8102C61.1735 47.0046 61.5215 47.1018 61.9082 47.1018C62.1225 47.1018 62.3257 47.0731 62.518 47.0156C62.7124 46.956 62.888 46.8687 63.0449 46.7538C63.2018 46.6389 63.3343 46.4986 63.4426 46.3329C63.5531 46.165 63.6293 45.9728 63.6713 45.7563L64.7053 45.7596C64.6501 46.0932 64.5429 46.4003 64.3838 46.6809C64.2269 46.9593 64.0248 47.2001 63.7773 47.4034C63.5321 47.6045 63.2515 47.7602 62.9355 47.8707C62.6196 47.9812 62.2749 48.0364 61.9015 48.0364C61.3138 48.0364 60.7902 47.8972 60.3306 47.6188C59.8711 47.3382 59.5087 46.9372 59.2436 46.4158C58.9807 45.8944 58.8492 45.2724 58.8492 44.5499C58.8492 43.8252 58.9818 43.2033 59.2469 42.6841C59.5121 42.1627 59.8744 41.7628 60.334 41.4844C60.7935 41.2038 61.316 41.0635 61.9015 41.0635C62.2617 41.0635 62.5975 41.1154 62.909 41.2192C63.2228 41.3209 63.5045 41.4711 63.7541 41.67C64.0038 41.8666 64.2104 42.1074 64.3739 42.3924C64.5374 42.6752 64.6478 42.9989 64.7053 43.3635Z" fill="#E91E24"/>
<path d="M71.9198 44.5499C71.9198 45.2746 71.7873 45.8977 71.5221 46.4191C71.257 46.9383 70.8936 47.3382 70.4318 47.6188C69.9722 47.8972 69.4497 48.0364 68.8642 48.0364C68.2765 48.0364 67.7518 47.8972 67.29 47.6188C66.8304 47.3382 66.4681 46.9372 66.203 46.4158C65.9378 45.8944 65.8053 45.2724 65.8053 44.5499C65.8053 43.8252 65.9378 43.2033 66.203 42.6841C66.4681 42.1627 66.8304 41.7628 67.29 41.4844C67.7518 41.2038 68.2765 41.0635 68.8642 41.0635C69.4497 41.0635 69.9722 41.2038 70.4318 41.4844C70.8936 41.7628 71.257 42.1627 71.5221 42.6841C71.7873 43.2033 71.9198 43.8252 71.9198 44.5499ZM70.9057 44.5499C70.9057 43.9976 70.8162 43.5325 70.6373 43.1547C70.4605 42.7747 70.2175 42.4874 69.9082 42.293C69.6011 42.0964 69.2531 41.9981 68.8642 41.9981C68.4731 41.9981 68.1241 42.0964 67.817 42.293C67.5098 42.4874 67.2668 42.7747 67.0878 43.1547C66.9111 43.5325 66.8227 43.9976 66.8227 44.5499C66.8227 45.1023 66.9111 45.5685 67.0878 45.9485C67.2668 46.3263 67.5098 46.6135 67.817 46.8102C68.1241 47.0046 68.4731 47.1018 68.8642 47.1018C69.2531 47.1018 69.6011 47.0046 69.9082 46.8102C70.2175 46.6135 70.4605 46.3263 70.6373 45.9485C70.8162 45.5685 70.9057 45.1023 70.9057 44.5499Z" fill="#E91E24"/>
<path d="M73.2899 41.1563H74.5327L76.6935 46.4324H76.7731L78.9339 41.1563H80.1767V47.9436H79.2023V43.0321H79.1394L77.1376 47.9337H76.329L74.3272 43.0288H74.2643V47.9436H73.2899V41.1563Z" fill="#E91E24"/>
<path d="M81.7589 47.9436V41.1563H84.1782C84.7062 41.1563 85.1437 41.2524 85.4906 41.4446C85.8375 41.6368 86.0971 41.8997 86.2694 42.2334C86.4417 42.5648 86.5279 42.9382 86.5279 43.3535C86.5279 43.7711 86.4406 44.1467 86.2661 44.4803C86.0938 44.8118 85.833 45.0747 85.4839 45.2691C85.1371 45.4613 84.7007 45.5574 84.1749 45.5574H82.7829V44.6891H84.0821C84.4157 44.6891 84.6863 44.6317 84.894 44.5168C85.1017 44.3997 85.2542 44.2406 85.3514 44.0396C85.4486 43.8385 85.4972 43.6098 85.4972 43.3535C85.4972 43.0972 85.4486 42.8697 85.3514 42.6708C85.2542 42.472 85.1006 42.3162 84.8907 42.2035C84.683 42.0909 84.4091 42.0345 84.0688 42.0345H82.7829V47.9436H81.7589Z" fill="#E91E24"/>
<path d="M87.6751 47.9436H86.5881L89.0306 41.1563H90.2137L92.6562 47.9436H91.5692L89.6503 42.3891H89.5973L87.6751 47.9436ZM88.5949 45.2857H90.651L90.9487 46.1473H88.2967L88.5949 45.2857Z" fill="#E91E24"/>
<path d="M99.208 41.1563V47.9436H98.2668L94.8167 42.9658H94.7538V47.9436H93.7297V41.1563H94.6776L98.1309 46.1407H98.1938V41.1563H99.208Z" fill="#E91E24"/>
<path d="M100.271 41.1563H101.435L103.208 44.2417H103.281L105.054 41.1563H106.217L103.755 45.279V47.9436H102.734V45.279L100.271 41.1563Z" fill="#E91E24"/>
</svg>
