<svg width="32" height="32" viewBox="0 0 32 32" fill="none" xmlns="http://www.w3.org/2000/svg">
<g clip-path="url(#clip0_104_370)">
<path d="M6.39977 8.0002C7.72477 8.0002 8.79977 6.9252 8.79977 5.6002C8.79977 4.2752 7.72477 3.2002 6.39977 3.2002C5.07477 3.2002 3.99977 4.2752 3.99977 5.6002C3.99977 6.9252 5.07477 8.0002 6.39977 8.0002ZM25.5998 8.0002C26.9248 8.0002 27.9998 6.9252 27.9998 5.6002C27.9998 4.2752 26.9248 3.2002 25.5998 3.2002C24.2748 3.2002 23.1998 4.2752 23.1998 5.6002C23.1998 6.9252 24.2748 8.0002 25.5998 8.0002ZM31.8848 26.6052L29.6848 21.1052L27.6298 23.4252L27.5298 24.3352L28.9148 27.7952C29.1648 28.4202 29.7648 28.8002 30.3998 28.8002C30.5998 28.8002 30.7998 28.7652 30.9948 28.6852C31.8148 28.3552 32.2148 27.4252 31.8848 26.6052ZM30.1748 16.1152L29.2498 12.1052C29.0198 11.1052 28.3198 10.2652 27.3748 9.8602C26.4498 9.4602 25.4248 9.5252 24.5698 10.0252C23.4348 10.6952 22.5848 11.7502 22.1648 12.9952L21.5998 14.6902L20.7998 15.2002V10.4002C20.7998 9.9602 20.4398 9.6002 19.9998 9.6002H11.9998C11.5598 9.6002 11.1998 9.9602 11.1998 10.4002V15.2002L10.3948 14.6902L9.82977 12.9952C9.41477 11.7452 8.55977 10.6952 7.42477 10.0252C6.56477 9.5252 5.54477 9.4602 4.61977 9.8602C3.67477 10.2652 2.97477 11.1052 2.74477 12.1052L1.82477 16.1152C1.59477 17.1152 1.85977 18.1752 2.54477 18.9502L5.90477 22.7452L6.40977 27.3752C6.49977 28.1902 7.18977 28.8002 7.99977 28.8002C8.05977 28.8002 8.11477 28.7952 8.17477 28.7902C9.05477 28.6952 9.68477 27.9052 9.58977 27.0252L9.08477 22.3852C9.00977 21.7352 8.73977 21.1302 8.30477 20.6352L6.13977 18.1852L7.01977 14.6702L7.35977 15.6902C7.56477 16.3152 7.95477 16.8602 8.58477 17.3202L11.1398 18.9452C11.3698 19.0902 11.7448 19.1752 11.9998 19.1952H19.9998C20.2548 19.1752 20.6298 19.0902 20.8598 18.9452L23.4148 17.3202C24.0448 16.8602 24.4348 16.3202 24.6398 15.6902L24.9798 14.6702L25.8598 18.1852L23.6948 20.6352C23.2598 21.1302 22.9898 21.7352 22.9148 22.3852L22.4098 27.0252C22.3148 27.9052 22.9498 28.6952 23.8248 28.7902C23.8848 28.7952 23.9398 28.8002 23.9998 28.8002C24.8048 28.8002 25.4998 28.1952 25.5898 27.3752L26.0948 22.7452L29.4548 18.9502C30.1348 18.1752 30.4048 17.1152 30.1748 16.1152ZM2.31477 21.1052L0.114772 26.6052C-0.215228 27.4252 0.184772 28.3552 1.00477 28.6852C1.84477 29.0152 2.75977 28.6002 3.08477 27.7952L4.46977 24.3352L4.36977 23.4252L2.31477 21.1052Z" fill="white"/>
</g>
<defs>
<clipPath id="clip0_104_370">
<rect width="32" height="32" fill="white"/>
</clipPath>
</defs>
</svg>
 